<svg width="64" height="64" viewBox="0 0 64 64" fill="none" xmlns="http://www.w3.org/2000/svg">
<path d="M30 30.5C30 31.3284 29.3284 32 28.5 32C27.6716 32 27 31.3284 27 30.5C27 29.6716 27.6716 29 28.5 29C29.3284 29 30 29.6716 30 30.5Z" fill="#323942"/>
<path d="M35.5 32C36.3284 32 37 31.3284 37 30.5C37 29.6716 36.3284 29 35.5 29C34.6716 29 34 29.6716 34 30.5C34 31.3284 34.6716 32 35.5 32Z" fill="#323942"/>
<path d="M31.9998 36C31.1135 36 30.2951 35.7124 29.6317 35.2242C29.2759 34.9623 28.7736 34.9301 28.4466 35.2273L28.1506 35.4963C27.8237 35.7935 27.7965 36.3042 28.1343 36.589C29.1778 37.4686 30.5273 38 31.9998 38C33.4724 38 34.8218 37.4686 35.8653 36.589C36.2031 36.3042 36.176 35.7935 35.849 35.4963L35.553 35.2273C35.226 34.9301 34.7237 34.9623 34.3679 35.2242C33.7046 35.7124 32.8862 36 31.9998 36Z" fill="#323942"/>
<path fill-rule="evenodd" clip-rule="evenodd" d="M22 32C22 26.4772 26.4772 22 32 22C37.5228 22 42 26.4772 42 32C42 37.5228 37.5228 42 32 42C26.4772 42 22 37.5228 22 32ZM32 24C27.5817 24 24 27.5817 24 32C24 36.4183 27.5817 40 32 40C36.4183 40 40 36.4183 40 32C40 27.5817 36.4183 24 32 24Z" fill="#323942"/>
<rect x="1" y="1" width="62" height="62" rx="31" stroke="#A7E92F" stroke-width="2"/>
</svg>
