<?xml version="1.0" encoding="UTF-8"?> <svg xmlns="http://www.w3.org/2000/svg" width="54" height="54" viewBox="0 0 54 54" fill="none"> <circle cx="27" cy="27" r="26" stroke="#111111" stroke-width="2"></circle> <path d="M28 17C28 16.4477 27.5523 16 27 16C26.4477 16 26 16.4477 26 17L28 17ZM26.2929 37.7071C26.6834 38.0976 27.3166 38.0976 27.7071 37.7071L34.0711 31.3431C34.4616 30.9526 34.4616 30.3195 34.0711 29.9289C33.6805 29.5384 33.0474 29.5384 32.6569 29.9289L27 35.5858L21.3431 29.9289C20.9526 29.5384 20.3195 29.5384 19.9289 29.9289C19.5384 30.3195 19.5384 30.9526 19.9289 31.3431L26.2929 37.7071ZM26 17L26 37L28 37L28 17L26 17Z" fill="black"></path> </svg> 