<?xml version="1.0" encoding="UTF-8"?> <svg xmlns="http://www.w3.org/2000/svg" width="398" height="113" viewBox="0 0 398 113" fill="none"> <g clip-path="url(#clip0_9_35)"> <path fill-rule="evenodd" clip-rule="evenodd" d="M387.997 57.3952C387.351 55.1043 385.976 53.087 384.079 51.6503C382.182 50.2136 379.868 49.4361 377.489 49.4361C375.11 49.4361 372.796 50.2136 370.899 51.6503C369.002 53.087 367.627 55.1043 366.981 57.3952H387.997ZM377.625 41.0121C380.63 40.8701 383.628 41.4202 386.387 42.62C389.145 43.8198 391.592 45.6373 393.538 47.9324C395.484 50.2274 396.877 52.9389 397.611 55.8577C398.344 58.7765 398.398 61.8247 397.768 64.7676H366.654C366.969 67.3979 368.272 69.8097 370.3 71.5136C372.327 73.2175 374.927 74.0857 377.571 73.9421C379.84 74.0469 382.09 73.4748 384.033 72.2983C385.977 71.1218 387.528 69.394 388.488 67.3343L397.058 71.7031C395.205 75.1779 392.433 78.0756 389.044 80.0791C385.655 82.0826 381.78 83.1146 377.844 83.062C372.27 83.062 366.925 80.8469 362.983 76.9039C359.042 72.961 356.828 67.6132 356.828 62.0371C356.828 56.4609 359.042 51.1131 362.983 47.1702C366.925 43.2273 372.27 41.0121 377.844 41.0121H377.625Z" fill="black"></path> <path d="M345.529 41.9404L335.758 70.5016L326.042 41.9404H315.07L329.59 81.6967H341.981L356.501 41.9404H345.529Z" fill="black"></path> <path d="M309.719 41.9404H299.402V81.6967H309.719V41.9404Z" fill="black"></path> <path d="M309.719 26.5405H299.402V36.8619H309.719V26.5405Z" fill="black"></path> <path d="M277.677 46.2001L277.349 42.1043H267.797V81.8606H278.004V64.3853C277.856 62.4322 278.193 60.4727 278.987 58.6821C279.781 56.8914 281.006 55.3256 282.552 54.1245C284.099 52.9234 285.919 52.1246 287.85 51.7996C289.78 51.4745 291.762 51.6334 293.616 52.2619V41.6129C290.796 40.8151 287.809 40.8219 284.993 41.6325C282.176 42.4431 279.642 44.0251 277.677 46.2001Z" fill="black"></path> <path d="M234.884 31.1826H216.598V81.8062H234.884C238.305 81.9653 241.723 81.4284 244.932 80.2281C248.14 79.0278 251.071 77.189 253.548 74.823C256.026 72.4569 257.998 69.6127 259.345 66.4623C260.693 63.312 261.387 59.921 261.387 56.4944C261.387 53.0678 260.693 49.6768 259.345 46.5265C257.998 43.3762 256.026 40.5319 253.548 38.1659C251.071 35.7998 248.14 33.961 244.932 32.7607C241.723 31.5604 238.305 31.0235 234.884 31.1826ZM234.884 71.9764H226.969V40.9032H234.884C236.966 40.7631 239.055 41.0638 241.013 41.7857C242.972 42.5077 244.756 43.6345 246.25 45.0928C247.743 46.5512 248.913 48.3082 249.682 50.2492C250.452 52.1903 250.803 54.2718 250.714 56.3579C250.799 58.4221 250.455 60.4814 249.702 62.4054C248.95 64.3293 247.806 66.0758 246.343 67.534C244.881 68.9923 243.131 70.1305 241.205 70.8764C239.279 71.6224 237.22 71.9598 235.157 71.8672L234.884 71.9764Z" fill="black"></path> <path d="M180.79 46.0365L180.463 42.1045H170.91V81.9154H181.227V61.2181C181.227 49.04 198.094 48.1116 198.094 58.5422V81.6969H208.411V57.6138C208.411 39.8109 188.76 37.6265 180.79 46.0365Z" fill="black"></path> <path d="M162.883 41.9404H152.566V81.6967H162.883V41.9404Z" fill="black"></path> <path d="M162.883 26.5405H152.566V36.8619H162.883V26.5405Z" fill="black"></path> <path d="M0 56.3577C0 40.7392 -2.11483e-06 32.8753 2.18344 26.5952C4.1227 20.9354 7.32918 15.7938 11.558 11.5631C15.7868 7.33243 20.9261 4.12453 26.5834 2.18441C32.8608 -2.11576e-06 40.7211 0 56.3327 0C71.9443 0 79.8593 -2.11576e-06 86.1367 2.18441C91.79 4.13176 96.9255 7.34215 101.153 11.5718C105.381 15.8015 108.59 20.9393 110.537 26.5952C112.72 32.8753 112.72 40.7392 112.72 56.3577C112.72 71.9763 112.72 79.8401 110.537 86.1749C108.579 91.8248 105.367 96.957 101.14 101.185C96.914 105.413 91.7841 108.628 86.1367 110.586C79.8593 112.77 71.9989 112.77 56.3327 112.77C40.6666 112.77 32.8608 112.77 26.5834 110.586C20.9301 108.638 15.7945 105.428 11.5667 101.198C7.3389 96.9685 4.12992 91.8307 2.18344 86.1749C-2.11483e-06 79.8401 0 72.0309 0 56.3577Z" fill="#A7E92F"></path> <path fill-rule="evenodd" clip-rule="evenodd" d="M58.0789 26.7046H63.8104C71.657 26.7046 79.1822 29.823 84.7306 35.3739C90.2789 40.9247 93.396 48.4533 93.396 56.3033C93.396 64.1534 90.2789 71.6819 84.7306 77.2328C79.1822 82.7836 71.657 85.9021 63.8104 85.9021H56.2229C55.6669 85.8755 55.1407 85.6426 54.747 85.2488C54.3534 84.855 54.1206 84.3285 54.0941 83.7723C54.0941 83.2808 54.0941 82.6254 54.0941 81.9155V77.1644C54.0941 76.4545 54.0941 75.7992 54.0941 75.3077C54.1206 74.7514 54.3534 74.2249 54.747 73.8311C55.1407 73.4373 55.6669 73.2044 56.2229 73.1779H63.8104C67.1541 73.1612 70.4195 72.1632 73.2018 70.3078C75.984 68.4523 78.1609 65.8208 79.4627 62.7394C80.7644 59.658 81.1338 56.2623 80.5249 52.9729C79.9161 49.6835 78.3559 46.6452 76.0376 44.2345C74.4578 42.6794 72.5789 41.4613 70.5147 40.654C68.4505 39.8467 66.2439 39.4671 64.0287 39.538H56.2229C55.6669 39.5115 55.1407 39.2785 54.747 38.8847C54.3534 38.4909 54.1206 37.9645 54.0941 37.4082C54.0941 36.9167 54.0941 36.2614 54.0941 35.5514V30.8004C54.0941 30.0904 54.0941 29.4351 54.0941 28.9436C54.1739 28.4015 54.4004 27.8916 54.7491 27.4691C55.1623 27.1143 55.6796 26.9035 56.2229 26.8684C56.8401 26.8071 57.4617 26.8071 58.0789 26.8684V26.7046ZM35.2073 48.9309C34.5903 48.8678 33.9684 48.8678 33.3514 48.9309C32.797 48.9636 32.2733 49.1965 31.8776 49.5863C31.4872 49.9593 31.253 50.4669 31.2226 51.0061C31.2226 51.4976 31.2226 52.1529 31.2226 52.8629V81.7517C31.2226 82.4616 31.2226 83.1169 31.2226 83.6084C31.2552 84.1631 31.4879 84.687 31.8776 85.0829C32.2908 85.4377 32.808 85.6485 33.3514 85.6836C33.9684 85.7468 34.5903 85.7468 35.2073 85.6836H40.393C41.01 85.7468 41.6319 85.7468 42.2489 85.6836C42.7923 85.6485 43.3096 85.4377 43.7227 85.0829C44.1044 84.6816 44.3358 84.1608 44.3778 83.6084C44.3778 83.1169 44.3778 82.4616 44.3778 81.7517V53.0267C44.3778 52.3168 44.3778 51.7161 44.3778 51.17C44.3383 50.6233 44.0998 50.1102 43.7074 49.7278C43.3151 49.3453 42.7961 49.1201 42.2489 49.0948C41.6319 49.0316 41.01 49.0316 40.393 49.0948L35.2073 48.9309ZM35.2073 26.7046H33.2968C32.755 26.7845 32.2453 27.0111 31.823 27.3599C31.4334 27.7558 31.2006 28.2797 31.168 28.8344C31.168 29.3259 31.168 29.9812 31.168 30.6911V35.5514C31.168 36.2614 31.168 36.9167 31.168 37.4082C31.2006 37.9628 31.4334 38.4868 31.823 38.8827C32.2453 39.2315 32.755 39.4581 33.2968 39.538H42.1943C42.7362 39.4581 43.2458 39.2315 43.6682 38.8827C44.0578 38.4868 44.2906 37.9628 44.3232 37.4082C44.3232 36.9167 44.3232 36.2614 44.3232 35.5514V30.6911C44.3232 29.9812 44.3232 29.3259 44.3232 28.8344C44.269 28.2852 44.0393 27.7682 43.6682 27.3599C43.2458 27.0111 42.7362 26.7845 42.1943 26.7046H35.2073Z" fill="#1B1B1C"></path> </g> <defs> <clipPath id="clip0_9_35"> <rect width="398" height="113" fill="white"></rect> </clipPath> </defs> </svg> 