<?xml version="1.0" encoding="UTF-8"?> <svg xmlns="http://www.w3.org/2000/svg" width="136" height="136" viewBox="0 0 136 136" fill="none"> <path d="M69.9232 105.662C93.2611 105.662 112.18 86.7431 112.18 63.4051C112.18 40.0671 93.2611 21.1479 69.9232 21.1479C46.5852 21.1479 27.666 40.0671 27.666 63.4051C27.666 86.7431 46.5852 105.662 69.9232 105.662Z" fill="#A4E62F"></path> <path d="M30.659 113.269C30.3773 113.269 30.0956 113.142 29.9013 112.909C29.6099 112.569 29.571 112.103 29.8042 111.724L37.5173 99.1441C27.7156 90.3623 22.567 77.8115 23.3733 64.6486C24.7139 42.9858 42.0636 25.8206 63.7459 24.7132C75.811 24.0915 87.6236 28.6281 96.143 37.1378C104.672 45.6475 109.218 57.4503 108.616 69.5252C107.548 91.1686 89.751 108.936 68.0979 109.995C61.1424 110.345 54.1579 108.965 47.9019 106.041L31.0476 113.191C30.931 113.239 30.795 113.269 30.659 113.269ZM63.775 25.1503L63.7944 25.5875C42.559 26.6658 25.559 43.4812 24.2476 64.6972C23.4413 77.7143 28.5899 90.1195 38.3624 98.7263L38.6344 98.9692L30.5424 112.171C30.5036 112.239 30.523 112.297 30.5522 112.336C30.5813 112.375 30.6396 112.404 30.7076 112.375L47.9213 105.07L48.0962 105.157C54.2744 108.081 61.1716 109.451 68.059 109.111C89.2653 108.081 106.693 90.6635 107.742 69.4766C108.325 57.6543 103.876 46.0943 95.5213 37.7595C87.1767 29.4246 75.6264 24.9949 63.7847 25.5875L63.775 25.1503Z" fill="black"></path> <path d="M43.9375 80.7355V55.2646H55.1769C60.1604 55.2646 63.3466 58.9075 63.3466 63.5121C63.3466 68.1458 60.1604 71.4875 55.1769 71.4875H49.2706V80.7355H43.9375ZM54.3221 67.1549C57.3918 67.1549 58.6644 65.5812 58.6644 63.3567C58.6644 61.2487 57.4015 59.6749 54.3221 59.6749H49.2609V67.1549H54.3221Z" fill="#016A2B"></path> <path d="M82.1345 80.7355V74.1784C82.1345 71.7207 81.2116 70.7686 78.1419 70.7686H72.4687V80.7355H67.291V55.2646H80.211C84.9224 55.2646 88.0407 58.4121 88.0407 62.6281C88.0407 65.3481 86.7002 67.6504 84.2424 68.5344C86.5059 69.2629 87.3413 70.5258 87.3413 73.5178V80.7355H82.1345ZM72.459 59.6749V66.4652H79.1327C81.9693 66.4652 83.0379 65.0469 83.0379 63.0847C83.0379 61.0932 81.9693 59.6749 79.327 59.6749H72.459Z" fill="#016A2B"></path> </svg> 