<?xml version="1.0" encoding="UTF-8"?> <svg xmlns="http://www.w3.org/2000/svg" width="260" height="178" viewBox="0 0 260 178" fill="none"> <path d="M245.488 151.557C245.488 151.557 245.1 151.855 244.857 151.855C244.518 151.855 244.129 151.954 243.838 151.805C243.401 151.557 243.013 151.358 242.77 151.606C242.285 151.507 241.994 151.458 241.703 151.358C241.363 151.209 240.975 151.11 240.732 150.862C240.149 150.167 238.888 150.366 238.791 149.125C237.286 147.438 238.014 145.353 237.917 143.418C237.917 142.276 237.917 141.185 238.014 140.043C238.063 139.348 238.257 138.703 238.402 138.008C238.693 136.222 238.936 134.435 239.373 132.649C239.907 130.465 240.295 128.281 241.169 126.197C241.703 124.956 241.945 123.616 242.382 122.326C242.576 121.78 242.867 121.284 243.062 120.787C243.159 120.49 243.11 120.093 243.159 119.745H242.964C242.964 119.745 242.964 119.993 242.916 119.993C241.848 120.043 241.217 120.936 240.344 121.383C239.858 121.631 239.373 122.028 238.936 122.376C237.82 123.269 236.752 124.162 235.684 125.055C234.083 126.395 232.481 127.785 230.831 129.125C229.084 130.564 227.336 131.904 225.589 133.343C224.521 134.237 223.502 135.18 222.434 136.073C221.852 136.619 221.27 137.214 220.687 137.76C220.445 137.959 220.153 138.058 219.911 138.257C219.522 138.554 219.183 138.902 218.843 139.199C218.018 139.944 217.193 140.688 216.416 141.482C214.912 142.922 213.456 144.311 212 145.75C211.272 146.445 210.495 147.09 209.815 147.884C208.602 149.274 207.437 150.663 206.37 152.103C205.836 152.797 205.544 153.74 205.011 154.485C204.622 155.08 204.088 155.577 203.555 156.023C203.409 156.172 203.021 156.023 202.729 156.023C202.438 156.023 202.099 156.023 201.71 156.073C201.37 155.874 200.885 155.626 200.4 155.378C199.769 155.031 199.089 154.783 198.555 154.386C198.264 154.137 198.167 153.592 197.973 153.095C197.536 153.244 197.391 152.996 197.585 152.351C197.925 151.209 198.264 150.018 198.604 148.877C198.701 148.629 198.992 148.529 199.089 148.281C199.429 147.487 199.72 146.693 200.06 145.85C200.254 145.304 200.497 144.807 200.691 144.261C200.691 144.113 200.788 143.914 200.691 143.815C200.642 143.716 200.4 143.716 200.303 143.765C200.012 143.864 199.72 143.964 199.526 144.162C198.313 145.403 196.663 145.8 195.304 146.693C194.382 147.338 193.508 148.033 192.537 148.678C191.858 149.125 191.081 149.423 190.402 149.82C189.625 150.217 188.849 150.564 188.121 151.011C187.295 151.458 186.519 151.954 185.694 152.351C185.306 152.549 184.82 152.649 184.432 152.847C183.947 153.145 183.558 153.691 183.024 153.79C182.394 153.939 181.957 154.336 181.374 154.584C180.549 154.981 179.676 155.279 178.851 155.676C178.268 155.974 177.686 156.371 177.103 156.718C175.453 157.711 173.803 158.753 172.104 159.646C169.969 160.738 167.785 161.681 165.649 162.624C164.533 163.12 163.417 163.616 162.252 163.865C160.893 164.162 159.534 164.311 158.175 164.212C157.059 164.113 155.991 163.616 154.923 163.219C154.195 162.971 153.467 162.624 152.836 162.177C152.351 161.83 151.962 161.284 151.623 160.738C150.895 159.597 150.021 158.505 149.584 157.214C149.245 156.321 149.342 155.18 149.536 154.187C150.021 151.755 150.652 149.274 151.38 146.892C151.72 145.701 152.399 144.559 152.933 143.467C153.37 142.574 153.904 141.78 154.341 140.887C154.777 140.093 155.117 139.249 155.505 138.455C155.651 138.207 155.845 138.008 155.991 137.76C156.379 137.165 156.816 136.619 157.204 136.023C157.835 135.18 158.418 134.286 159.048 133.443C159.291 133.145 159.679 132.897 159.922 132.599C160.407 132.003 160.796 131.309 161.233 130.713C161.475 130.366 161.912 130.167 162.203 129.82C162.98 128.926 163.659 127.934 164.533 127.09C165.406 126.247 166.377 125.502 167.251 124.708C167.639 124.361 167.93 123.964 168.27 123.616C168.707 123.219 169.144 122.872 169.58 122.524C169.92 122.276 170.26 122.028 170.648 121.73C170.551 121.631 170.454 121.532 170.406 121.482C170.988 120.936 171.522 120.44 172.153 119.894C172.25 119.894 172.347 120.043 172.638 120.192C173.269 119.448 173.851 118.703 174.531 117.859C174.531 118.108 174.531 118.256 174.531 118.455C174.628 118.405 174.677 118.356 174.725 118.356C175.21 118.108 175.162 117.314 175.987 117.363C176.472 117.363 177.006 116.917 177.54 116.619C177.443 116.42 177.346 116.321 177.2 116.073C177.637 116.023 178.025 115.974 178.511 115.874C178.462 115.725 178.365 115.577 178.171 115.279C178.851 114.931 179.53 114.534 180.209 114.187C180.743 113.889 181.277 113.591 181.811 113.294C181.957 113.244 182.151 113.244 182.296 113.294C182.879 113.542 183.267 113.294 183.655 112.847C183.558 112.847 183.413 112.847 183.17 112.897C183.316 112.599 183.413 112.351 183.51 112.202C183.995 112.301 184.383 112.351 184.772 112.45C184.772 112.4 184.772 112.351 184.82 112.301C184.675 112.152 184.529 112.003 184.189 111.706C184.578 111.606 184.966 111.706 185.16 111.507C185.548 111.06 186.276 111.507 186.616 110.912C186.713 110.763 187.004 110.713 187.198 110.713C188.363 110.812 189.577 110.515 190.499 109.969C191.227 109.522 191.712 109.77 192.343 109.82C193.023 109.919 193.556 110.117 194.09 110.663C195.207 111.854 196.469 112.847 197.197 114.336L197.294 114.435C197.148 116.122 198.167 117.81 197.294 119.497C196.663 120.639 196.177 121.879 195.498 122.971C194.867 123.964 194.187 124.956 193.411 125.85C192.295 127.14 191.13 128.281 189.916 129.472C188.897 130.515 187.829 131.507 186.81 132.5C186.519 132.748 185.985 132.897 185.888 133.194C185.548 134.088 184.626 134.088 184.092 134.683C183.558 135.279 182.733 135.676 182.054 136.123C179.967 137.562 177.88 138.951 175.841 140.44C174.677 141.333 173.318 141.78 172.007 142.326C171.716 142.475 171.328 142.574 171.134 142.822C170.745 143.368 170.26 143.219 169.726 143.17C169.241 143.12 168.852 143.517 168.27 143.269C167.785 143.07 167.154 143.219 166.571 143.12C165.115 142.971 163.708 142.525 162.3 141.681C161.766 142.525 161.233 143.319 160.747 144.162C160.165 145.155 159.582 146.147 159.146 147.19C158.563 148.678 158.078 150.266 157.544 151.805C157.35 152.351 157.253 152.946 157.204 153.542C157.107 154.386 157.35 154.683 158.175 154.783C160.213 154.981 162.009 154.187 163.853 153.592C165.067 153.244 166.135 152.5 167.299 152.003C167.639 151.855 168.076 151.755 168.416 151.557C170.163 150.663 171.862 149.77 173.609 148.877C175.016 148.132 176.375 147.289 177.783 146.644C178.705 146.247 179.579 145.75 180.404 145.254C181.423 144.659 182.491 144.113 183.607 143.616C184.772 143.12 185.985 142.773 187.15 142.326C187.49 142.177 187.829 141.979 188.121 141.78C188.849 141.383 189.528 140.936 190.305 140.539C190.547 140.44 190.887 140.539 191.227 140.49C191.955 139.993 192.683 139.497 193.459 138.951C193.459 138.951 193.556 139.051 193.605 139.051C193.556 139.199 193.459 139.398 193.411 139.547C193.945 139.795 195.886 138.802 196.08 138.108C195.886 138.157 195.789 138.207 195.643 138.257C195.643 138.157 195.546 138.008 195.546 138.008C195.74 137.909 195.935 137.76 196.08 137.81C197.051 138.257 197.827 137.81 198.604 137.264C198.944 137.016 199.429 137.065 199.866 136.966C200.109 136.917 200.351 136.768 200.594 136.668C200.642 136.768 200.691 136.917 200.74 136.966C201.225 136.619 201.662 136.271 202.196 135.874C202.39 136.52 202.535 136.966 202.681 137.413C203.312 137.214 203.749 136.917 203.846 136.222C203.894 135.825 204.234 135.477 204.428 135.08C204.622 134.783 204.768 134.435 204.962 134.137C205.205 133.691 205.544 133.244 205.739 132.748C206.127 131.755 206.467 130.713 206.903 129.77C207.098 129.224 207.437 128.778 207.68 128.232C208.311 126.892 208.893 125.552 209.524 124.212C209.961 123.319 210.446 122.425 210.883 121.482C211.369 120.49 211.757 119.448 212.194 118.455C212.63 117.413 213.164 116.371 213.31 115.328C213.407 114.584 213.601 113.889 214.038 113.294C214.572 112.549 214.766 111.656 215.057 110.812C215.348 110.018 215.543 109.175 215.882 108.381C216.076 107.884 216.368 107.388 216.707 107.041C217.193 106.544 217.387 105.651 218.309 105.651C218.358 105.651 218.406 105.353 218.552 105.006C218.649 105.452 218.697 105.651 218.697 105.849C218.746 105.849 218.794 105.849 218.843 105.849C218.94 105.651 219.086 105.403 219.037 105.304C218.794 104.857 219.037 104.559 219.377 104.51C219.619 104.51 219.959 104.758 220.153 105.055C221.415 104.708 221.706 105.949 221.998 106.544C222.434 107.586 223.211 108.529 223.114 109.72C223.114 110.366 223.017 111.06 222.92 111.706C222.774 112.599 222.58 113.443 222.289 114.286C221.998 115.229 221.609 116.122 221.27 117.016C220.784 118.207 220.347 119.398 219.862 120.589C219.814 120.787 219.765 120.986 219.716 121.135C219.328 121.929 218.94 122.773 218.552 123.567C218.066 124.609 217.532 125.651 217.047 126.693C216.61 127.686 216.173 128.678 215.737 129.721C215.445 130.415 215.106 131.06 214.815 131.755C214.766 131.904 214.717 132.053 214.62 132.351C214.96 132.202 215.203 132.202 215.348 132.103C216.416 131.209 217.435 130.266 218.503 129.373C219.183 128.827 219.911 128.43 220.59 127.884C220.881 127.636 221.075 127.239 221.367 126.991C221.658 126.743 221.998 126.445 222.337 126.346C223.114 126.098 223.502 125.502 224.085 125.006C225.007 124.261 225.88 123.368 226.803 122.624C227.336 122.227 228.016 122.028 228.501 121.582C229.035 121.085 229.715 120.787 230.054 120.043C230.297 119.497 230.976 119.199 231.462 118.802C231.85 118.455 232.287 118.157 232.675 117.859C232.869 117.711 233.161 117.661 233.452 117.562C233.452 117.562 233.452 117.363 233.452 117.314C234.471 116.569 235.393 115.775 236.267 114.931C236.364 114.832 236.509 114.733 236.558 114.783C237.237 114.882 237.432 114.286 237.771 113.988C238.305 113.492 238.936 113.095 239.519 112.698C240.198 112.202 240.878 111.755 241.557 111.309C242.431 110.763 243.401 110.366 244.275 109.82C244.663 109.621 245.003 109.323 245.391 109.026C246.168 108.43 247.236 108.48 247.964 107.735C248.352 107.338 249.031 107.14 249.614 107.041C250.487 106.892 251.361 106.445 252.283 106.743C252.429 106.792 252.574 106.991 252.72 107.14C252.963 107.438 253.108 107.735 253.351 108.033C253.836 108.629 254.613 109.175 254.807 109.82C255.098 110.862 255.389 112.053 254.807 113.194C254.807 113.294 254.71 113.393 254.71 113.443C254.71 114.336 254.37 115.08 253.982 115.874C253.642 116.47 253.545 117.214 253.302 117.859C252.866 119.15 252.429 120.44 251.992 121.681C251.701 122.574 251.507 123.567 251.07 124.41C250.584 125.403 250.487 126.594 250.002 127.537C249.565 128.331 249.42 129.075 249.177 129.869C248.886 130.763 248.643 131.706 248.352 132.599C247.964 133.84 247.43 135.08 247.284 136.371C247.041 138.654 246.119 140.887 246.75 143.319C246.993 144.212 246.653 145.254 246.847 146.147C247.09 147.09 246.653 147.835 246.556 148.678C246.556 149.075 246.216 149.423 246.022 149.77C245.779 150.217 245.585 150.713 245.343 151.16C245.343 151.16 245.391 151.259 245.44 151.259L245.488 151.557ZM190.11 117.909C189.722 117.909 189.48 117.81 189.285 117.909C188.8 118.108 188.412 118.356 187.926 118.604C187.538 118.753 187.053 118.802 186.713 119.051C184.869 120.341 182.685 121.036 180.937 122.475C179.627 123.567 178.22 124.51 176.861 125.552C176.278 125.998 175.793 126.495 175.21 126.941C175.016 127.09 174.677 127.14 174.531 127.289C173.609 128.182 172.687 129.175 171.764 130.068C171.328 130.515 170.794 130.862 170.406 131.408C169.92 132.053 168.949 132.351 168.804 133.393C168.804 133.542 168.61 133.641 168.513 133.74C168.124 134.237 167.348 134.485 167.493 135.328C169.483 135.477 171.085 134.435 172.687 133.443C173.754 132.748 174.774 131.954 175.793 131.209C176.278 130.862 176.764 130.614 177.249 130.266C177.928 129.82 178.608 129.323 179.287 128.827C179.918 128.381 180.501 127.984 181.083 127.487C182.199 126.594 183.364 125.651 184.383 124.658C185.451 123.666 186.373 122.624 187.393 121.582C187.732 121.234 188.121 120.936 188.412 120.539C188.654 120.242 188.849 119.894 189.043 119.547C189.382 119.001 189.674 118.505 190.11 117.81V117.909Z" fill="#A7E92F"></path> <path d="M124.008 97.2137C124.008 97.2137 123.911 96.8166 124.008 96.6678C124.299 96.1715 124.687 95.6752 125.027 95.1789C125.124 94.9804 125.027 94.6826 125.124 94.4841C125.27 94.0375 125.367 93.4916 125.706 93.1938C126.386 92.4494 126.095 91.0598 127.357 90.6132C126.726 89.6702 127.793 89.2732 127.939 88.5784C128.085 88.0821 128.279 87.4866 128.667 87.1392C129.104 86.6429 129.104 86.097 129.346 85.6007C129.638 85.0052 130.22 84.5089 130.608 83.9134C130.851 83.566 130.9 83.1193 131.094 82.6727C131.433 82.6231 131.919 82.5238 132.453 82.4246C132.113 82.226 131.579 82.0772 131.53 81.829C131.482 81.432 131.725 80.9853 131.87 80.4891C132.064 80.6379 132.21 80.7868 132.258 80.7868C132.356 80.3402 132.453 79.8439 132.55 79.3972C132.647 79.0002 132.792 78.5536 132.938 78.0573C132.938 78.0573 133.132 78.0077 133.278 77.958C132.987 76.5188 134.443 76.1218 134.782 75.03C134.394 74.7818 134.394 74.4841 134.685 73.9878C135.171 73.2434 135.559 72.499 135.899 71.7049C136.093 71.2086 136.19 70.6627 136.335 70.1664C136.384 69.9679 136.53 69.8191 136.627 69.6702C136.772 69.3228 136.869 69.025 137.063 68.6776C137.452 67.8836 137.888 67.0895 138.277 66.2955C138.277 66.1962 138.471 66.1962 138.471 66.097C138.762 65.4022 139.005 64.7074 139.296 64.0126C139.442 63.7148 139.636 63.4667 139.878 63.1193C140.073 62.5734 140.315 61.9778 140.558 61.3823C141.189 59.9927 141.771 58.5535 142.451 57.2136C142.839 56.4691 143.421 55.8736 143.907 55.2284C144.004 55.1292 144.149 54.881 144.149 54.881C143.616 54.2359 144.004 53.8389 144.538 53.4418C144.635 53.3922 144.586 53.1937 144.635 53.0944C144.829 52.4989 144.926 51.8041 145.266 51.2582C145.945 50.1168 146.139 48.7272 146.77 47.5857C147.304 46.6428 147.79 45.6999 148.226 44.7073C148.566 43.9629 148.76 43.1192 149.1 42.3252C149.488 41.4319 149.925 40.5386 150.313 39.6453C150.653 38.752 150.944 37.8587 151.284 36.9654C151.43 36.5683 151.624 36.221 151.818 35.8736C152.206 35.0795 152.594 34.3351 152.886 33.541C153.177 32.7966 153.371 32.0026 153.614 31.2582C153.856 30.5137 154.05 29.7197 154.293 28.9753C154.293 28.876 154.293 28.7271 154.342 28.6279C154.342 28.5286 154.439 28.3797 154.439 28.3797C155.07 28.479 154.681 28.0323 154.681 27.8338C154.778 27.4368 154.778 27.0398 154.876 26.6924C154.973 26.2954 155.118 25.8983 155.215 25.5013C155.458 24.8065 155.798 24.1614 155.846 23.4666C155.943 22.5733 156.768 22.3748 157.108 21.7792C157.254 21.4815 157.642 21.3326 157.933 21.1837C158.079 21.0844 158.419 21.1837 158.564 21.2829C158.855 21.5311 159.049 21.9281 159.341 22.2259C159.535 21.9281 159.632 21.68 159.826 21.2829C159.923 21.5311 159.972 21.7296 160.069 21.8289C160.214 21.9777 160.506 22.2259 160.603 22.1762C161.039 21.9281 161.234 22.1762 161.428 22.5236C161.962 23.5162 162.69 24.5088 162.738 25.6998C162.738 26.6924 162.592 27.6849 162.398 28.6279C162.059 30.216 161.622 31.7544 161.234 33.3425C161.234 33.4418 161.185 33.541 161.088 33.5907C160.554 33.9877 160.797 34.2358 161.234 34.3847C161.039 34.6329 160.797 34.8314 160.7 35.0795C160.651 35.2284 160.845 35.4765 160.894 35.5758C161.67 35.1291 162.398 34.7321 163.078 34.2855C163.515 33.9877 164.049 33.6899 163.903 32.9455C163.903 32.8463 164.194 32.6477 164.388 32.5485C164.582 32.4492 164.874 32.5485 165.019 32.3996C165.408 31.9529 165.796 31.8041 166.378 31.9529C167.058 32.1515 168.028 31.3078 167.98 30.8115C168.805 30.5137 169.581 30.1663 170.358 29.8686C170.504 30.1167 170.698 30.4145 170.892 30.7123C171.135 30.4641 171.426 30.216 171.814 29.8189C171.474 29.7693 171.135 29.7197 170.795 29.6204C173.173 28.6775 175.551 28.0323 178.221 27.9331C178.026 28.1812 177.832 28.3797 177.59 28.6775C177.881 29.1738 178.512 28.9753 179.094 28.3797C179.385 28.2805 179.725 28.1316 180.016 28.0323C180.162 27.9827 180.356 27.8835 180.55 27.9331C180.793 27.9827 181.036 28.1316 181.375 28.2805C181.181 28.2805 181.036 28.2805 180.89 28.3301C180.987 28.6775 181.036 28.9256 181.424 28.479C181.521 28.3797 181.764 28.2805 181.861 28.3301C182.006 28.4294 182.103 28.6279 182.249 28.876C182.686 28.6279 183.268 28.6279 183.802 29.0745C184.579 29.7693 185.501 30.4145 186.083 31.2582C186.617 32.0026 186.86 33.0448 187.297 33.8884C188.073 35.3276 187.782 36.9654 188.025 38.4542C188.122 39.149 187.927 39.943 187.733 40.6875C187.297 42.077 186.908 43.5163 186.277 44.8562C185.792 45.8488 184.87 46.5932 184.433 47.5857C183.899 48.8264 182.88 49.6205 182.055 50.613C180.696 52.2508 179.24 53.7892 177.784 55.3277C176.473 56.6677 175.163 58.0076 173.755 59.1987C172.542 60.2409 171.232 61.1838 169.97 62.1764C168.853 63.0697 167.737 63.963 166.621 64.9059C166.475 65.0051 166.33 65.154 166.136 65.2533C164.485 66.1466 162.787 66.9903 161.136 67.9828C160.02 68.6776 158.855 69.1243 157.691 69.5213C157.254 69.6702 156.817 69.9679 156.332 70.1168C155.215 70.4642 154.002 70.5138 152.934 70.8116C151.769 71.1094 150.702 70.6627 149.634 70.9109C149.585 70.9109 149.488 70.9109 149.44 70.9109C148.566 70.2657 147.304 70.2657 146.528 69.3724C145.994 68.7272 145.217 68.9258 144.877 69.6702C144.538 70.4146 144.246 71.2086 143.955 71.9531C143.616 72.7471 143.324 73.5411 142.936 74.2856C142.548 75.0796 142.16 75.8737 141.771 76.6181C141.286 77.561 141.043 78.6032 140.073 79.1987C140.267 80.1417 138.908 80.3402 139.102 81.2831C139.102 81.5312 139.102 81.7794 138.956 81.9779C138.811 82.3749 138.714 82.8216 138.519 83.169C138.228 83.8141 137.986 84.6082 137.5 85.1045C136.821 85.7992 137.063 86.8414 136.287 87.437C135.51 88.0325 135.219 88.9754 134.928 89.9184C134.734 90.6628 134.443 91.4072 134.151 92.0524C133.715 92.9457 133.181 93.7397 132.744 94.5834C132.55 94.9308 132.404 95.2782 132.21 95.6256C132.21 95.7248 132.356 95.9233 132.307 96.0722C132.113 96.4693 131.822 96.8167 131.628 97.2633C131.433 97.71 131.336 98.2559 131.191 98.7025C130.997 99.1492 130.754 99.5958 130.56 100.042C130.463 100.241 130.463 100.439 130.366 100.588C130.026 101.184 129.589 101.73 129.395 102.325C129.152 103.368 128.182 104.112 128.23 105.353C128.23 105.799 127.939 106.296 127.648 106.643C127.259 107.139 127.017 107.636 126.92 108.231C126.92 108.281 126.677 108.33 126.337 108.479C126.58 108.578 126.677 108.678 126.774 108.727C126.24 109.869 125.706 110.961 125.221 112.102C124.978 112.648 124.93 113.293 124.687 113.839C124.59 114.137 124.153 114.236 124.008 114.534C123.425 116.023 122.891 117.561 122.309 119.05C121.921 119.993 121.484 120.936 121.096 121.879C120.901 122.375 120.804 122.871 120.659 123.368C120.319 124.311 119.882 125.204 119.542 126.196C119.106 127.536 118.766 128.876 118.281 130.167C117.844 131.358 117.31 132.549 116.825 133.74C116.679 134.137 116.533 134.534 116.388 134.881C116.048 135.725 115.757 136.569 115.369 137.363C115.223 137.66 114.786 137.859 114.495 138.107C114.252 138.256 114.01 138.405 113.912 138.504C113.233 138.504 112.651 138.554 112.117 138.603C111.971 138.603 111.728 138.603 111.728 138.554C111.486 137.611 110.903 137.66 110.272 138.057C110.175 138.057 110.078 138.057 109.981 138.057C110.224 137.263 108.574 137.214 109.399 136.271C108.962 136.072 108.768 135.08 108.962 134.435C109.253 133.343 109.447 132.251 109.739 131.209C109.933 130.514 110.224 129.869 110.515 129.224C111 128.132 111.486 127.09 111.971 125.998C112.408 124.956 112.893 123.913 113.233 122.822C113.767 120.936 114.786 119.199 115.417 117.313C115.563 116.866 116.194 116.569 116.582 116.221C116.533 116.221 116.339 116.072 116.194 115.973C116.339 115.775 116.485 115.576 116.63 115.377C116.922 114.832 117.213 114.236 117.504 113.69C117.747 113.243 117.941 112.846 118.086 112.499C118.086 111.904 117.989 111.258 118.184 110.712C118.329 110.167 118.814 109.77 119.154 109.224C119.154 109.124 118.96 108.876 119.009 108.777C119.348 108.033 119.737 107.288 120.076 106.494C120.222 106.147 120.319 105.75 120.416 105.353C120.61 104.707 120.756 104.112 121.387 103.715C121.532 103.616 121.387 103.219 121.484 102.971C121.872 101.978 122.357 100.985 122.746 99.9928C122.843 99.6951 122.891 99.3973 123.037 99.0995C123.183 98.7025 123.328 98.3055 123.571 97.7596C123.328 97.3625 123.862 97.2633 124.202 97.0648L124.008 97.2137ZM180.405 34.7321C179.58 34.7321 178.803 34.6825 178.075 34.8314C176.765 35.1291 175.503 35.5758 174.241 36.0721C172.299 36.7669 170.407 37.5113 168.514 38.3053C167.446 38.752 166.475 39.3475 165.505 39.8438C164.291 40.4393 163.029 40.9356 161.913 41.68C160.506 42.6726 159.292 43.9133 157.982 45.0051C157.545 45.4021 157.108 45.7991 156.671 46.1465C155.555 46.9902 154.681 47.9828 154.148 49.3227C153.565 50.7123 153.031 52.1019 152.449 53.4915C151.915 54.6329 151.333 55.7743 150.75 56.9158C149.974 58.5535 149.246 60.1912 148.518 61.829C148.372 62.1764 148.275 62.5734 148.226 62.9208C148.226 63.02 148.323 63.2185 148.42 63.3178C149.343 63.9133 150.41 63.8637 151.43 63.7148C152.109 63.6156 152.789 63.4171 153.419 63.2185C153.759 63.1193 154.099 63.02 154.39 62.8215C154.876 62.5734 155.264 62.1267 155.749 61.9778C156.477 61.7793 156.768 61.6801 157.108 61.2334C157.205 61.1342 157.399 61.0349 157.496 61.0349C157.739 61.1342 157.739 61.0349 157.885 60.9357C158.273 60.5386 158.807 60.2409 159.292 59.9431C160.263 59.3972 161.282 58.9505 162.204 58.355C163.466 57.5113 164.728 56.618 165.941 55.6751C166.621 55.1788 167.203 54.5337 167.834 53.9381C168.659 53.1937 169.436 52.4493 170.261 51.7049C171.377 50.7123 172.542 49.7694 173.561 48.6776C174.92 47.2383 176.182 45.6503 177.493 44.1118C177.978 43.5163 178.463 42.9207 178.852 42.2259C179.24 41.5808 179.385 40.7867 179.774 40.1416C180.453 39.0994 180.599 37.9579 180.55 36.7172C180.55 36.1217 180.502 35.5262 180.453 34.7321H180.405Z" fill="#A7E92F"></path> <path d="M48.2449 129.174C48.1479 129.471 48.0508 129.769 48.0023 130.067C47.8566 131.456 47.0801 132.598 46.5948 133.839C46.4006 134.335 46.3035 134.881 46.0123 135.377C45.2843 136.667 44.9931 138.107 44.3622 139.447C43.6342 140.935 43.1973 142.573 42.6635 144.161C42.3723 145.005 42.2267 145.849 41.984 146.643C41.5957 147.933 41.1104 149.174 40.6736 150.464C40.3823 151.456 40.1397 152.449 39.8485 153.442C39.6058 154.285 39.2661 155.079 39.0234 155.923C38.7322 157.064 38.538 158.256 38.2954 159.447C38.2468 159.695 38.1498 160.042 37.9556 160.141C37.1305 160.489 37.9556 160.489 37.9556 160.489C37.9071 161.978 37.2276 163.169 37.2276 164.509C37.2276 165.154 37.0335 165.849 36.8879 166.494C36.5481 167.784 36.1598 169.074 35.8686 170.365C35.6745 171.357 35.6745 172.399 35.4318 173.342C35.2862 173.938 34.898 174.484 34.6067 175.079C34.6067 175.129 34.5097 175.179 34.4611 175.228C33.8787 176.767 32.5683 176.072 31.5491 176.221C31.1608 176.27 30.724 175.824 30.2872 175.625C30.2872 175.377 30.2872 175.129 30.2872 174.782C29.996 174.93 29.8018 175.03 29.6562 175.079C29.3165 174.881 28.9768 174.732 28.6855 174.583C28.5399 174.186 28.3943 173.739 28.2487 173.342C28.2487 173.342 28.1517 173.392 28.1031 173.442C28.0061 173.243 27.7634 173.045 27.7634 172.846C27.909 172.002 28.1517 171.159 28.2973 170.265C28.4914 169.074 28.6855 167.883 28.8797 166.692C28.8797 166.444 29.1224 166.246 29.1224 165.948C28.9768 166.047 28.7826 166.097 28.6855 166.246C27.7634 167.437 26.7927 168.578 25.9191 169.819C25.1425 170.861 24.5601 172.052 23.6865 172.995C22.3761 174.335 21.5025 176.171 19.7552 177.064C19.4155 177.213 19.0757 177.462 18.6875 177.462C17.6197 177.511 16.6005 178.256 15.4842 177.908C15.0474 177.759 14.6106 177.412 14.1738 177.213C13.834 177.064 13.4457 177.015 13.0575 176.866C12.6692 176.717 12.2324 176.568 11.8441 176.419C11.2132 176.171 10.8249 175.725 11.0676 175.228C10.7278 174.533 10.3881 174.087 10.291 173.541C9.99979 172.151 9.75712 170.762 9.61152 169.323C9.51445 168.628 9.80566 167.883 9.75712 167.139C9.75712 166.543 9.90273 165.948 9.56298 165.303C9.36885 164.955 9.41738 164.459 9.32031 163.863C9.61152 164.112 9.70859 164.211 9.80566 164.26C9.95126 163.665 10.0969 163.119 10.2425 162.573C10.0483 162.573 9.85419 162.854 9.66005 163.417C9.66005 163.169 9.51445 162.871 9.56298 162.623C9.70859 161.928 9.70859 161.084 10.0969 160.489C10.6793 159.645 10.5337 158.702 10.7763 157.809C10.9705 157.114 11.3102 156.519 11.5529 155.824C11.747 155.228 11.8441 154.533 12.0382 153.938C12.7663 152.052 13.5428 150.166 14.3679 148.33C15.0959 146.742 15.8239 145.203 16.649 143.715C17.5712 142.077 18.5904 140.538 19.5611 138.901C20.095 138.057 20.5318 137.164 21.1142 136.32C21.7937 135.377 22.5702 134.583 23.2012 133.64C23.8321 132.697 24.7543 132.151 25.7249 131.605C26.1618 131.357 26.55 131.059 26.9868 130.911C27.278 130.811 27.6178 130.96 27.9575 131.059C28.5399 131.258 29.4136 131.01 29.8018 130.414C29.8989 130.315 29.9474 130.116 30.0445 130.067C30.724 129.819 31.1608 129.223 31.6947 128.777C32.4712 128.131 33.0536 128.231 33.7331 128.975C33.9758 129.223 34.3155 129.571 34.6067 129.571C35.5774 129.571 36.1113 130.365 36.4511 130.96C36.8879 131.655 37.6159 132.102 37.9556 132.846C38.1012 133.193 38.441 133.094 38.6351 132.747C38.8292 132.3 38.9748 131.853 39.169 131.407C39.6058 130.315 40.0426 129.273 40.4794 128.181C41.2074 126.394 41.984 124.608 42.712 122.772C43.6342 120.439 44.5563 118.107 45.527 115.774C45.9153 114.881 46.4492 114.037 46.7404 113.094C47.3228 111.109 48.1964 109.273 49.0215 107.387C49.8466 105.451 50.7202 103.466 51.5453 101.531C52.0306 100.439 52.4189 99.2976 52.9042 98.1561C53.0984 97.6598 53.4381 97.2132 53.6808 96.7169C54.0205 95.8732 54.3117 95.0295 54.6515 94.1859C54.7485 93.9874 54.8941 93.8385 55.0397 93.64C55.1368 93.4911 55.2824 93.3918 55.3309 93.2926C55.9134 91.6052 56.8355 90.1164 57.8547 88.6772C58.2915 88.0816 58.5828 87.3869 59.0196 86.7913C59.4078 86.1958 60.3785 85.6002 61.5434 85.6002C61.5434 85.7988 61.5434 85.9973 61.4463 86.2454C61.7375 86.2454 62.0287 86.2454 62.3684 86.2454C62.1258 86.0469 61.8831 85.7988 61.689 85.6002C61.689 85.5506 61.786 85.501 61.8346 85.4514C61.9316 85.5506 62.0287 85.6002 62.2228 85.7988C62.1258 85.501 62.0772 85.3521 61.9316 84.9551C62.8538 85.6995 63.6303 86.295 64.4554 86.9898C64.2613 87.1883 64.1157 87.2876 64.0186 87.3869C64.5525 88.1809 64.6981 89.0742 64.601 90.0668C64.5525 90.8112 64.0671 91.2082 63.7759 91.8037C63.145 92.9452 62.6596 94.1362 62.0772 95.2777C61.689 96.0221 61.689 96.8658 61.1551 97.5606C60.8153 98.0072 60.7668 98.7516 60.5727 99.3472C60.4756 99.5953 60.2329 99.7442 60.0388 99.9923C59.7961 100.786 59.5534 101.729 59.2622 102.672H59.3593C59.1166 103.069 58.7769 103.466 58.6313 103.863C58.3886 104.409 58.3401 105.054 58.1459 105.65C57.9518 106.196 57.7577 106.742 57.4665 107.238C56.8355 108.379 56.3987 109.62 55.9619 110.861C55.8163 111.208 55.5736 111.456 55.3795 111.804C55.2824 111.953 55.2824 112.151 55.2339 112.3C55.1853 112.647 55.331 113.094 54.7 113.094C54.6029 113.094 54.3603 113.64 54.4088 113.938C54.5059 114.583 54.6515 115.129 54.0205 115.278C53.7293 116.171 53.4866 116.915 53.1954 117.66C52.613 119.099 52.0306 120.489 51.4482 121.878C50.9143 123.119 50.3319 124.36 49.7495 125.551C49.701 125.7 49.6524 125.799 49.6039 125.948C49.4097 127.139 48.7303 128.082 48.1479 128.975L48.2449 129.174ZM32.2286 138.206C31.452 138.702 30.724 139.149 29.996 139.645C29.6077 139.943 29.3165 140.439 28.8797 140.687C28.3943 140.935 28.0546 141.332 27.6663 141.68C26.5986 142.672 25.9676 144.26 24.366 144.707C24.2689 144.707 24.1718 144.856 24.1233 144.955C23.5894 145.799 23.0556 146.643 22.5217 147.486C21.7937 148.578 21.9393 150.166 20.6288 150.911C20.6288 150.911 20.6288 151.01 20.6288 151.059C20.9686 151.655 20.4347 152.002 20.2406 152.449C19.8037 153.392 19.3184 154.335 18.9301 155.327C18.5904 156.27 18.3963 157.313 18.1536 158.256C18.0565 158.653 17.9109 159.05 17.7653 159.447C17.6197 159.943 17.5226 160.439 17.377 160.935C17.28 161.382 17.1344 161.829 17.0373 162.275C16.8431 163.02 16.6005 163.764 16.5519 164.509C16.4063 165.749 16.3578 167.04 16.3093 168.33C16.3093 168.628 16.4549 168.975 16.5034 169.273C16.7461 169.174 16.9888 169.124 17.1829 168.926C17.9594 168.181 18.736 167.437 19.3669 166.643C20.3376 165.501 21.2112 164.26 22.0849 163.02C23.2012 161.332 24.2204 159.645 25.2881 157.908C25.822 157.015 26.3074 156.122 26.7927 155.228C26.9868 154.93 27.1324 154.583 27.278 154.285C27.6178 153.491 28.0546 152.747 28.3458 151.903C28.6855 150.811 29.5592 149.968 29.7048 148.777C29.7048 148.429 29.8504 148.082 29.9474 147.734C30.1416 147.089 30.3357 146.444 30.5784 145.799C30.7725 145.253 30.9181 144.558 31.3549 144.211C31.7432 143.863 31.6947 143.466 31.7432 143.069C31.8403 142.573 31.8888 142.126 31.9859 141.63C31.9859 141.531 32.1315 141.432 32.1315 141.382C31.9859 140.389 32.5198 139.447 32.3256 138.255L32.2286 138.206Z" fill="#A7E92F"></path> <path d="M19.9477 81.5807C20.5301 81.2829 21.3551 81.1837 21.2095 80.2407C21.1125 80.1415 21.0639 80.0919 20.9669 79.9926C20.9183 80.1911 20.8213 80.3896 20.7727 80.6378C20.6271 80.0919 20.5301 79.5956 20.433 79.1489C20.4815 79.1489 20.5786 79.1489 20.6271 79.0993C20.8213 79.3971 21.0154 79.6452 21.161 79.8934C21.5008 79.6452 21.8405 79.3971 22.2288 79.0993C21.8405 78.8015 21.4522 78.5038 21.1125 78.206C21.2095 77.809 21.3066 77.3127 21.4037 76.866C21.4037 76.866 21.5008 76.866 21.5493 76.8164C21.5978 77.1142 21.6464 77.412 21.7434 77.8586C21.9376 77.809 22.3258 77.7593 22.617 77.6105C22.7626 77.5608 22.7626 77.2134 22.8597 77.0149C22.8597 76.8661 22.8597 76.6179 22.8597 76.6179C23.2965 76.5683 23.248 76.2209 23.1024 76.0224C23.0539 75.9231 22.7141 76.0224 22.4714 76.0224C22.4229 76.0224 22.3744 76.0224 22.1317 76.1713C22.1317 75.8239 22.1317 75.3772 22.2288 75.3772C22.5685 75.3772 22.9568 75.3772 23.4907 75.4765C23.248 75.278 23.1024 75.1291 22.9568 74.9802C22.8112 74.8313 22.617 74.5832 22.617 74.5832C23.0053 74.1365 22.7626 73.1936 23.6848 73.144C23.6848 73.144 23.6848 72.9454 23.7819 72.8462C24.1701 71.8536 24.607 70.8611 24.9952 69.8685C25.1894 69.4219 25.2864 68.9752 25.4806 68.5286C25.6262 68.1812 25.4806 67.7841 26.0145 67.5856C26.3057 67.4864 26.4513 66.7916 26.4998 66.3449C26.5969 65.4516 27.2763 64.8065 27.2763 63.8139C27.2763 63.2184 27.9558 62.6228 28.2956 62.0273C28.3926 61.8784 28.3926 61.6799 28.3441 61.4814C28.6353 60.4888 29.6545 60.5881 30.2855 59.9429C30.0428 59.9429 29.8001 59.9925 29.606 60.0422C29.606 60.0918 29.606 60.1911 29.606 60.2407C29.4119 60.1414 29.2177 60.0422 28.9751 59.9429C29.606 59.0496 30.3826 58.2059 30.8194 57.1638C31.2076 56.2705 31.4018 55.2283 31.9357 54.335C31.4018 53.9379 31.5474 53.5409 31.9842 53.0943C32.0813 52.995 32.1298 52.8958 32.1783 52.7469C32.421 52.2506 32.6151 51.7543 32.8578 51.258C33.0034 50.9603 33.2461 50.7618 33.0519 50.4144C33.0519 50.3647 33.1005 50.2158 33.149 50.1166C33.2946 49.7196 33.4402 49.3722 33.5858 48.9752C33.5858 48.8759 33.5858 48.727 33.5858 48.6774C34.3138 48.0818 34.2653 47.0893 34.7992 46.3945C35.0419 46.0471 34.9933 45.5012 35.1389 45.0049C35.236 44.7568 35.4301 44.5086 35.5757 44.2605C35.7699 43.9627 36.1096 43.5657 36.0611 43.3176C35.8669 42.6724 36.1581 42.1265 36.3038 41.5806C36.3523 41.3821 36.595 41.2332 36.692 41.0347C36.7891 40.8858 36.8376 40.6873 36.8862 40.4888C36.9832 40.2406 37.0803 40.0421 37.1774 39.794C37.1774 39.7444 37.2259 39.6451 37.2259 39.5955C37.3715 37.66 38.2937 35.9726 38.8761 34.1364C38.9731 33.789 39.1673 33.5905 38.8275 33.3424C39.4585 32.4987 40.4777 32.2009 41.4484 32.3994C41.7881 32.4491 42.225 32.2505 42.5647 32.1513C42.8074 32.052 43.05 31.9528 43.3412 31.8535C43.3412 31.9031 43.3898 31.9528 43.4383 32.052C43.3412 32.1017 43.1956 32.1513 43.05 32.2505C43.0986 32.3002 43.1471 32.3498 43.1956 32.3498C43.681 32.2505 43.8751 32.2505 44.0693 32.8957C44.2149 33.4416 44.5061 34.1364 45.2826 34.3845C45.4768 34.3845 45.5738 34.7816 45.7194 35.0297C45.7194 35.0793 45.5738 35.2282 45.4768 35.3771C45.5253 35.3771 45.5738 35.3771 45.6709 35.3771C45.6709 35.6252 45.6709 35.8734 45.6709 36.0719C45.4768 36.9156 45.1856 37.7592 45.0399 38.6029C45.0399 38.8014 44.2149 38.5533 44.7973 38.9999C44.0693 39.4962 44.5546 40.5384 43.9237 41.1339C43.681 41.3325 43.7781 41.8784 43.7295 42.2754C43.8266 42.325 43.8751 42.3746 43.9722 42.4243C44.7002 41.928 45.4768 41.4317 46.2048 40.8362C47.6608 39.6947 49.1654 38.6029 50.9126 37.9578C51.495 36.8163 53.0481 37.1637 53.7276 36.0719C53.8732 35.8734 54.31 35.8734 54.6498 35.9726C54.3586 36.1215 54.0674 36.2704 53.7761 36.4193C53.8247 36.5185 53.9217 36.5682 53.9703 36.6674C54.3586 36.32 54.6983 35.9726 55.1351 35.5756C55.5234 35.8238 56.0573 35.923 56.4941 35.3275C56.2999 35.2778 56.1058 35.2282 55.9117 35.1786V34.9801C56.397 34.9801 56.8824 34.8808 57.3192 34.9304C58.1442 34.9304 58.9693 35.0297 59.6003 35.0297C59.94 34.7816 60.1342 34.5831 60.3768 34.4342C60.6195 34.2853 60.9592 34.3349 61.2019 34.186C61.7843 33.8386 62.2697 33.6898 62.6094 34.4838C62.8035 34.2357 62.9492 33.9379 63.1918 33.8386C63.5801 33.6897 63.7742 33.9379 63.8713 34.3349C63.8713 34.4342 64.1625 34.5334 64.211 34.5334C65.3273 34.0868 66.3466 34.8808 67.4629 34.7319C67.6085 34.7319 67.8026 34.6823 68.0938 34.5831C68.2879 34.8312 68.5791 35.2282 68.9189 35.526C69.016 35.6252 69.3557 35.4267 69.5013 35.3771C70.0352 36.1215 70.8603 36.9156 71.2 37.8585C71.3941 38.3548 71.6853 38.9503 71.5883 39.6451C71.4427 41.1339 71.0059 42.5235 70.8603 44.0124C70.8117 44.6079 70.5205 45.2531 70.1322 45.6997C69.4528 46.4938 69.2101 47.4367 68.7247 48.2804C68.4821 48.6774 68.385 49.0248 68.5306 49.4714C68.5791 49.6699 68.2879 49.9181 68.1909 50.1662C67.8511 50.861 67.5114 51.5558 67.1716 52.3002C67.2687 52.3002 67.3658 52.3002 67.6085 52.3002C67.2202 52.995 66.4922 53.6402 66.5892 54.2357C66.6863 55.0794 66.0068 55.4268 65.8127 56.0223C65.6671 56.5186 65.2303 56.9156 64.8905 57.3623C64.8905 57.4615 64.8905 57.7097 64.7935 57.8586C63.8228 59.0992 62.8521 60.3399 61.8329 61.5806C61.6387 61.7792 61.3475 61.928 61.2019 61.9777C61.1048 62.2754 61.1534 62.5732 61.0078 62.6725C60.668 62.9702 60.2798 63.2184 59.94 63.4665C59.8915 63.4665 59.7944 63.5658 59.7944 63.6154C59.3091 65.005 58.1928 65.799 57.125 66.6427C56.5911 67.0893 56.2514 67.7345 55.7175 68.1812C54.6012 69.1737 53.9217 70.5137 52.6113 71.2581C52.126 71.5559 51.7862 72.201 51.3494 72.598C51.1068 72.7966 50.8155 72.9454 50.5729 73.0943C50.5243 73.0943 50.3787 73.144 50.3787 73.1936C49.7478 74.6328 48.2918 75.278 47.3211 76.3698C46.8843 76.866 46.3504 77.2134 45.8165 77.6601C45.8165 77.6601 45.768 77.7593 45.7194 77.7593C43.9722 78.7519 42.8074 80.4393 41.0601 81.4318C39.8468 82.1266 38.8275 83.1688 37.5656 83.814C36.0611 84.5584 34.508 85.2035 32.7122 84.7569C31.9842 84.5584 31.3047 84.5584 30.6738 84.0621C30.2855 83.7643 29.7031 83.8636 29.7031 83.0199C29.7031 82.5236 29.0236 82.077 28.6353 81.6303C28.878 81.6303 29.1207 81.6303 29.606 81.68C29.3148 81.3326 29.2177 81.1837 29.0721 81.0348C28.7809 80.6378 28.3441 80.2407 28.3441 79.8437C28.3441 79.3971 28.8294 78.9504 29.1207 78.4541C29.0236 78.4541 28.878 78.3053 28.6838 78.206C28.6838 78.206 28.6838 78.1564 28.6838 78.1067C28.9751 78.1067 29.2663 78.206 29.5089 78.2556C29.606 78.2556 29.7516 78.2556 29.8487 78.2556C30.0913 78.206 30.3826 78.1067 30.6252 78.0571C30.6252 78.1564 30.6738 78.206 30.7223 78.3053C30.6252 78.4541 30.5282 78.603 30.3826 78.8512C31.7415 78.9504 33.0034 79.0001 34.2168 78.3549C34.3138 78.3053 34.3624 78.1564 34.4109 78.0571C34.508 77.9082 34.5565 77.6601 34.7021 77.5608C35.8184 76.7668 36.8862 75.9727 38.0025 75.2283C38.2451 75.0794 38.5849 75.0794 38.779 75.0794C39.0702 73.9876 40.3806 73.938 40.7204 72.8462C40.7689 73.0943 40.8175 73.2928 40.9145 73.4417C40.9145 73.4417 41.0116 73.3921 41.0601 73.3425C41.1087 72.4988 41.8367 72.1514 42.322 71.6551C43.2927 70.6129 44.3119 69.6204 45.4768 68.7767C46.496 68.0323 47.4181 67.139 48.3888 66.3449C48.3888 66.3449 48.2432 66.3449 48.0976 66.3946C48.1461 66.1464 48.1947 65.9479 48.2432 65.6998C48.9227 65.799 49.2624 65.5509 49.408 64.8561C49.4566 64.6576 49.6022 64.4591 49.7478 64.3102C50.4273 63.665 51.1553 63.0695 51.8348 62.4243C52.5143 61.7295 53.1937 60.9851 53.8732 60.2407C54.4071 59.6452 54.9895 59.0496 55.4748 58.4045C55.9602 57.8089 56.5911 57.4119 56.9794 56.7667C57.3677 56.1216 57.9986 55.5757 58.5325 55.0298C58.6781 54.8809 58.9208 54.8312 59.0664 54.732C59.2605 54.3846 59.3576 53.8883 59.6488 53.6402C60.4739 52.995 60.7651 51.9528 61.4931 51.258C62.3182 50.4144 63.1433 49.5211 63.8228 48.4789C64.0169 48.1315 64.2111 47.7841 64.4052 47.4367C64.7449 46.8411 65.1332 46.2952 65.4729 45.6997C65.4729 45.6005 65.4729 45.5012 65.4729 45.4019C65.4729 44.7568 65.3273 44.1116 66.0554 43.7146C66.1039 43.7146 66.1039 43.4665 66.0554 43.3672C65.7641 42.5731 66.298 42.0272 66.6378 41.4317C66.3466 41.1836 65.8127 40.9354 66.3466 40.5384C66.3466 40.0918 66.298 39.7444 66.298 39.4466C66.3951 38.1563 65.4729 37.4118 64.2596 37.7592C64.0169 37.8089 63.7742 37.8585 63.5316 37.8585C62.9977 37.8585 62.5609 38.1066 62.1241 38.5037C61.6387 38.9503 61.0078 39.397 60.4254 39.4466C59.6488 39.5458 59.212 40.0918 58.5325 40.3399C57.6104 40.6873 56.7853 41.1836 55.9117 41.6798C55.4263 41.9776 54.941 42.4243 54.4556 42.6228C53.4364 43.0198 52.7569 43.8635 51.8348 44.4094C51.3494 44.7072 50.7185 44.856 50.2331 45.2034C49.9419 45.4019 49.6992 45.6997 49.4566 45.9479C49.1168 46.2456 48.7771 46.4938 48.4374 46.7915C48.0491 47.0893 47.7093 47.4367 47.3211 47.7345C47.0299 47.933 46.7387 48.0819 46.3989 48.1811C45.4768 49.6203 44.3605 50.5136 43.5839 50.2159C43.4868 50.464 43.3412 50.6625 43.2927 50.7618C42.9044 51.0099 42.6132 51.2084 42.322 51.3573C41.7881 51.5558 41.2057 51.6054 40.7204 51.8536C39.5556 52.4491 38.2451 52.8958 37.9539 54.4342C37.9539 54.5335 37.7598 54.5831 37.6627 54.6327C37.5171 54.732 37.2744 54.8809 37.323 54.9801C37.5171 55.7742 37.0318 56.2705 36.6435 56.8164C36.4979 57.0149 36.6435 57.5608 36.5464 57.66C35.8184 58.1563 35.964 59 35.6728 59.6452C35.4301 60.2903 35.236 60.9355 34.7021 61.4318C34.6536 61.4318 34.605 61.5806 34.605 61.6303C34.7992 62.3251 34.3138 62.7717 34.1197 63.3673C33.8285 64.2606 33.4888 65.1042 33.1005 65.9479C32.7607 66.5931 32.1298 67.1886 32.0327 67.8834C31.9357 68.4293 31.1106 68.6278 31.4988 69.3722C31.5959 69.5707 31.1591 70.067 31.0135 70.4144C30.9164 70.6129 30.8679 70.8114 30.7708 71.01C30.6738 71.01 30.5282 71.01 30.3826 70.9107C30.4311 72.1018 29.8487 72.9951 29.2663 73.938C28.9265 74.4839 28.6353 75.0794 28.3926 75.675C28.3441 75.8239 28.4897 76.072 28.5868 76.3698C28.0044 76.6179 27.4219 76.9653 27.4705 77.6105C27.4705 78.1564 27.2278 78.5534 27.0822 78.9504C26.7425 79.7941 26.2571 80.5881 25.8688 81.3822C25.5776 81.9777 25.3835 82.6229 25.0923 83.2184C24.6555 84.0621 24.1701 84.9058 23.7819 85.7991C23.4421 86.5435 23.248 87.3375 22.9568 88.082C22.7141 88.6279 22.4229 89.1738 22.1317 89.7197C21.9376 90.0671 21.792 90.4145 21.5978 90.7619C21.2095 91.6055 21.0639 92.6477 20.2389 92.9951C20.1418 93.4914 20.1418 93.9381 19.9962 94.2854C19.5108 95.5758 18.6858 96.6676 18.3945 98.0572C18.2489 98.8512 17.6665 99.546 17.3268 100.29C16.9385 101.084 16.6958 101.928 16.259 102.623C15.5796 103.616 15.2398 104.707 14.803 105.799C14.6089 106.295 14.0265 106.742 13.9779 107.189C13.8808 108.231 13.0558 108.826 12.9102 109.769C12.9102 109.918 13.0558 110.067 12.9102 110.166C12.7646 110.712 12.716 111.308 12.3763 111.705C11.988 112.251 11.8424 112.797 11.6483 113.392C11.3571 114.137 10.9202 114.782 10.532 115.477C10.4349 115.625 10.2408 115.774 10.1437 115.824C10.2408 116.072 10.3864 116.32 10.4834 116.568C10.1437 116.668 9.60982 116.469 9.94956 117.065C9.36714 117.362 9.80395 118.256 9.0274 118.554C8.78473 118.653 8.78473 119.348 8.63913 119.794C8.44499 120.34 8.39646 120.985 8.00818 121.333C7.4743 121.879 7.37723 122.524 7.08603 123.119C6.79482 123.715 6.35801 124.211 5.9212 124.757C5.82413 124.856 5.58146 124.906 5.38732 124.906C4.61077 124.956 3.88275 125.005 3.05767 125.055C3.05767 124.906 3.05767 124.757 3.05767 124.658C2.815 124.558 2.57232 124.459 2.23258 124.31C1.7796 124.641 1.45603 124.707 1.2619 124.509C1.35896 123.963 1.45603 123.566 1.5531 123.119C1.16483 123.02 0.728016 122.871 0.242672 122.722C0.242672 122.623 0.0970689 122.375 0 121.978C0.728016 120.787 1.5531 119.447 2.32965 118.057C2.71793 117.362 3.05767 116.618 3.34888 115.874C3.44594 115.675 3.25181 115.377 3.34888 115.129C3.54301 114.683 3.73715 114.236 4.02836 113.888C4.41663 113.343 5.09611 112.995 4.80491 112.102C4.75637 111.903 5.09612 111.556 5.24172 111.258C5.33879 111.109 5.33879 110.911 5.24172 110.712C5.53292 110.117 5.7756 109.571 6.16387 108.826C6.16387 108.826 6.30948 108.826 6.45508 108.727C6.35801 107.189 7.81404 107.685 8.59059 106.99C8.29939 106.792 8.10525 106.643 7.81404 106.395C7.81404 105.352 8.39646 104.608 9.46421 104.211C9.60982 104.211 9.65835 103.913 9.75542 103.764C9.60982 103.665 9.46421 103.566 9.31861 103.566C9.22154 103.566 9.12447 103.665 8.93034 103.566C9.22154 103.169 9.46421 102.772 9.75542 102.375C9.80395 102.424 9.90102 102.474 9.94956 102.524C9.80395 102.673 9.65835 102.871 9.51275 103.02C9.99809 103.268 10.3864 102.97 10.629 102.127C10.4834 102.077 10.3864 101.978 10.2408 101.928C10.1437 101.928 9.99809 101.928 9.70689 101.829C10.0466 101.283 10.3378 100.886 10.629 100.439C10.629 100.489 10.7261 100.588 10.7746 100.638C11.0173 100.737 11.3571 100.936 11.5512 100.886C11.7453 100.886 11.988 100.489 11.988 100.241C11.988 99.8934 11.8424 99.546 11.7453 99.149C11.3085 99.0001 10.9688 99.149 10.9688 99.7942H11.4541C11.4541 99.7942 11.3571 100.042 11.3085 100.042C11.0658 100.142 10.8717 100.191 10.629 100.191C10.629 100.191 10.532 100.042 10.532 99.9927C10.8232 99.3475 11.1629 98.752 11.4056 98.2557C11.9395 98.3549 12.2792 98.4542 12.6675 98.5535C12.6675 98.2061 12.619 98.0075 12.5704 97.7594H13.0558C12.8131 97.4616 12.619 97.2135 12.4248 97.015C12.7646 96.9157 13.0558 96.9157 13.1528 96.7668C13.347 96.4691 13.1528 96.3202 12.8616 96.4691C12.6675 96.5683 12.5219 96.618 12.4733 96.6676C12.2307 97.0646 12.0365 97.412 11.8424 97.8587C11.5027 97.0646 11.8424 96.5187 12.619 96.0721C12.619 95.3773 12.4248 94.7321 12.5704 94.1366C12.6675 93.7892 13.1528 93.541 13.347 93.3425C13.5896 92.7966 13.8323 92.35 14.0265 91.9529C14.075 91.9529 14.1721 91.9529 14.2206 92.0026C14.1235 91.8537 14.0265 91.7048 14.0265 91.7048C14.1721 91.5063 14.3662 91.3574 14.3662 91.3078C14.2691 90.8611 14.2691 90.8611 14.803 90.9604C14.803 90.613 14.7059 90.2656 14.803 89.9678C14.803 89.6204 14.9001 89.2234 15.4825 89.4219C15.6281 89.4715 15.8708 89.2234 16.1134 89.1241C16.3561 89.2234 16.6473 89.3723 16.7444 89.4219C16.987 88.9753 17.0841 88.6775 17.3268 88.2805H16.259C16.4046 87.7842 16.4046 87.0398 16.7444 86.6924C17.3268 86.1465 16.987 85.2532 17.7151 84.7569C18.1033 84.4591 18.1519 83.7643 18.3945 83.2681C18.4916 83.0695 18.6372 82.9207 18.8799 82.8214C18.8314 83.1192 18.7828 83.3673 18.6858 83.7643C18.9284 83.5658 19.1226 83.4666 19.3652 83.3177V83.814C19.3652 83.814 19.5108 83.814 19.5594 83.814C19.6079 83.6154 19.6564 83.4169 19.7535 83.2184C19.8506 82.9703 19.9962 82.6725 20.1418 82.474C20.3845 82.1762 20.5301 81.9777 20.1903 81.68C20.0933 81.5807 20.0933 81.3822 20.0447 81.1837L19.9477 81.5807ZM17.3268 85.9976C17.618 86.2457 17.9092 86.6427 18.1033 86.5931C18.9284 86.3946 17.9092 85.7991 18.2975 85.4517C18.0063 85.6006 17.7636 85.7494 17.3268 85.948V85.9976ZM15.7252 92.0522C15.7252 92.0522 15.531 91.9033 15.4339 91.8041C15.1913 92.0026 14.9001 92.1514 14.7059 92.3996C14.6089 92.4988 14.6574 92.747 14.7059 92.8959C14.7059 92.9455 15.0457 93.0448 15.0942 92.9951C15.3369 92.6974 15.531 92.35 15.7737 92.0522H15.7252ZM17.7636 87.3872C17.7636 87.3872 18.1033 87.139 18.2975 86.9901C17.4724 86.5435 17.4724 87.536 16.89 87.5857C17.1812 87.8338 17.3268 87.9827 17.5695 88.1812C17.5695 87.9827 17.6665 87.7346 17.7151 87.4368L17.7636 87.3872ZM37.2259 76.9157C36.8862 76.9157 36.595 77.0149 36.3038 77.0646C36.2552 77.2631 36.2067 77.4616 36.1096 77.6601C36.595 77.6601 36.9671 77.412 37.2259 76.9157Z" fill="#A7E92F"></path> <path d="M126.673 124.907C126.43 125.056 126.285 125.056 126.187 125.155C125.654 125.85 125.071 126.495 124.634 127.239C124.295 127.835 124.149 128.48 123.858 129.125C123.858 129.224 123.761 129.423 123.712 129.473C122.644 129.87 122.596 130.912 122.256 131.755C122.256 131.805 122.208 131.904 122.111 132.053C122.014 131.855 121.916 131.706 121.965 131.607C122.305 130.217 122.693 128.877 123.081 127.487C123.178 127.19 123.615 126.991 123.567 126.594C123.518 126.098 123.712 125.8 123.955 125.403C124.149 125.105 124.295 124.758 124.101 124.262C123.955 123.865 124.392 123.319 124.537 122.822C124.731 122.227 124.829 121.631 125.071 121.085C125.557 119.845 126.042 118.554 126.673 117.363C127.158 116.42 127.838 115.626 128.372 114.733C128.76 114.137 129.1 113.542 129.488 112.946C129.828 112.45 130.216 111.954 130.653 111.507C130.944 111.209 131.332 111.061 131.672 110.812C132.303 110.316 132.594 110.415 132.74 111.259C132.74 111.358 132.788 111.458 132.837 111.755C132.982 111.557 133.031 111.458 133.128 111.358C133.274 111.16 133.468 111.011 133.613 110.862C133.759 111.011 133.953 111.16 134.002 111.309C134.099 112.003 134.584 111.855 134.875 111.954C135.36 112.649 135.894 113.343 136.38 114.038C136.477 114.137 136.525 114.286 136.525 114.435C136.428 115.726 136.477 117.066 136.234 118.356C135.894 120.242 135.409 122.128 134.972 124.013C134.827 124.708 134.535 125.453 134.535 126.147C134.535 127.487 133.807 128.728 133.759 130.018C133.759 131.209 133.128 132.103 132.885 133.195C132.594 134.683 132.157 136.172 131.769 137.661C131.381 139.1 130.992 140.49 130.604 141.88C130.313 142.922 130.022 144.014 129.73 145.105C129.73 145.254 129.731 145.502 129.828 145.502C129.973 145.502 130.216 145.502 130.264 145.403C130.507 144.758 131.187 144.51 131.381 143.765C131.478 143.319 131.915 142.922 132.206 142.525C133.225 141.036 134.244 139.497 135.312 138.009C136.186 136.768 137.205 135.676 138.078 134.435C138.612 133.641 139.001 132.748 139.486 131.904C139.632 131.656 139.826 131.408 140.068 131.309C140.505 131.11 140.651 130.763 140.845 130.415C141.039 129.969 141.573 129.671 141.67 129.224C141.864 128.43 142.592 128.133 142.932 127.487C143.126 127.14 143.514 126.942 143.854 126.693C143.951 126.594 144.048 126.495 144.048 126.396C144.097 125.304 145.164 124.807 145.601 123.964C145.698 123.815 146.087 123.765 146.426 123.666C146.426 122.674 147.348 121.979 148.028 121.185C148.707 120.44 149.533 119.795 150.261 119.1C150.358 119.001 150.406 118.852 150.503 118.604C151.814 118.803 151.086 117.264 151.814 116.768C151.814 116.917 151.911 117.016 151.911 117.165C152.105 117.066 152.299 117.016 152.493 116.917C152.445 116.917 152.348 116.817 152.299 116.768C152.736 116.47 152.687 115.726 153.415 115.676C153.707 115.676 153.998 115.229 154.24 114.932C154.386 114.783 154.58 114.634 154.871 114.336C154.726 113.939 155.357 113.84 155.648 113.492C155.939 113.195 155.988 112.698 156.182 112.103C156.279 112.45 156.279 112.599 156.327 112.698C156.667 112.45 157.007 112.202 157.347 111.954C157.25 111.805 157.152 111.606 157.104 111.507C158.269 111.507 158.657 110.415 159.579 109.969C159.482 110.217 159.288 110.415 159.288 110.664C159.239 110.961 159.191 111.358 159.288 111.606C159.434 111.954 159.628 112.152 159.142 112.401C158.511 112.698 158.754 113.244 159.142 113.79C158.948 113.84 158.803 113.889 158.657 113.939C158.657 113.691 158.56 113.443 158.511 113.244C158.285 113.343 158.398 113.84 158.851 114.733C158.851 114.733 159.288 114.485 159.482 114.386C159.531 115.378 158.997 116.123 158.463 116.917C157.832 117.909 157.395 119.001 156.813 119.994C156.23 120.986 155.648 121.979 154.968 122.922C153.755 124.609 152.542 126.296 151.328 127.934C150.552 128.976 149.969 130.217 148.999 131.061C148.222 131.755 147.785 132.549 147.251 133.343C146.718 134.088 146.281 134.932 145.747 135.676C145.456 136.123 145.164 136.52 144.873 136.917C143.951 138.157 142.98 139.348 142.107 140.589C141.233 141.83 140.554 143.219 139.729 144.51C138.661 146.197 137.496 147.835 136.428 149.572C135.797 150.614 135.215 151.706 134.584 152.748C134.341 153.145 134.05 153.542 133.759 153.989C133.031 155.18 132.303 156.321 131.623 157.512C130.895 158.852 130.264 160.242 129.585 161.582C129.1 162.525 128.517 163.418 128.08 164.361C127.546 165.552 127.11 166.793 126.624 167.984C126.576 168.133 126.43 168.282 126.333 168.331C125.751 168.53 125.265 169.076 124.537 168.827C124.343 168.778 124.003 169.076 123.664 169.274C123.47 169.026 123.275 168.778 123.033 168.48C122.887 168.579 122.693 168.629 122.499 168.728C122.402 168.53 122.305 168.381 122.208 168.182C122.208 168.232 122.159 168.331 122.111 168.381C121.819 168.282 121.431 168.282 121.237 168.133C120.509 167.438 119.829 166.644 119.101 165.899C119.004 165.8 118.956 165.651 118.956 165.502C118.907 164.113 118.762 162.723 118.762 161.334C118.762 160.391 118.907 159.398 119.053 158.455C119.344 156.371 119.587 154.286 119.975 152.202C120.072 151.656 120.412 151.11 120.557 150.564C120.752 149.82 120.8 149.026 120.994 148.282C121.237 147.19 121.577 146.098 121.868 145.056C122.159 144.113 122.596 143.17 122.644 142.177C122.644 141.284 123.033 140.49 123.178 139.646C123.372 138.505 123.761 137.463 124.003 136.321C124.198 135.527 124.295 134.683 124.489 133.889C124.634 133.095 124.829 132.252 125.023 131.458C125.314 130.118 125.605 128.728 125.945 127.388C126.139 126.544 126.333 125.701 126.624 124.659L126.673 124.907Z" fill="#A7E92F"></path> <path d="M230.685 32.598C230.831 32.2506 230.928 31.9528 231.074 31.6054C231.171 31.6054 231.365 31.6054 231.705 31.655C231.51 31.5062 231.365 31.3573 231.268 31.3076C232.53 30.1662 233.743 29.0248 235.005 27.9329C235.296 27.6848 235.83 27.6848 236.218 27.5856C236.461 26.7419 237.286 26.593 237.966 26.3945C238.548 26.196 239.179 26.2456 239.761 26.0967C239.955 26.0967 240.15 25.8486 240.344 25.7493C240.441 25.6997 240.586 25.6501 240.683 25.6004C240.926 25.5012 241.266 25.5012 241.314 25.3523C241.557 24.856 241.945 24.9553 242.285 24.9056C242.431 24.9056 242.576 24.7568 242.722 24.7071C242.867 24.7071 243.062 24.6079 243.207 24.6079C243.401 24.6079 243.644 24.7071 243.984 24.8064C243.693 24.459 243.547 24.2605 243.353 24.062C243.353 24.0123 243.401 23.9627 243.45 23.9131C244.518 24.3597 245.537 24.8064 246.702 25.253C246.411 25.4516 246.265 25.5508 246.119 25.6501C246.119 25.6997 246.216 25.7493 246.265 25.8486H246.944C247.381 26.8908 248.303 27.8337 248.255 29.0248C248.4 29.2233 248.595 29.3722 248.643 29.521C248.74 30.464 248.546 31.3076 248.255 32.2506C247.672 34.0868 246.847 35.7245 245.731 37.1637C244.712 38.5037 243.45 39.6451 242.334 40.8858C241.897 41.3821 241.557 41.928 241.12 42.3747C239.324 44.062 237.529 45.7494 235.684 47.3871C235.053 47.933 234.277 48.3797 233.597 48.8759C233.403 49.0248 233.306 49.3226 233.064 49.4715C231.608 50.5633 230.2 51.7544 228.647 52.6477C227.919 53.0447 226.997 53.4417 226.026 53.3424C225.638 53.3424 225.25 53.4913 224.91 53.4913C224.521 53.4913 224.133 53.4913 223.551 53.3921C223.211 54.6824 222.871 56.072 223.163 57.4616C223.793 58.1067 224.522 57.809 225.201 57.8586C226.511 57.9578 227.482 57.4119 228.501 56.7668C229.521 56.1216 230.54 55.5757 231.559 54.9802C232.821 54.2358 234.034 53.4417 235.248 52.6477C236.267 51.9529 237.238 51.2084 238.257 50.5137C238.499 50.3648 238.839 50.2655 239.179 50.1166C239.179 49.9181 239.082 49.7196 239.664 49.7692C240.198 49.8189 240.781 49.3722 241.314 49.1737C241.314 49.1737 241.314 49.0248 241.314 48.9256C241.072 49.0248 240.878 49.1241 240.586 49.2233C241.023 48.2308 241.897 48.4789 242.625 48.2804C242.431 48.1811 242.237 48.0819 241.994 47.933C242.334 47.6849 242.576 47.3375 242.916 47.2878C243.304 47.1886 243.741 47.2878 244.129 47.2878C244.566 47.2878 244.906 47.2878 245.149 46.7419C245.343 46.3449 245.731 46.0471 246.119 45.7494C246.459 45.5012 246.847 45.3027 247.236 45.0546C247.575 44.8561 247.915 44.6576 248.206 44.4094C249.08 43.8139 249.954 43.1687 250.876 42.6228C251.07 42.5236 251.41 42.7221 251.798 42.7717C251.798 42.7221 251.701 42.4739 251.652 42.2258C252.138 42.0273 252.769 41.9776 253.205 41.6303C253.545 41.3325 253.836 40.9851 254.322 40.9851C254.37 40.9851 254.467 40.7866 254.467 40.7866C254.613 40.8362 254.71 40.9355 254.855 41.0347C254.564 41.3325 254.322 41.6303 253.982 41.928C254.127 42.0273 254.273 42.2258 254.37 42.1762C255.147 42.0273 255.875 41.8288 256.651 41.6799C256.894 41.6303 257.234 41.6799 257.476 41.6799C257.913 41.5806 258.253 41.3325 258.69 41.1836C259.078 41.0347 259.466 40.9851 260 40.8362C259.66 41.531 259.418 41.9777 259.175 42.4739C259.175 42.4739 259.272 42.5732 259.321 42.5732C259.029 42.7717 258.738 42.9702 258.496 43.1687C258.69 43.8635 258.253 44.6079 257.476 45.2035C257.04 45.5509 256.7 46.0471 256.312 46.3945C256.069 46.6427 255.778 46.8412 255.486 46.9901C254.225 47.7841 252.963 48.5782 251.749 49.4218C250.584 50.2159 249.42 51.1588 248.303 52.0025C247.478 52.6477 246.605 53.2432 245.731 53.8884C244.615 54.732 243.547 55.5757 242.431 56.4194C240.926 57.5112 239.47 58.6526 237.966 59.7445C236.655 60.6874 235.248 61.6303 233.937 62.6229C233.258 63.1192 232.772 63.8636 232.093 64.3102C231.316 64.8065 230.394 65.2035 229.472 65.5013C228.453 65.8487 227.385 66.0968 226.317 66.2953C225.832 66.3946 225.25 66.4442 224.764 66.2953C223.891 66.1465 222.968 65.9976 222.143 65.6998C221.561 65.5013 221.27 64.5087 220.445 65.0546C220.348 64.8065 219.814 65.0546 219.959 64.4591C219.959 64.3598 219.328 64.0125 218.94 63.8139C218.697 63.6651 218.406 63.6154 218.261 63.4169C217.775 62.7221 217.387 61.9777 216.95 61.2333C216.659 60.7866 216.271 60.34 216.125 59.8437C215.591 58.3549 215.591 56.8164 215.882 55.2779C216.125 54.1365 216.222 52.9454 216.707 51.9529C217.387 50.5633 217.484 49.0248 218.163 47.7345C219.037 46.0968 219.862 44.459 220.784 42.871C221.124 42.325 221.658 41.8784 222.046 41.3325C222.629 40.5384 223.114 39.5955 223.842 38.9503C224.667 38.2059 225.104 37.1141 226.22 36.6675C226.657 36.5186 226.948 35.8238 227.336 35.4268C227.628 35.129 228.113 34.9305 228.307 34.5335C228.598 33.9876 228.841 33.4416 229.569 33.2928C229.666 33.2928 229.666 32.995 229.715 32.8461C229.909 32.3498 230.151 32.1017 230.734 32.5483L230.685 32.598ZM227.239 45.4516C227.239 45.4516 227.385 45.5509 227.434 45.6501C227.773 45.4516 228.113 45.3027 228.404 45.1042C229.618 44.1117 230.782 43.0695 231.947 42.0769C232.675 41.4317 233.5 40.8362 234.18 40.1414C235.781 38.603 237.335 37.0149 238.888 35.4268C239.616 34.6823 240.295 33.8387 240.926 33.0446C241.023 32.8957 240.975 32.6972 241.023 32.4987C240.878 32.4987 240.683 32.3995 240.538 32.4987C240.198 32.6972 239.858 32.8957 239.519 33.1439C238.548 33.789 237.577 34.4342 236.704 35.1786C235.879 35.8238 235.053 36.5682 234.277 37.3126C233.306 38.2059 232.287 39.1489 231.365 40.1414C230.588 40.9851 229.812 41.928 229.132 42.8213C228.453 43.7146 227.87 44.6576 227.191 45.5509L227.239 45.4516Z" fill="#A7E92F"></path> <path d="M111.338 48.9256C111.144 47.933 111.678 47.3375 112.745 47.3871C112.794 47.3871 112.94 47.1886 112.94 47.0893C112.94 46.9901 112.843 46.8412 112.843 46.742C112.843 46.6427 112.843 46.4938 112.891 46.3946C113.279 46.5434 113.522 46.9405 114.007 46.196C114.396 45.6005 114.881 44.8561 115.609 44.4591C116.191 44.1117 116.58 43.3672 117.114 42.871C117.599 42.4243 118.181 42.1266 118.618 41.6799C119.006 41.2829 119.298 40.7866 119.589 40.2903C119.686 40.1414 119.686 39.9429 119.783 39.8437C120.56 39.1985 121.336 38.603 122.161 38.0074C122.792 37.5112 123.375 36.9652 124.297 37.0149C124.539 37.0149 124.734 36.6675 124.976 36.469C124.976 36.4193 124.928 36.3697 124.879 36.3201C126.092 35.6749 127.257 34.9305 128.519 34.4839C129.733 34.0372 130.606 32.6972 131.771 32.8958C132.79 32.4987 133.518 32.2506 134.246 32.0025C134.44 31.9032 134.635 31.8039 134.877 31.7047C135.071 31.6054 135.265 31.0595 135.46 31.7047C135.46 31.7047 135.557 31.7047 135.605 31.7047C136.285 31.4565 136.964 31.1092 137.692 30.9603C138.275 30.861 138.906 31.0595 139.536 31.1092C139.536 31.1092 139.585 31.3077 139.634 31.4069C139.634 31.5062 139.682 31.5558 139.731 31.6551C140.41 31.3573 140.75 31.9032 141.138 32.2506C141.526 32.598 142.06 32.7965 142.109 33.5409C142.109 33.7891 142.594 34.0372 142.885 34.2357C143.128 34.4342 143.419 34.6327 143.759 34.8809C143.565 34.9801 143.419 35.0794 143.177 35.1786C143.371 35.2779 143.565 35.2779 143.565 35.3772C143.953 36.2208 144.39 37.1141 144.293 38.0571C144.196 38.8511 144.147 39.5955 143.759 40.3896C143.274 41.2829 143.08 42.3251 142.74 43.3673C142.449 44.2109 142.497 44.2109 141.721 44.2606C142.352 45.005 142.109 45.799 141.041 46.5931C141.138 46.6923 141.235 46.8412 141.235 46.7916C140.75 47.8834 140.362 48.9256 139.876 49.8685C139.342 50.9603 138.76 52.0025 138.226 53.0447C137.886 53.6899 137.45 54.335 137.061 54.9306C136.867 55.278 136.576 55.5757 136.333 55.8735C136.236 56.0224 136.042 56.1713 136.042 56.2705C136.042 57.3623 135.12 57.9082 134.78 58.8015C134.586 59.1986 134.343 59.5956 134.101 59.943C133.955 60.1415 133.809 60.2407 133.567 60.4889C133.47 60.6874 133.421 61.1341 133.178 61.4318C132.693 62.1266 132.111 62.7221 131.625 63.4169C131.189 64.0621 130.849 64.8065 130.363 65.4517C129.878 66.1465 129.247 66.7916 128.713 67.4368C127.403 68.9753 125.995 70.4641 124.831 72.0522C124.345 72.747 123.472 73.1936 123.326 74.1862C123.326 74.3847 122.792 74.4343 122.598 74.6825C122.21 75.1788 121.919 75.7247 121.53 76.2209C120.365 77.5609 119.249 78.9008 117.987 80.1415C117.55 80.5882 116.822 80.8363 116.143 80.9852C114.93 81.2334 113.668 81.3822 112.406 81.4815C112.163 81.4815 111.92 81.3326 111.678 81.2334C111.289 81.0845 110.853 81.0348 110.513 80.8363C109.639 80.2904 108.814 79.6949 108.038 79.0497C107.164 78.2557 106.921 77.015 106.727 75.8735C106.582 75.1788 106.727 74.4343 106.339 73.7395C106.242 73.4914 106.436 73.0944 106.533 72.747C106.824 71.9033 106.29 70.9604 107.018 70.216C107.018 70.1663 107.116 70.0671 107.116 70.0174C106.727 69.4219 107.261 69.0249 107.358 68.5286C107.504 67.9331 107.552 67.2879 107.698 66.6924C107.746 66.4442 107.941 66.2457 108.038 66.0968C108.086 65.6006 108.135 65.1043 108.232 64.608C108.329 64.0621 108.717 63.2681 108.523 63.0695C107.844 62.3748 108.863 62.077 108.669 61.4814C108.523 61.0348 108.669 60.4889 108.669 59.9926C108.62 59.9926 108.523 59.9926 108.474 59.9926C108.669 59.8437 108.911 59.6948 109.202 59.4467C108.814 59.3474 108.62 59.2482 108.329 59.1986C108.523 59 108.669 58.8512 108.814 58.7023C108.814 58.7023 108.766 58.603 108.717 58.5534C108.523 58.5534 108.329 58.5534 108.135 58.603C108.135 58.5534 108.135 58.5038 108.086 58.4045C108.28 58.3053 108.474 58.2556 108.669 58.1564C108.766 57.4616 108.863 56.6675 109.008 55.7742C108.863 55.7246 108.669 55.6253 108.377 55.4765C108.911 54.8313 108.523 53.3425 110.125 53.5906C110.222 53.2432 110.319 52.8958 110.416 52.5484C110.416 52.5484 110.319 52.5484 110.27 52.4988C110.173 52.598 110.076 52.7469 110.028 52.8462C109.979 52.9951 110.028 53.1936 109.979 53.3921C109.833 53.2432 109.688 53.0943 109.542 52.9951C109.979 52.4988 110.416 52.0025 110.756 51.6055C110.853 51.6055 110.756 51.6055 110.513 51.6055C110.61 51.407 110.707 51.2085 110.756 51.0596C110.659 51.0596 110.513 50.9603 110.367 50.9107C110.367 50.9107 110.367 50.8611 110.367 50.8114H111.144C111.387 50.5137 111.581 50.3152 111.872 49.9678C111.726 49.9678 111.629 49.9678 111.484 49.9181C111.289 49.9181 111.095 49.9678 110.901 49.9181C110.853 49.9181 110.901 49.6204 110.998 49.4219C111.047 49.5707 111.095 49.67 111.192 49.8189C111.241 49.8189 111.289 49.8189 111.338 49.8189C111.338 49.6204 111.338 49.4219 111.338 49.2233C111.629 49.2233 112.017 49.3226 112.163 49.1241C112.406 48.8263 112.503 48.4293 112.648 48.0323C112.6 48.0323 112.551 48.0323 112.503 47.9827C112.115 48.33 111.726 48.6774 111.338 49.0248V48.9256ZM132.693 38.7519C132.839 39.4963 132.596 39.6948 132.159 39.8933C131.431 40.1911 130.606 40.0422 130.024 40.8859C129.635 41.4814 128.81 41.7792 128.228 42.2258C127.257 42.9206 126.287 43.6154 125.316 44.3102C125.073 44.4591 124.831 44.6576 124.685 44.9057C124.151 45.7494 123.666 46.6427 123.18 47.4864C122.647 48.3797 122.21 49.3226 121.627 50.1166C121.142 50.7122 120.754 51.3077 120.511 52.1018C120.268 52.9454 119.734 53.6402 119.346 54.4343C119.055 54.9802 118.812 55.5261 118.57 56.1216C118.375 56.6179 118.278 57.1638 118.036 57.6105C117.114 59.3971 116.483 61.3326 115.997 63.2681C115.9 63.6154 115.609 63.8636 115.512 64.1614C115.172 65.1539 114.978 66.1961 114.59 67.1887C114.299 67.9827 114.007 69.273 113.91 70.0671C113.765 71.01 113.376 71.9033 113.182 72.8462C113.134 73.144 113.182 73.6403 113.328 73.8388C113.522 74.0373 114.056 74.0373 114.299 73.8884C114.881 73.5907 115.463 73.1936 115.949 72.747C117.356 71.4567 118.715 70.1663 120.074 68.876C120.948 68.0323 121.821 67.139 122.549 66.1465C122.889 65.6998 123.132 65.6006 123.375 65.7494C123.472 65.4021 123.472 64.9554 123.666 64.6576C124.151 64.0125 124.733 63.4666 125.219 62.871C125.801 62.1266 126.092 61.1341 127.209 60.9355C126.772 60.2904 128.422 57.9579 129.441 57.6601C129.441 57.4616 129.441 57.1638 129.49 57.1142C130.218 56.5187 130.509 55.6254 130.897 54.7817C131.092 54.3847 131.383 53.7891 132.014 54.3847C132.305 53.5906 131.917 52.598 132.839 52.3499C133.033 51.7544 133.178 51.2581 133.276 50.9107C133.518 50.8114 133.761 50.8114 133.809 50.6626C133.907 50.5137 133.858 50.2655 133.858 50.0174C134.004 50.0174 134.198 50.0174 134.246 50.0174C134.586 49.273 134.877 48.5782 135.12 48.0323C135.363 48.0323 135.557 48.0323 135.702 48.0323C135.702 47.6353 135.654 47.3871 135.702 47.0893C135.702 46.7916 135.848 46.4938 135.896 46.196C135.848 46.196 135.751 46.196 135.702 46.1464C135.848 45.9479 135.993 45.6998 136.188 45.4516C136.333 45.5013 136.479 45.6005 136.624 45.6998C136.673 45.3524 136.77 45.005 136.819 44.7072C136.77 44.5583 136.964 44.6079 137.013 44.5087C137.255 43.8635 137.45 43.268 137.644 42.6228C137.935 41.7792 138.178 40.9355 138.42 40.0422C138.42 39.9429 138.566 39.9429 138.614 39.8437C138.711 39.5459 138.808 39.2481 138.808 39C138.808 38.7022 138.76 38.3548 138.711 37.9082C138.226 37.9082 137.692 37.7593 137.158 37.7593C136.867 37.7593 136.576 37.9578 136.285 38.1067C135.799 38.3052 135.314 38.5533 134.829 38.7022C134.198 38.9007 133.712 39.6948 132.79 38.9007L132.693 38.7519Z" fill="#A7E92F"></path> <path d="M100.953 66.8907C100.516 67.2878 100.128 67.6352 99.691 68.0322C99.9337 68.5781 100.468 68.727 101.001 68.5781C101.487 68.4788 101.487 68.6277 101.293 68.9751C101.05 69.3225 101.147 69.6699 101.244 70.0173C101.341 70.7617 101.05 71.5061 100.613 72.1017C100.613 72.1513 100.468 72.2009 100.468 72.2506C100.176 73.2928 99.3998 74.0372 98.7204 74.7816C98.2835 75.2779 97.7497 75.7245 97.2158 76.1712C96.3907 76.866 95.5656 77.5608 94.692 78.2059C94.3523 78.4541 93.964 78.6526 93.6242 78.8511C92.4594 79.6451 91.3917 80.5881 90.1783 81.1836C88.5281 81.9776 87.1206 83.1687 85.3249 83.665C83.8688 84.062 82.5584 84.8064 81.1509 85.3523C79.6463 85.8982 78.0447 85.9975 76.4916 85.7494C75.2782 85.5509 74.0163 85.2035 72.9486 84.6079C71.8808 84.0124 70.9101 83.1687 70.1336 82.2258C69.7453 81.7791 69.26 81.1836 69.5026 80.2903C69.6482 79.794 69.26 79.1488 69.1629 78.5533C69.0658 78.057 68.9688 77.5608 68.9688 77.0645C68.9688 75.9727 68.9687 74.8808 69.1144 73.789C69.26 72.5483 69.4541 71.3076 69.6968 70.0669C69.7938 69.5707 69.8909 69.124 70.0365 68.6774C70.1821 68.1315 70.3762 67.6352 70.5704 67.0893C70.8616 66.2952 71.1528 65.5508 71.3955 64.7568C71.4925 64.3597 71.8323 64.062 72.1235 63.5657C72.6574 63.3672 73.4339 63.0694 74.4046 62.722C74.0163 62.5235 73.8222 62.4242 73.4825 62.2257C73.8222 62.1761 74.0649 62.1265 74.3561 62.0768C73.8222 61.8287 73.8707 61.6302 74.3561 61.2828C74.6473 61.0347 74.7929 60.6376 74.987 60.2902C75.1812 59.9925 75.3268 59.6451 75.4724 59.2977C75.3753 59.2977 75.3268 59.1984 75.2297 59.1488C74.987 59.4466 74.7443 59.794 74.4531 60.0917C74.4046 60.0917 74.3075 59.9925 74.259 59.9428C74.4046 59.6947 74.5017 59.3473 74.6958 59.1488C75.0841 58.6525 75.5694 58.1562 76.0062 57.66C76.346 57.2133 76.7828 56.9652 77.3652 57.0644C77.5593 57.0644 77.7535 57.0148 77.8991 56.9652C77.8991 56.9652 77.8991 56.717 77.8506 56.6674C77.6564 56.5681 77.4623 56.5681 77.2681 56.5185C77.6079 55.7741 77.8505 55.7245 78.7727 55.8734C79.2095 55.923 79.6463 55.7741 80.1802 55.6748C80.0346 55.2282 79.9375 54.8808 79.4037 55.3771C79.258 55.526 78.9668 55.6252 78.6756 55.6252C79.258 54.9304 79.7919 54.186 80.4714 53.6401C81.1994 53.0446 82.073 52.6972 82.9467 52.2009C82.7525 52.1016 82.6069 52.0024 82.4128 51.9527C82.4128 51.9031 82.4613 51.8039 82.5099 51.8039C83.0923 51.7046 83.4805 51.4068 83.6747 50.8113C83.6747 50.6624 83.8688 50.5135 83.9659 50.5135C84.9366 50.4143 85.2278 49.3721 86.0043 48.9751C86.4897 48.6773 86.975 48.3795 87.5089 48.0321C87.606 47.9825 87.6545 47.8833 87.7516 47.8336C88.3825 47.2877 89.0135 46.7418 89.5959 46.1959C89.5959 46.1959 89.6929 46.0966 89.6929 46.1463C90.5666 46.4937 90.8092 45.3522 91.5858 45.3026C91.9741 45.3026 92.4109 44.9552 92.7992 44.7567C92.8477 44.7567 92.8477 44.6078 92.9448 44.5086C93.1874 44.1612 93.4301 43.8634 93.964 44.0619C94.1581 44.1612 94.4008 44.0619 94.6435 44.0619C94.5464 43.8138 94.4979 43.6153 94.4493 43.4167C95.0803 43.4167 95.7112 43.4167 96.3422 43.4167C96.3422 43.3671 96.3422 43.2679 96.3422 43.2182C96.2451 43.1686 96.148 43.0693 95.9054 42.9701C96.1966 42.8708 96.4392 42.7219 96.6334 42.7716C97.2643 42.9205 97.8953 43.0693 98.5747 43.2679C99.0116 43.4167 99.4969 43.516 99.8852 43.7641C100.225 44.0123 100.565 44.3597 100.759 44.7071C101.05 45.4515 101.632 45.9478 102.215 46.3944C102.603 46.6922 102.7 46.9899 102.749 47.4366C102.846 48.2306 103.088 49.0247 103.137 49.8187C103.234 51.5061 103.088 53.1934 101.924 54.583C101.001 55.7245 100.176 56.9652 99.2542 58.057C98.3806 59.0495 97.4585 59.9925 96.5363 60.9354C96.2451 61.2332 95.8083 61.3324 95.5656 61.6302C94.0125 63.2183 92.2167 64.5086 90.3239 65.6997C89.2076 66.3945 88.1398 67.2878 86.975 67.9329C85.5675 68.727 84.063 69.4714 82.5584 70.0669C81.2965 70.5632 79.9375 71.0099 78.53 70.8114C77.6564 70.6625 76.8313 70.464 75.9577 70.2654C75.8121 70.2654 75.6665 70.2654 75.4238 70.2158C75.2297 71.4565 74.987 72.6972 74.8414 73.9379C74.7443 74.6823 74.6958 75.4764 74.5502 76.2208C74.3075 78.0074 75.5694 78.9007 77.5108 78.5533C79.9375 78.1067 82.073 77.0645 84.2571 75.9727C85.5675 75.3275 86.7323 74.3846 87.9942 73.5905C89.5473 72.6476 91.1004 71.7047 92.7021 70.8114C93.333 70.464 93.9154 70.0173 94.5464 69.6699C94.7891 69.521 95.0803 69.5707 95.3229 69.4218C95.7597 69.1736 96.148 68.8759 96.5848 68.6277C96.9731 68.3796 97.3128 68.1314 97.7011 67.9826C98.7689 67.5359 99.8366 67.1389 100.953 66.7419C100.953 66.7419 101.001 66.7419 101.05 66.7915L100.953 66.8907ZM97.1673 49.4217L96.9246 49.0743C96.051 49.3721 95.1288 49.521 94.3037 49.918C93.333 50.4143 92.5079 51.1091 91.6343 51.7046C90.518 52.3994 89.4017 52.9949 88.2855 53.6401C87.9942 53.789 87.8486 54.186 87.5574 54.3349C85.9558 55.0297 84.8395 56.4193 83.4805 57.4118C82.2187 58.3547 81.1509 59.6451 80.1317 60.8361C79.3551 61.7294 78.6756 62.7716 77.9962 63.7642C77.8991 63.9131 77.9476 64.1116 77.8506 64.5086C79.6949 63.2679 81.5877 62.722 83.3349 61.5806C85.5675 60.1414 87.8001 58.7518 89.79 56.9652C89.9356 56.8163 90.1783 56.8163 90.3724 56.717C91.0034 56.1215 91.6829 55.526 92.3623 54.98C93.0418 54.4341 93.7213 53.9379 94.3523 53.3423C94.692 53.0446 94.9832 52.6475 95.2744 52.2505C95.9053 51.3076 96.5363 50.315 97.1673 49.3721V49.4217ZM75.7636 58.5036C76.2004 58.5533 76.6857 58.7518 76.8313 58.6029C77.0255 58.4044 76.9769 57.9081 77.0255 57.5607C76.9284 57.5607 76.8799 57.5111 76.7828 57.4614C76.443 57.8088 76.1518 58.1066 75.7636 58.5036Z" fill="#A7E92F"></path> <path d="M193.313 39.0001C193.022 38.4046 193.75 38.2557 193.992 37.8587C194.089 37.7594 194.138 37.6105 194.186 37.5113C194.284 37.2135 194.381 36.9158 194.526 36.618C195.157 35.5262 195.788 34.484 196.37 33.3922C196.904 32.35 197.341 31.3078 197.827 30.2656C198.021 29.8686 198.312 29.5212 198.506 29.0745C199.088 27.8835 199.671 26.6428 200.302 25.5013C200.884 24.4095 201.564 23.3673 202.146 22.2755C202.68 21.3326 203.068 20.2904 203.602 19.3475C203.942 18.6527 204.33 18.0075 204.718 17.3624C205.01 16.7668 205.301 16.1713 205.592 15.5757C205.932 14.8313 206.174 14.0373 206.563 13.2929C207.097 12.3003 207.388 11.1092 208.067 10.2159C208.65 9.47151 208.747 8.62784 209.184 7.88342C209.669 6.99012 210.154 6.09681 210.64 5.20351C211.222 5.40202 211.804 5.50128 211.999 4.55835C211.659 4.55835 211.319 4.55835 210.931 4.55835C210.979 4.45909 211.028 4.31021 211.076 4.21095C211.562 3.46653 212.047 2.67249 212.581 1.92807C212.678 1.77918 212.921 1.67993 213.066 1.53104C213.309 1.2829 213.6 1.03477 213.697 0.736998C213.988 0.141462 214.619 -0.106677 215.347 0.0422066C215.978 0.19109 216.609 0.240718 217.24 0.290346C217.871 0.290346 218.114 0.538486 218.114 1.23328C218.114 1.48142 218.114 1.72956 218.114 1.92807C218.405 2.57323 218.308 3.21839 218.065 3.86356C217.629 4.95537 217.337 6.09681 216.852 7.139C215.881 9.32263 214.862 11.4566 213.794 13.5906C212.532 16.1217 211.222 18.6527 209.96 21.1837C208.989 23.0696 208.019 24.9554 207.048 26.8413C206.126 28.6279 205.252 30.4641 204.282 32.2507C203.457 33.8388 202.534 35.3277 201.709 36.9158C201.564 37.1639 201.564 37.5609 201.418 37.8091C201.224 38.2061 201.03 38.6031 200.836 39.0001C200.739 39.149 200.739 39.3475 200.642 39.4964C199.574 40.9356 198.943 42.623 198.021 44.1118C197.827 44.4592 197.778 44.9059 197.535 45.2533C196.953 46.1962 196.322 47.0399 195.788 47.9828C195.497 48.4294 195.351 48.9753 195.109 49.4716C194.526 50.6627 193.895 51.8041 193.313 52.9952C193.07 53.4915 193.07 54.087 192.827 54.6329C192.148 56.3203 191.42 57.958 190.789 59.5957C190.352 60.6875 190.061 61.829 189.624 63.1193C190.061 63.02 190.449 62.9704 190.643 62.8215C192.099 61.829 193.41 60.6379 194.963 59.8935C195.691 59.5461 196.176 58.5535 197.147 58.8017C197.244 58.0573 198.021 58.0573 198.36 57.6106V57.561C199.719 57.2632 200.399 55.5759 202 55.824C202.098 55.6255 202.146 55.427 202.243 55.2285C202.243 55.2781 202.292 55.3773 202.34 55.427C202.631 55.3277 202.923 55.2781 203.165 55.1292C203.796 54.6329 204.427 54.087 205.301 54.0374C205.446 54.0374 205.641 53.69 205.786 53.4915C206.077 53.7893 206.417 54.2359 206.757 54.6329C207.145 54.6329 207.533 54.6329 207.873 54.5833C208.067 54.5833 208.407 54.5337 208.504 54.3848C208.892 53.7396 209.329 53.7396 210.009 54.087C209.717 54.3848 209.426 54.6329 209.184 54.8811C209.184 54.9307 209.184 55.0299 209.232 55.0796C209.75 55.6089 209.75 56.1714 209.232 56.7669C209.232 56.7669 209.135 56.8166 209.135 56.8662C209.329 57.8587 208.358 58.0573 207.97 58.6528C207.194 59.7942 206.077 60.5387 205.107 61.432C203.554 62.7719 201.952 64.1119 200.302 65.4022C198.943 66.494 197.487 67.4866 196.079 68.5287C195.06 69.2732 194.041 70.0672 193.022 70.8116C191.808 71.7049 190.692 72.7471 189.284 73.293C187.974 73.7893 186.761 73.9878 185.305 73.6404C184.188 73.3427 183.218 72.896 182.296 72.2508C181.907 71.9531 181.762 71.4072 181.373 71.159C180.597 70.6131 180.451 69.968 180.354 69.025C180.257 68.1317 180.5 67.3873 180.694 66.5933C180.791 66.2459 180.839 65.9481 180.937 65.6007C181.179 64.8563 181.47 64.1615 181.665 63.4171C182.247 61.5808 182.781 59.695 183.363 57.8587C183.606 57.2136 183.994 56.5684 184.285 55.9233C184.674 55.0299 185.062 54.1863 185.45 53.293C185.596 52.9456 185.79 52.6478 185.936 52.35C186.518 51.1093 187.1 49.8686 187.683 48.6279C187.974 48.082 188.314 47.5858 188.654 47.0399C189.042 46.4443 189.479 45.8984 189.867 45.3029C190.012 45.1044 189.867 44.757 190.012 44.5088C190.595 43.2681 191.226 42.0771 191.857 40.886C192.051 40.489 192.245 40.0423 192.488 39.6949C192.585 39.4964 192.779 39.3972 193.022 39.149L193.313 39.0001Z" fill="#A7E92F"></path> <path d="M46.1562 170.415C46.3504 169.67 46.5445 169.075 46.6416 168.529C46.7872 167.884 46.7387 167.189 46.9328 166.593C47.1755 165.7 47.6123 164.856 47.9035 163.963C48.1947 162.921 48.3888 161.879 48.68 160.886C48.9227 160.092 49.311 159.348 49.6507 158.603C49.7478 158.355 49.7478 158.008 49.8449 157.76C50.2331 156.916 50.8156 156.122 50.9612 155.229C51.2038 153.988 51.8833 152.946 52.2716 151.804C52.8055 150.315 53.582 148.876 54.1644 147.387C54.941 145.502 55.7175 143.616 56.2999 141.68C56.5912 140.787 57.2221 139.943 57.028 138.901C57.028 138.653 57.3192 138.306 57.5133 138.057C57.7074 137.76 57.9501 137.462 58.0957 137.114C58.5811 135.675 58.9693 134.236 59.5518 132.846C60.0371 131.606 60.7166 130.464 61.3475 129.273C61.3475 129.174 61.5417 129.075 61.4931 129.025C61.0078 127.983 62.027 127.884 62.4638 127.437C62.6094 127.239 62.9977 127.238 63.1918 127.139C63.3374 126.841 63.483 126.544 63.6286 126.246C63.6772 126.246 63.7742 126.246 63.8228 126.246V127.04C63.8228 127.04 63.9684 127.139 64.0169 127.139C64.2111 126.742 64.4052 126.395 64.5993 125.998C64.6479 125.998 64.7449 125.998 64.7935 125.998C64.6964 126.494 64.6479 126.99 64.5508 127.487C64.5508 127.487 64.5993 127.487 64.6479 127.536C64.7935 127.288 64.9391 127.04 65.0847 126.792C65.2303 126.593 65.4729 126.345 65.6671 126.345C65.8612 126.345 66.201 126.494 66.2495 126.693C66.7348 127.586 67.0261 128.578 67.7541 129.373C67.9967 129.621 67.9482 130.365 67.8511 130.812C67.6085 131.904 67.3658 132.995 67.0261 134.087C66.4922 135.675 65.8612 137.263 65.3273 138.851C64.842 140.191 64.4052 141.581 63.9684 142.921C63.6772 143.765 63.3374 144.608 63.0462 145.452C63.0462 145.601 62.9492 145.7 62.9006 146.047C63.8713 145.154 64.6964 144.41 65.5215 143.616C66.6378 142.574 67.7541 141.581 68.8704 140.539C70.0837 139.397 71.2971 138.256 72.5104 137.114C73.4326 136.271 74.3547 135.477 75.2284 134.633C75.6166 134.286 75.9564 133.889 76.3932 133.541C76.5388 133.442 76.7329 133.442 76.9756 133.343C77.0241 133.243 77.0727 133.045 77.2183 132.896C77.5095 132.598 77.8978 132.4 78.1404 132.102C79.2082 131.01 80.1789 129.819 81.2952 128.777C82.0717 127.983 82.9939 127.338 83.8675 126.593C84.4499 126.047 84.6926 126.345 84.7896 126.99C85.2265 126.941 85.6147 126.841 86.003 126.792C86.003 127.189 86.003 127.487 85.9545 127.884C86.8281 127.487 87.362 128.132 87.8959 128.529C87.9444 128.529 87.8959 128.777 87.8959 128.876C87.7017 128.876 87.5076 128.876 87.1678 128.827C87.362 129.025 87.5076 129.174 87.6532 129.273C88.8665 129.968 88.9636 130.961 88.2841 132.152C87.4105 133.69 86.0515 134.683 84.7896 135.775C83.819 136.569 82.9453 137.412 81.9746 138.256C80.1789 139.894 78.3831 141.482 76.5873 143.119C75.5681 144.062 74.5003 145.005 73.5297 145.948C72.4134 147.04 71.3456 148.132 70.2293 149.224C69.0645 150.415 67.8511 151.507 66.6863 152.747C65.2303 154.286 63.8713 155.923 62.4638 157.512C61.5902 158.504 60.668 159.546 59.843 160.588C59.3576 161.184 58.9693 161.879 58.484 162.524C57.9016 163.417 57.2706 164.261 56.7368 165.154C56.1543 166.147 55.6205 167.139 55.0866 168.132C54.9895 168.281 54.941 168.479 54.7954 168.628C54.213 169.571 54.0674 170.564 54.0188 171.655C54.0188 172.003 53.4364 172.35 53.0967 172.648C52.8055 172.847 52.4657 172.995 52.126 173.144C51.6406 173.343 51.2038 173.541 50.7185 173.045C50.4758 172.797 50.039 172.549 49.6507 172.946C49.5537 172.995 49.2625 172.946 49.1654 172.847C48.5344 172.35 48.1462 171.606 47.2725 171.358C47.1755 171.358 47.1269 171.06 47.1269 170.911C47.1269 170.415 47.1269 169.968 46.2048 170.415H46.1562Z" fill="#A7E92F"></path> <path d="M92.7515 166.843C92.3632 166.743 92.072 166.594 91.7808 166.644C90.4703 166.942 89.4026 166.346 88.3834 165.602C88.1892 165.453 87.898 165.354 87.6553 165.205C87.5583 164.46 87.4127 163.666 87.3156 162.922C87.2671 162.475 87.3156 162.128 87.801 161.979C87.8495 161.979 87.898 161.781 87.9466 161.632C87.801 161.632 87.7039 161.632 87.5097 161.681C88.0922 159.895 88.626 158.108 89.3055 156.321C89.5482 155.676 89.8879 155.13 89.8879 154.386C89.8879 154.187 90.1791 153.989 90.2762 153.741C90.9072 152.302 91.5381 150.813 92.169 149.374C92.8971 147.736 93.6736 146.148 94.3531 144.51C95.1297 142.674 95.8091 140.738 96.6342 138.902C97.2652 137.562 97.702 136.173 98.2844 134.833C99.0124 133.145 99.886 131.458 100.711 129.82C101.196 128.828 101.779 127.885 102.264 126.892C102.701 126.048 103.283 125.254 104.06 124.758C104.351 124.659 104.691 124.758 104.788 124.311C104.788 124.212 104.934 124.113 104.982 124.014C104.982 124.014 105.176 124.063 105.176 124.163C105.467 125.155 105.807 124.659 106.195 124.212C106.195 124.163 106.293 124.113 106.341 124.113C106.826 124.51 107.36 124.808 107.749 125.254C108.088 125.651 108.38 126.098 108.525 126.594C108.913 127.785 109.641 128.877 108.719 130.217C108.282 130.813 108.282 131.706 107.991 132.45C107.554 133.443 107.069 134.436 106.632 135.428C106.098 136.669 105.613 137.959 105.079 139.2C104.739 139.944 104.351 140.639 104.011 141.383C103.866 141.681 103.72 142.029 103.575 142.326C103.041 143.517 102.555 144.709 102.022 145.85C101.391 147.339 100.76 148.778 100.032 150.217C99.4492 151.458 98.8183 152.649 98.1873 153.89C98.0417 154.187 98.0903 154.535 97.9932 154.833C97.8476 155.18 97.702 155.527 97.5564 155.924C97.4593 156.222 97.4108 156.57 97.2166 156.768C96.4401 157.761 96.343 159.051 95.7121 160.143C95.1296 161.185 95.0326 162.475 94.5958 163.666C94.3046 164.46 93.8192 165.155 93.3339 165.9C93.0912 166.247 92.8 166.594 92.5573 166.843H92.7515Z" fill="#A7E92F"></path> <path d="M110.853 90.4642C111.193 90.5139 111.533 90.5635 111.969 90.6627C111.872 90.4146 111.775 90.2657 111.63 90.0176C112.309 90.365 112.892 90.6627 113.522 91.0101C113.571 90.8613 113.717 90.6627 113.814 90.5139C114.299 91.0101 114.784 91.556 115.221 92.102C115.901 92.896 115.998 93.7893 115.755 94.7819C115.512 96.0226 115.221 97.3129 114.93 98.5536C114.687 99.5461 114.445 100.588 114.202 101.581C114.153 101.829 113.959 102.028 113.814 102.276C113.717 102.474 113.668 102.673 113.522 102.871C113.377 103.07 113.231 103.318 113.086 103.516C112.358 104.459 111.727 105.501 110.902 106.296C110.028 107.139 109.931 108.281 109.446 109.323C109.106 110.018 108.766 110.712 108.378 111.407C108.232 111.705 108.087 112.052 107.941 112.35C107.892 112.499 107.747 112.698 107.65 112.698C106.679 112.747 106.048 113.492 105.32 113.938C105.029 114.137 104.592 114.137 104.204 114.186C103.913 114.186 103.573 114.087 103.233 114.037C102.845 112.003 102.845 110.018 103.573 108.033C103.864 104.856 104.786 101.829 105.903 98.8514C107.019 95.824 108.475 92.896 110.805 90.5635L110.853 90.4642Z" fill="#A7E92F"></path> <path d="M66.8331 33.8888C67.0757 33.8888 67.3184 33.8888 67.464 33.8888C67.464 33.8888 67.464 34.2358 67.464 34.2853C67.2699 34.3349 66.9787 34.434 66.8331 34.3349C66.4933 34.1862 66.2507 33.8888 65.9595 33.6905C65.4094 33.9218 65.0049 33.8723 64.7461 33.5418C65.6682 33.1948 66.736 33.3931 66.8331 33.8888Z" fill="#A7E92F"></path> <path d="M108.621 56.1221C108.33 56.8169 108.038 57.5117 107.699 58.2561C107.31 57.5613 107.505 56.9161 108.621 56.1221Z" fill="#A7E92F"></path> <path d="M19.9468 81.5317C19.9468 81.5317 19.5585 81.8294 19.2188 82.0776C19.5585 81.2339 19.8012 80.4895 20.0924 79.7947C20.1894 79.7947 20.2865 79.7947 20.335 79.8443C20.335 79.9932 20.335 80.1917 20.2865 80.3406C20.1894 80.7376 20.0438 81.1843 19.9468 81.5813V81.5317Z" fill="#A7E92F"></path> </svg> 