<?xml version="1.0" encoding="UTF-8"?> <svg xmlns="http://www.w3.org/2000/svg" width="194" height="172" viewBox="0 0 194 172" fill="none"> <path d="M177.469 143.158L163.626 112.728L165.94 111.051L164.734 107.781C164.734 107.781 160.3 104.899 158.804 100.52C157.307 96.1408 159.386 91.3324 159.386 91.3324L160.73 92.1777C160.73 92.1777 163.418 81.9927 165.192 81.1058C166.965 80.219 168.476 80.51 169.016 80.8287C169.571 81.1612 170.083 82.1451 170.083 82.1451C170.083 82.1451 171.33 81.3414 172.591 82.4084C173.839 83.4754 174.033 85.1798 174.033 85.1798C174.033 85.1798 175.003 83.9327 176.873 84.8888C178.744 85.845 178.758 89.1707 178.758 89.1707C178.758 89.1707 180.615 87.6602 181.654 89.6972C182.693 91.7342 179.977 101.129 179.977 101.129L182.319 104.635L183.539 104.067L191.659 117.287L181.765 143.061C181.017 144.96 178.314 145.029 177.469 143.158Z" fill="white"></path> <path d="M142.742 175.431L136.118 151.181L138.668 149.907L137.989 146.484C137.989 146.484 134.081 142.923 133.305 138.364C132.529 133.805 135.342 129.384 135.342 129.384L136.534 130.423C136.534 130.423 140.816 120.793 142.7 120.197C144.585 119.601 146.026 120.128 146.525 120.543C147.024 120.959 147.37 122.012 147.37 122.012C147.37 122.012 148.742 121.416 149.795 122.663C150.862 123.924 150.765 125.615 150.765 125.615C150.765 125.615 151.915 124.534 153.62 125.781C155.324 127.028 154.798 130.299 154.798 130.299C154.798 130.299 156.876 129.107 157.583 131.283C158.29 133.458 154.105 142.299 154.105 142.299L155.865 146.137L157.153 145.777L167.283 166.771C168.142 168.558 167.255 170.706 165.371 171.344L146.996 177.662C145.209 178.314 143.241 177.288 142.742 175.431Z" fill="white"></path> <path d="M17.3907 144.211L31.234 113.781L28.9198 112.104L30.1254 108.834C30.1254 108.834 34.5597 105.952 36.0563 101.573C37.5528 97.194 35.4743 92.3856 35.4743 92.3856L34.1301 93.2309C34.1301 93.2309 31.4418 83.0459 29.6681 82.159C27.8944 81.2722 26.384 81.5632 25.8436 81.8819C25.3031 82.2006 24.7766 83.1983 24.7766 83.1983C24.7766 83.1983 23.5294 82.3946 22.2684 83.4616C21.0213 84.5286 20.8273 86.233 20.8273 86.233C20.8273 86.233 19.8573 84.9859 17.9866 85.942C16.102 86.912 16.102 90.2239 16.102 90.2239C16.102 90.2239 14.259 88.6857 13.2197 90.7089C12.1804 92.7459 14.8964 102.141 14.8964 102.141L12.5546 105.647L11.3351 105.079L3.21484 118.298L13.1088 144.073C13.8433 145.999 16.5454 146.082 17.3907 144.211Z" fill="white"></path> <path d="M56.2745 177.981L62.8982 153.731L60.3485 152.456L61.0275 149.034C61.0275 149.034 64.9352 145.472 65.7112 140.913C66.4872 136.354 63.6742 131.934 63.6742 131.934L62.4825 132.973C62.4825 132.973 58.2006 123.343 56.3161 122.747C54.4176 122.151 52.9903 122.677 52.4915 123.093C51.9926 123.509 51.6462 124.562 51.6462 124.562C51.6462 124.562 50.2743 123.966 49.2212 125.213C48.1542 126.474 48.2512 128.165 48.2512 128.165C48.2512 128.165 47.1011 127.084 45.3966 128.331C43.6922 129.578 44.2188 132.849 44.2188 132.849C44.2188 132.849 42.1402 131.657 41.4335 133.832C40.7268 136.008 44.9116 144.849 44.9116 144.849L43.1518 148.687L41.8631 148.327L31.7335 169.321C30.8743 171.108 31.7612 173.256 33.6458 173.893L52.0203 180.212C53.8079 180.877 55.7756 179.838 56.2745 177.981Z" fill="white"></path> <path d="M85.3462 71.5582L88.3948 58.7542C88.3948 58.7542 85.3601 58.7265 83.4339 56.0105C81.5078 53.2945 81.3969 47.9734 83.9051 47.0311C86.4132 46.0888 87.7712 46.1997 89.3371 46.8232C90.8891 47.4468 91.5681 49.8995 91.5681 49.8995L95.2541 35.502L118.091 39.4097C118.091 39.4097 116.483 49.3037 116.511 52.9065C116.539 56.5094 116.483 61.0268 114.931 65.1008C113.379 69.1748 110.927 71.1287 110.927 71.1287L112.326 74.6207L101.836 85.2075L85.3462 71.5582Z" fill="white"></path> <path d="M145.887 175.293C145.887 175.293 134.926 141.274 134.414 138.419C133.416 132.946 139.693 121.901 142.714 119.643C145.735 117.384 147.994 121.901 147.994 121.901C147.994 121.901 149.67 121.319 150.599 122.234C150.335 120.765 150.003 119.269 149.643 117.772C147.481 108.751 140.178 92.6213 130.159 86.1916C122.275 81.1198 117.355 81.9928 117.355 81.9928C117.355 81.9928 119.143 80.621 119.198 75.0088C119.254 69.3967 115.402 66.9024 115.402 66.9024L110.926 71.8771L111.826 73.8864C111.826 73.8864 109.928 74.898 106.311 78.3068C102.695 81.7157 102.21 83.5033 102.21 83.5033C102.21 83.5033 95.8353 76.7964 92.8145 74.4961C89.7936 72.2097 86.2739 70.0757 86.2739 70.0757L88.3941 58.7267L84.7773 57.8398C84.7773 57.8398 76.2136 59.3918 74.0796 66.168C71.9456 72.9441 74.0796 79.5401 74.0796 79.5401C74.0796 79.5401 63.0078 81.785 53.3216 89.8083C43.6355 97.8316 30.873 171.552 30.873 171.552C30.873 171.552 40.4899 145.833 42.6239 141.689C42.6239 141.689 39.3536 134.137 41.4045 131.962C42.0835 131.241 43.8295 131.463 43.8295 131.463C43.8295 131.463 44.3006 127.611 45.1459 126.765C45.9912 125.934 47.6263 126.765 47.6263 126.765C47.6263 126.765 47.9173 125.075 48.8319 124.16C49.7603 123.232 51.437 123.828 51.437 123.828C51.437 123.828 53.6958 119.296 56.7166 121.569C59.7375 123.828 66.0563 135.246 65.017 140.345C64.6013 142.368 56.1208 174.184 55.2893 175.279H145.887V175.293Z" fill="#A4E62F"></path> <path d="M91.1652 64.3803C91.0128 64.3803 90.8742 64.2972 90.7911 64.1586C89.5162 61.6643 89.0728 59.1839 88.9619 58.2693C87.5762 58.1723 82.8787 57.4795 82.2551 52.3523C81.9225 49.6086 82.7539 48.3199 83.5022 47.7102C83.6824 47.5716 83.9457 47.5993 84.0842 47.7795C84.2228 47.9596 84.1951 48.2229 84.0149 48.3615C83.1697 49.0405 82.8371 50.3846 83.0727 52.2553C83.7101 57.5072 89.0867 57.4518 89.3222 57.4656C89.5578 57.4518 89.7241 57.6319 89.7379 57.8398C89.7379 57.8675 90.0289 60.8606 91.5255 63.7845C91.6364 63.9923 91.5532 64.2418 91.3454 64.3388C91.2899 64.3665 91.2207 64.3803 91.1652 64.3803Z" fill="black"></path> <path d="M108.225 59.6828C108.059 59.6828 107.892 59.5719 107.837 59.4057C107.768 59.1839 107.879 58.9484 108.086 58.8791C108.641 58.6851 110.137 57.9645 110.456 56.9945C110.595 56.5788 110.498 56.1492 110.179 55.6919C108.086 52.6434 108.308 50.4955 108.322 50.3985C108.35 50.1768 108.558 49.9967 108.779 50.0382C109.001 50.0659 109.167 50.2738 109.14 50.4955C109.14 50.5232 108.959 52.4632 110.858 55.2208C111.329 55.8998 111.454 56.5927 111.232 57.2578C110.719 58.8098 108.447 59.6274 108.35 59.6551C108.322 59.6828 108.267 59.6828 108.225 59.6828Z" fill="black"></path> <path d="M98.2461 48.6108C98.1768 48.6108 98.1075 48.5969 98.0382 48.5554C97.8442 48.4445 97.7611 48.1951 97.8719 47.9872C97.9135 47.9041 99.0221 45.9502 101.807 45.7701C104.26 45.6177 105.175 46.9341 105.216 46.9895C105.341 47.1835 105.285 47.4329 105.091 47.5715C104.911 47.6962 104.648 47.6408 104.523 47.4468C104.496 47.3914 103.844 46.4629 101.863 46.6015C99.5486 46.7401 98.6479 48.3198 98.6064 48.3891C98.5371 48.5277 98.3985 48.6108 98.2461 48.6108Z" fill="black"></path> <path d="M116.483 49.7751C116.344 49.7751 116.206 49.7058 116.123 49.5672C114.266 46.3524 111.383 47.6965 111.259 47.752C111.051 47.849 110.801 47.7658 110.704 47.558C110.607 47.3501 110.691 47.1007 110.898 47.0037C110.94 46.9898 114.598 45.2577 116.843 49.1515C116.954 49.3455 116.885 49.6088 116.691 49.7197C116.621 49.7612 116.552 49.7751 116.483 49.7751Z" fill="black"></path> <path d="M103.516 50.9713C103.622 50.2984 103.242 49.6798 102.667 49.5895C102.093 49.4992 101.541 49.9715 101.436 50.6444C101.33 51.3173 101.71 51.936 102.285 52.0262C102.859 52.1165 103.411 51.6442 103.516 50.9713Z" fill="black"></path> <path d="M114.034 51.9059C114.14 51.233 113.76 50.6144 113.185 50.5241C112.61 50.4338 112.059 50.9061 111.953 51.579C111.847 52.2519 112.228 52.8705 112.802 52.9608C113.377 53.0511 113.928 52.5788 114.034 51.9059Z" fill="black"></path> <path d="M104.745 73.0273C101.226 73.0273 97.5397 71.6138 94.9623 68.884C94.8098 68.7177 94.8098 68.4544 94.9761 68.302C95.1424 68.1496 95.4057 68.1496 95.5581 68.3159C99.8677 72.861 107.461 73.54 111.508 69.7293C116.33 65.1841 116.191 55.9553 116.122 54.1539C115.956 49.9967 116.912 42.5139 116.954 42.1951C116.981 41.9734 117.175 41.821 117.425 41.8349C117.646 41.8626 117.813 42.0704 117.785 42.306C117.771 42.3753 116.787 50.0244 116.954 54.1261C117.037 55.9969 117.161 65.5444 112.076 70.339C110.164 72.1404 107.503 73.0273 104.745 73.0273Z" fill="black"></path> <path d="M35.6543 138.904C35.6266 138.904 35.585 138.904 35.5573 138.891C35.3356 138.835 35.197 138.6 35.2525 138.378C35.6682 136.77 45.4236 99.0235 56.0105 89.3096C62.2323 83.6005 68.9115 81.8129 74.2742 80.3856C74.9116 80.2194 75.5352 80.0531 76.1449 79.8729C76.3805 79.8036 76.6022 79.9422 76.6576 80.1639C76.713 80.3856 76.5883 80.6212 76.3666 80.6766C75.7569 80.8429 75.1333 81.0092 74.4959 81.1894C69.2163 82.6028 62.648 84.3626 56.5786 89.9194C46.1719 99.4669 36.167 138.184 36.07 138.572C36.0007 138.78 35.8345 138.904 35.6543 138.904Z" fill="black"></path> <path d="M87.4522 69.2583C87.4245 69.2583 87.4106 69.2583 87.3829 69.2583C87.1612 69.2167 87.0087 69.0088 87.0365 68.7733L88.921 57.7984C88.9626 57.5767 89.1704 57.4243 89.406 57.452C89.6277 57.4936 89.7802 57.7014 89.7524 57.937L87.8679 68.9118C87.8263 69.1197 87.6462 69.2583 87.4522 69.2583Z" fill="black"></path> <path d="M151.5 120.35C151.32 120.35 151.154 120.239 151.099 120.045C151.043 119.851 145.306 100.229 136.119 90.3489C129.274 82.9907 119.005 81.9653 118.908 81.9514C118.673 81.9237 118.507 81.7297 118.534 81.4942C118.562 81.2724 118.77 81.0923 118.992 81.12C119.102 81.1339 129.675 82.187 136.743 89.7807C146.082 99.8133 151.861 119.615 151.916 119.823C151.985 120.045 151.847 120.28 151.625 120.336C151.584 120.35 151.542 120.35 151.5 120.35Z" fill="black"></path> <path d="M116.858 50.2046C116.858 50.2046 119.893 48.4586 121.306 44.9389C122.969 40.8233 120.724 39.0496 120.724 39.0496C120.724 39.0496 123.399 34.1857 121.278 29.8068C118.396 23.8621 111.01 25.3171 111.01 25.3171C111.01 25.3171 109.126 23.5711 104.691 23.2108C99.0377 22.7536 92.8713 24.8044 91.5549 30.181C91.5549 30.181 85.624 30.181 83.5593 35.904C81.4807 41.627 84.6679 47.3084 84.6679 47.3084C84.6679 47.3084 85.3053 46.5601 87.3977 47.1144C89.8643 47.7518 91.0006 51.7011 91.0006 51.7011C91.0006 51.7011 94.3817 49.484 95.6982 43.4423C96.294 40.6986 96.2663 38.426 96.2663 38.426C96.2663 38.426 101.352 41.9734 108.544 42.5C114.225 42.9157 117.329 41.7933 117.329 41.7933L116.858 50.2046Z" fill="black"></path> <path d="M107.433 64.2143C106.034 64.2143 104.232 63.8125 102.306 62.3575C102.126 62.2189 102.085 61.9556 102.223 61.7755C102.362 61.5953 102.625 61.5538 102.805 61.6923C106.491 64.5053 109.664 62.9811 109.789 62.9118C109.997 62.8148 110.246 62.8979 110.343 63.0919C110.44 63.2859 110.371 63.5492 110.163 63.6462C110.094 63.6878 109.027 64.2143 107.433 64.2143Z" fill="black"></path> <path d="M111.577 89.4896C111.438 89.4896 111.286 89.4203 111.217 89.2817C111.106 89.0877 111.175 88.8244 111.383 88.7135C111.452 88.672 118.81 84.4594 119.683 77.032C120.418 70.7824 115.886 66.5421 115.845 66.5006C115.679 66.3481 115.665 66.0848 115.817 65.9186C115.97 65.7523 116.233 65.7384 116.399 65.8908C116.593 66.071 121.291 70.4498 120.501 77.129C119.586 84.986 112.103 89.2678 111.785 89.4341C111.715 89.4757 111.646 89.4896 111.577 89.4896Z" fill="black"></path> <path d="M76.2561 80.7044C76.0899 80.7044 75.9374 80.6073 75.8681 80.4411C75.7573 80.1639 73.2214 73.5541 74.7041 68.2468C76.8381 60.6115 86.0254 58.2142 86.4134 58.1172C86.6351 58.0618 86.8569 58.2003 86.9123 58.4221C86.9677 58.6438 86.8291 58.8655 86.6074 58.9209C86.5104 58.9486 77.5033 61.3043 75.5079 68.4685C74.0944 73.4986 76.6164 80.0669 76.6441 80.1362C76.7273 80.3441 76.6164 80.5935 76.4086 80.6766C76.3531 80.6905 76.2977 80.7044 76.2561 80.7044Z" fill="black"></path> <path d="M87.2175 90.4872C87.1482 90.4872 87.0928 90.4733 87.0235 90.4456C82.326 87.9929 78.6261 83.4339 78.4598 83.2537C78.3212 83.0736 78.349 82.8103 78.5152 82.6717C78.6954 82.5332 78.9587 82.5609 79.0973 82.7272C79.1388 82.7687 82.8525 87.3416 87.3977 89.7112C87.6055 89.822 87.6748 90.0714 87.5778 90.2654C87.5085 90.404 87.37 90.4872 87.2175 90.4872Z" fill="black"></path> <path d="M101.823 89.1848C101.642 89.1848 101.462 89.1571 101.282 89.1017C100.88 88.9631 99.5777 88.3118 99.8687 85.6097C100.007 84.321 100.589 83.0184 101.435 81.7574C100.866 80.9952 100.146 80.1915 99.2451 79.3462C90.1964 70.7825 82.5611 67.831 82.478 67.7894C82.2563 67.7062 82.1592 67.4707 82.2424 67.249C82.3255 67.0272 82.5611 66.9302 82.7828 67.0134C82.866 67.0411 90.6398 70.0481 99.8271 78.7365C100.672 79.5402 101.379 80.3162 101.947 81.0507C105.689 76.0898 113.13 71.8911 113.532 71.6555C113.74 71.5447 113.989 71.614 114.1 71.8218C114.211 72.0158 114.142 72.2791 113.934 72.39C113.837 72.4454 106.049 76.8381 102.46 81.7574C104.372 84.5288 104.414 86.746 103.624 88.0762C103.181 88.783 102.502 89.1848 101.823 89.1848ZM101.947 82.478C101.268 83.545 100.811 84.6258 100.7 85.6928C100.52 87.3557 101.019 88.1317 101.545 88.3118C102.017 88.4642 102.557 88.201 102.903 87.619C103.513 86.6212 103.472 84.8198 101.947 82.478Z" fill="black"></path> <path d="M63.0096 133.638L68.594 126.336L60.2104 119.934L57.9102 122.954L63.0096 133.638Z" fill="#2E3C45"></path> <path d="M45.0783 143.768L43.8173 141.163L38.9395 147.786C37.9834 149.033 38.6624 151.389 39.8403 152.415L42.0851 147.939L43.6094 147.897L45.0783 143.768Z" fill="#2E3C45"></path> <path d="M78.3076 113.92C83.2668 113.92 87.287 109.9 87.287 104.94C87.287 99.9812 83.2668 95.9609 78.3076 95.9609C73.3484 95.9609 69.3281 99.9812 69.3281 104.94C69.3281 109.9 73.3484 113.92 78.3076 113.92Z" fill="#2E3C45"></path> <path d="M80.2608 113.685L69.3477 105.348L65.9153 109.841L76.8284 118.178L80.2608 113.685Z" fill="#C0C0C0"></path> <path d="M70.4788 127.777L58.3123 118.479C57.37 117.758 57.1898 116.414 57.9104 115.472L63.481 108.183C64.2015 107.241 65.5457 107.06 66.488 107.781L78.6545 117.079C79.5968 117.8 79.777 119.144 79.0564 120.086L73.4858 127.375C72.7791 128.317 71.4211 128.497 70.4788 127.777Z" fill="#C0C0C0"></path> <path d="M61.2919 148.84C61.1949 148.84 61.0979 148.812 61.0148 148.743C60.8485 148.591 60.8208 148.327 60.9732 148.161C61.0148 148.119 64.5483 144.045 65.449 140.47C66.3359 136.964 63.7723 132.655 63.7446 132.613C63.6199 132.419 63.6892 132.156 63.8832 132.045C64.0772 131.92 64.3405 131.99 64.4513 132.184C64.5622 132.378 67.2089 136.84 66.2389 140.678C65.2966 144.447 61.7353 148.535 61.5829 148.715C61.5136 148.798 61.4028 148.84 61.2919 148.84Z" fill="black"></path> <path d="M45.0363 143.921C44.8839 143.921 44.7453 143.838 44.676 143.699C43.8307 142.133 39.7429 134.276 41.9046 132.738C42.6113 132.239 43.4981 132.281 44.3573 132.807C44.3573 132.738 44.3573 132.683 44.3573 132.655C44.4404 130.909 44.8007 127.916 46.2419 127.431C46.9624 127.181 47.6691 127.5 48.2927 128.096C48.5006 126.585 48.9717 125.241 49.8309 124.701C50.496 124.285 51.2304 124.327 51.951 124.798C51.9649 124.521 51.9926 124.285 52.0341 124.133C52.436 122.719 53.2536 122.304 53.8633 122.207C55.152 121.999 56.5931 123.01 57.3137 124.063C58.3114 125.532 62.4824 134.124 62.6626 134.484C62.7596 134.692 62.6764 134.941 62.4686 135.038C62.2607 135.135 62.0113 135.052 61.9143 134.844C61.8727 134.761 57.5909 125.948 56.6209 124.521C56.0527 123.689 54.8887 122.872 54.0019 123.024C53.4614 123.107 53.0734 123.551 52.8517 124.354C52.7824 124.618 52.7547 125.033 52.7686 125.518C54.0573 127.015 55.055 129.897 54.376 131.158C54.0573 131.754 53.6 131.602 53.5169 131.56C52.6993 131.228 52.1034 128.04 51.9787 125.879C51.9371 125.837 51.9094 125.796 51.8679 125.768C50.9949 124.95 50.4683 125.283 50.2881 125.394C49.6369 125.796 49.1796 127.154 49.0549 128.969C49.332 129.357 49.5676 129.786 49.7754 130.23C50.5791 131.92 51.0087 134.027 50.0526 134.636C49.817 134.775 49.5537 134.789 49.3181 134.678C48.3897 134.193 48.2234 131.491 48.1957 130.673C48.1819 130.202 48.1819 129.717 48.2096 129.232C47.6691 128.512 47.0594 128.054 46.519 128.234C46.1171 128.373 45.7291 129.149 45.4797 130.313C45.2719 131.325 45.1749 132.461 45.1749 133.5C45.2441 133.583 45.3273 133.666 45.3966 133.75C46.3804 134.914 46.9624 136.646 46.0617 137.533C45.7291 137.865 45.4104 137.768 45.2857 137.713C44.5097 137.366 44.3573 135.246 44.3434 133.86C43.7476 133.32 42.9993 133.001 42.3896 133.431C41.2394 134.248 43.4704 139.708 45.4104 143.325C45.5213 143.533 45.4381 143.782 45.2441 143.893C45.1749 143.907 45.1056 143.921 45.0363 143.921ZM45.2026 134.927C45.2719 135.814 45.3966 136.507 45.5351 136.812C45.7846 136.41 45.646 135.662 45.2026 134.927ZM49.0133 130.59C49.0687 132.392 49.4151 133.597 49.6507 133.888C49.8863 133.569 49.7754 132.211 49.0133 130.59ZM52.921 127.251C53.1011 128.595 53.4199 129.994 53.697 130.576C53.8633 129.828 53.5307 128.442 52.921 127.251Z" fill="black"></path> <path d="M58.3117 173.492C58.284 173.492 58.2425 173.492 58.2147 173.478C57.993 173.423 57.8545 173.201 57.9099 172.979L62.6767 153.718L42.4037 148.244L32.4266 171.801C32.3296 172.009 32.094 172.106 31.8862 172.023C31.6783 171.94 31.5813 171.69 31.6645 171.483L41.7802 147.593C41.8633 147.399 42.0573 147.302 42.2652 147.357L63.2726 153.025C63.4943 153.08 63.619 153.302 63.5636 153.524L58.6997 173.187C58.672 173.367 58.5057 173.492 58.3117 173.492Z" fill="black"></path> <path d="M60.7221 153.163C60.7082 153.163 60.6805 153.163 60.6666 153.163C60.4311 153.135 60.2786 152.928 60.3063 152.692L60.8191 148.743L45.3406 145.223L44.1905 148.202C44.1073 148.424 43.8579 148.521 43.6501 148.438C43.4422 148.355 43.3313 148.119 43.4145 147.897L44.6893 144.572C44.7586 144.378 44.9665 144.267 45.1743 144.308L61.3733 147.994C61.5812 148.05 61.7198 148.244 61.6921 148.452L61.1378 152.775C61.1101 153.011 60.9299 153.163 60.7221 153.163Z" fill="black"></path> <path d="M136.077 131.74L130.312 124.576L138.516 117.966L140.899 120.917L136.077 131.74Z" fill="#2E3C45"></path> <path d="M154.244 141.745L155.436 139.112L160.521 145.264C161.505 146.498 160.882 148.867 159.745 149.92L157.293 145.306L156.032 145.417L154.244 141.745Z" fill="#2E3C45"></path> <path d="M120.044 112.409C125.003 112.409 129.023 108.389 129.023 103.43C129.023 98.4704 125.003 94.4502 120.044 94.4502C115.085 94.4502 111.064 98.4704 111.064 103.43C111.064 108.389 115.085 112.409 120.044 112.409Z" fill="#2E3C45"></path> <path d="M121.855 116.626L132.547 108.009L128.999 103.607L118.307 112.224L121.855 116.626Z" fill="#C0C0C0"></path> <path d="M128.456 126.072L140.373 116.469C141.301 115.721 141.44 114.377 140.692 113.448L134.941 106.312C134.193 105.384 132.848 105.245 131.92 105.993L120.003 115.596C119.074 116.345 118.936 117.689 119.684 118.617L125.435 125.754C126.183 126.668 127.527 126.821 128.456 126.072Z" fill="#C0C0C0"></path> <path d="M138.182 146.886C138.071 146.886 137.96 146.844 137.877 146.747C137.725 146.581 134.067 142.576 133.013 138.835C131.946 135.024 134.482 130.493 134.593 130.299C134.704 130.105 134.953 130.035 135.161 130.146C135.355 130.257 135.438 130.506 135.314 130.714C135.286 130.756 132.847 135.149 133.817 138.613C134.815 142.16 138.459 146.151 138.487 146.193C138.639 146.359 138.626 146.622 138.459 146.775C138.39 146.844 138.279 146.886 138.182 146.886Z" fill="black"></path> <path d="M154.298 141.551C154.229 141.551 154.173 141.537 154.104 141.509C153.896 141.412 153.813 141.163 153.924 140.955C155.781 137.296 157.859 131.781 156.695 130.991C156.072 130.576 155.337 130.908 154.755 131.463C154.783 132.848 154.686 134.982 153.91 135.343C153.785 135.398 153.467 135.495 153.134 135.176C152.22 134.317 152.746 132.571 153.702 131.379C153.772 131.296 153.841 131.213 153.91 131.13C153.882 130.091 153.758 128.954 153.522 127.943C153.245 126.793 152.843 126.031 152.427 125.906C151.901 125.74 151.291 126.211 150.765 126.945C150.806 127.43 150.82 127.929 150.806 128.4C150.792 129.218 150.695 131.92 149.781 132.433C149.545 132.557 149.282 132.557 149.046 132.419C148.076 131.837 148.45 129.73 149.213 128.012C149.407 127.569 149.642 127.125 149.905 126.737C149.725 124.936 149.24 123.592 148.575 123.204C148.395 123.093 147.855 122.774 147.009 123.619C146.968 123.661 146.94 123.689 146.898 123.73C146.843 125.892 146.33 129.093 145.513 129.453C145.43 129.495 144.972 129.647 144.64 129.065C143.919 127.818 144.848 124.922 146.081 123.384C146.081 122.885 146.053 122.469 145.984 122.206C145.734 121.416 145.333 120.973 144.792 120.903C143.905 120.793 142.755 121.624 142.215 122.469C141.286 123.924 137.24 132.834 137.198 132.918C137.101 133.125 136.852 133.222 136.644 133.125C136.436 133.028 136.339 132.779 136.436 132.571C136.603 132.197 140.552 123.522 141.508 122.012C142.187 120.945 143.614 119.892 144.903 120.072C145.513 120.155 146.344 120.543 146.774 121.957C146.829 122.109 146.857 122.345 146.871 122.622C147.577 122.123 148.312 122.067 148.991 122.469C149.864 122.982 150.377 124.312 150.612 125.823C151.222 125.213 151.929 124.88 152.649 125.102C154.118 125.546 154.548 128.539 154.672 130.271C154.672 130.299 154.672 130.354 154.686 130.423C155.531 129.869 156.418 129.8 157.139 130.285C159.328 131.767 155.448 139.735 154.645 141.315C154.589 141.467 154.451 141.551 154.298 141.551ZM153.896 132.557C153.481 133.319 153.356 134.068 153.605 134.456C153.758 134.151 153.855 133.444 153.896 132.557ZM149.989 128.317C149.254 129.966 149.185 131.324 149.434 131.629C149.67 131.338 149.975 130.132 149.989 128.317ZM145.984 125.116C145.388 126.349 145.097 127.763 145.305 128.442C145.554 127.887 145.831 126.488 145.984 125.116Z" fill="black"></path> <path d="M142.063 172.411C141.883 172.411 141.716 172.286 141.661 172.106L136.021 151.611C135.966 151.389 136.09 151.168 136.298 151.098L157.153 144.876C157.347 144.821 157.569 144.918 157.652 145.098L168.391 168.711C168.488 168.919 168.391 169.168 168.183 169.265C167.976 169.362 167.726 169.265 167.629 169.057L157.042 145.777L136.922 151.777L142.451 171.87C142.506 172.092 142.381 172.314 142.16 172.383C142.132 172.411 142.09 172.411 142.063 172.411Z" fill="black"></path> <path d="M138.862 151.195C138.654 151.195 138.488 151.043 138.447 150.849L137.768 146.539C137.74 146.331 137.865 146.123 138.072 146.068L154.174 141.952C154.368 141.911 154.576 142.008 154.659 142.202L156.017 145.486C156.101 145.694 156.004 145.943 155.796 146.026C155.588 146.11 155.338 146.013 155.255 145.805L154.036 142.853L138.654 146.775L139.264 150.71C139.306 150.932 139.139 151.154 138.918 151.181C138.904 151.195 138.876 151.195 138.862 151.195Z" fill="black"></path> <path d="M160.424 93.2034L153.689 86.9538L160.854 79.2354L163.625 81.8128L160.424 93.2034Z" fill="#2E3C45"></path> <path d="M179.754 100.547L180.544 97.7622L186.544 103.056C187.694 104.123 187.417 106.561 186.447 107.767L183.301 103.748L181.777 104.136L179.754 100.547Z" fill="#2E3C45"></path> <path d="M140.47 76.5052C145.429 76.5052 149.449 72.485 149.449 67.5258C149.449 62.5666 145.429 58.5464 140.47 58.5464C135.51 58.5464 131.49 62.5666 131.49 67.5258C131.49 72.485 135.51 76.5052 140.47 76.5052Z" fill="#2E3C45"></path> <path d="M144.177 80.3136L153.514 70.2437L149.368 66.3997L140.031 76.4697L144.177 80.3136Z" fill="#C0C0C0"></path> <path d="M152.054 88.7134L162.461 77.4891C163.265 76.6161 163.223 75.2581 162.35 74.4544L155.629 68.2187C154.756 67.415 153.398 67.4565 152.595 68.3295L142.188 79.5538C141.384 80.4268 141.426 81.7848 142.299 82.5885L149.019 88.8242C149.892 89.628 151.25 89.5725 152.054 88.7134Z" fill="#C0C0C0"></path> <path d="M164.623 107.905C164.526 107.905 164.443 107.878 164.359 107.808C164.179 107.67 159.981 104.233 158.401 100.686C156.793 97.069 158.65 92.219 158.733 92.0112C158.817 91.7894 159.052 91.6925 159.274 91.7756C159.482 91.8587 159.593 92.0943 159.509 92.316C159.496 92.3576 157.708 97.0552 159.163 100.353C160.66 103.72 164.831 107.143 164.872 107.171C165.052 107.309 165.08 107.573 164.928 107.753C164.872 107.85 164.747 107.905 164.623 107.905Z" fill="black"></path> <path d="M179.809 100.298C179.768 100.298 179.726 100.298 179.671 100.27C179.449 100.201 179.338 99.9655 179.407 99.7438C180.71 95.8499 181.985 90.0992 180.71 89.4895C180.031 89.1569 179.352 89.6004 178.853 90.2378C179.075 91.6097 179.283 93.7298 178.576 94.2009C178.465 94.2702 178.16 94.4227 177.772 94.1455C176.747 93.4249 177.01 91.6235 177.786 90.3071C177.842 90.2101 177.897 90.1131 177.952 90.0299C177.772 89.0045 177.495 87.8959 177.107 86.9259C176.664 85.8312 176.151 85.1245 175.735 85.0691C175.167 84.9721 174.654 85.5402 174.239 86.3439C174.35 86.8151 174.433 87.3001 174.488 87.7712C174.599 88.5749 174.89 91.2771 174.059 91.9145C173.851 92.0808 173.587 92.1085 173.338 91.9977C172.285 91.5681 172.354 89.4202 172.867 87.6188C172.992 87.1615 173.158 86.6904 173.366 86.2608C172.936 84.5009 172.243 83.2399 171.537 82.9489C171.343 82.8658 170.761 82.6302 170.04 83.5864C170.012 83.6279 169.971 83.6695 169.943 83.7111C170.192 85.8589 170.151 89.1015 169.403 89.5727C169.319 89.6142 168.904 89.8498 168.488 89.3232C167.657 88.2701 168.017 85.3047 169.098 83.4894C169.028 82.9905 168.945 82.5887 168.821 82.3531C168.46 81.6048 167.948 81.2307 167.463 81.2307C166.576 81.2445 165.55 82.2284 165.135 83.1568C164.428 84.7227 161.698 94.1317 161.67 94.2287C161.601 94.4504 161.379 94.5751 161.158 94.5197C160.936 94.4504 160.811 94.2287 160.867 94.0069C160.977 93.6189 163.638 84.4455 164.359 82.8242C164.885 81.6741 166.132 80.4269 167.435 80.4131C167.449 80.4131 167.449 80.4131 167.463 80.4131C168.086 80.4131 168.931 80.6902 169.555 82.0067C169.624 82.1591 169.694 82.3808 169.749 82.6441C170.373 82.0621 171.093 81.8958 171.828 82.1868C172.77 82.5748 173.463 83.8219 173.92 85.2769C174.433 84.5841 175.07 84.1545 175.832 84.2792C177.343 84.5148 178.202 87.3971 178.576 89.1015C178.59 89.1292 178.59 89.1847 178.604 89.2539C179.352 88.5888 180.225 88.3948 181.001 88.7689C183.384 89.9191 180.696 98.3581 180.128 100.049C180.142 100.187 179.976 100.298 179.809 100.298ZM178.174 91.4572C177.869 92.2609 177.856 93.0369 178.16 93.3834C178.257 93.0508 178.271 92.3441 178.174 91.4572ZM173.698 87.8267C173.213 89.5588 173.338 90.9168 173.629 91.1801C173.809 90.8614 173.948 89.6142 173.698 87.8267ZM169.264 85.2354C168.862 86.5379 168.765 87.9791 169.07 88.6304C169.236 88.0345 169.306 86.6072 169.264 85.2354Z" fill="black"></path> <path d="M178.3 146.636C178.133 146.636 177.981 146.539 177.926 146.387L163.237 112.894C163.14 112.686 163.237 112.451 163.445 112.354L183.191 103.194C183.371 103.111 183.607 103.166 183.718 103.346L191.464 115.402C191.589 115.596 191.533 115.859 191.339 115.97C191.145 116.095 190.882 116.04 190.771 115.846L183.219 104.095L164.179 112.936L178.688 146.054C178.785 146.262 178.688 146.511 178.48 146.595C178.411 146.622 178.355 146.636 178.3 146.636Z" fill="black"></path> <path d="M165.911 112.076C165.73 112.076 165.564 111.966 165.509 111.785L164.22 107.614C164.151 107.407 164.262 107.185 164.456 107.102L179.795 100.714C179.976 100.63 180.211 100.7 180.308 100.88L182.123 103.928C182.234 104.122 182.179 104.386 181.985 104.497C181.791 104.607 181.528 104.552 181.417 104.358L179.782 101.614L165.121 107.725L166.299 111.536C166.368 111.758 166.243 111.993 166.021 112.063C165.994 112.063 165.952 112.076 165.911 112.076Z" fill="black"></path> <path d="M34.422 94.7416L41.2397 88.5752L34.1587 80.7598L31.3457 83.2956L34.422 94.7416Z" fill="#2E3C45"></path> <path d="M14.9665 101.615L14.2043 98.8296L8.17646 104.262C6.9986 105.315 7.24803 107.754 8.20418 108.973L11.3497 104.788L12.6246 105.204L14.9665 101.615Z" fill="#2E3C45"></path> <path d="M54.6943 78.2792C59.6535 78.2792 63.6737 74.2589 63.6737 69.2997C63.6737 64.3405 59.6535 60.3203 54.6943 60.3203C49.7351 60.3203 45.7148 64.3405 45.7148 69.2997C45.7148 74.2589 49.7351 78.2792 54.6943 78.2792Z" fill="#2E3C45"></path> <path d="M55.0189 78.24L45.8086 68.0547L41.6152 71.8466L50.8256 82.032L55.0189 78.24Z" fill="#C0C0C0"></path> <path d="M42.8329 90.3349L32.5647 78.9859C31.7749 78.099 31.8303 76.7411 32.7172 75.9512L39.521 69.7986C40.4079 69.0088 41.7659 69.0642 42.5557 69.9511L52.8239 81.3C53.6137 82.1869 53.5583 83.5449 52.6714 84.3348L45.8676 90.4873C44.9946 91.2911 43.6366 91.2218 42.8329 90.3349Z" fill="#C0C0C0"></path> <path d="M30.0296 109.374C29.9049 109.374 29.7802 109.319 29.697 109.222C29.5584 109.042 29.5862 108.779 29.7663 108.64C29.8079 108.612 34.0343 105.245 35.5724 101.892C37.0829 98.6075 35.3507 93.896 35.3369 93.8545C35.2537 93.6328 35.3646 93.3972 35.5863 93.314C35.808 93.2447 36.0436 93.3418 36.1267 93.5635C36.2099 93.7713 37.9974 98.649 36.3484 102.238C34.7272 105.772 30.4869 109.153 30.3067 109.291C30.2097 109.347 30.1266 109.374 30.0296 109.374Z" fill="black"></path> <path d="M14.9518 101.573C14.7717 101.573 14.6054 101.462 14.55 101.282C14.0095 99.5915 11.4182 91.1248 13.8155 90.0024C14.6054 89.6282 15.4645 89.8361 16.2128 90.5151C16.2267 90.4458 16.2405 90.3904 16.2544 90.3627C16.6562 88.6721 17.5431 85.7898 19.0674 85.5819C19.8295 85.4711 20.467 85.9145 20.9658 86.6074C21.437 85.1524 22.1437 83.9191 23.0998 83.5449C23.8342 83.2539 24.541 83.4341 25.1645 84.0299C25.2338 83.7528 25.3031 83.5311 25.3724 83.3925C26.0237 82.0761 26.9244 81.8267 27.5202 81.8267C28.8228 81.8544 30.0561 83.1154 30.5688 84.2794C31.2755 85.9145 33.8252 95.1018 33.9222 95.5037C33.9777 95.7254 33.853 95.9609 33.6312 96.0164C33.4095 96.0857 33.174 95.9471 33.1185 95.7254C33.0908 95.6284 30.4857 86.1917 29.7928 84.6119C29.391 83.6835 28.3655 82.6858 27.4925 82.6581C26.9382 82.6719 26.481 83.0184 26.1207 83.7528C26.0098 83.9884 25.9128 84.4041 25.8297 84.9029C26.8135 86.6212 27.2708 89.6144 26.3701 90.7368C25.9544 91.2634 25.5248 91.0278 25.4555 90.9724C24.7072 90.5012 24.7072 87.2448 24.9844 85.0969C24.9567 85.0554 24.929 85.0138 24.8874 84.9722C24.1807 84.0161 23.5987 84.2378 23.4047 84.3209C22.698 84.5981 22.0051 85.8452 21.5478 87.6051C21.7418 88.0347 21.9081 88.5058 22.0328 88.9769C22.5178 90.7922 22.5594 92.9262 21.5062 93.3558C21.2568 93.4528 20.9935 93.4251 20.7857 93.2588C19.9542 92.6075 20.2868 89.9192 20.4115 89.1155C20.4808 88.6444 20.5778 88.1732 20.6887 87.6882C20.2868 86.8845 19.7602 86.3302 19.206 86.3995C18.7902 86.4549 18.2637 87.1478 17.8064 88.2425C17.4045 89.1987 17.1135 90.2934 16.9195 91.3188C16.975 91.4019 17.0304 91.4989 17.0858 91.5959C17.848 92.9262 18.0974 94.7277 17.0581 95.4344C16.6701 95.6977 16.3652 95.5452 16.2544 95.476C15.5477 94.991 15.7971 92.8847 16.0327 91.5128C15.5338 90.8754 14.8548 90.4181 14.1897 90.7368C12.9148 91.3327 14.1065 97.1111 15.3537 101.019C15.423 101.241 15.2982 101.476 15.0904 101.545C15.035 101.573 14.9934 101.573 14.9518 101.573ZM16.684 92.76C16.587 93.6468 16.587 94.3535 16.6701 94.6722C16.975 94.3119 16.975 93.5637 16.684 92.76ZM21.2152 89.1848C20.9381 90.9724 21.0628 92.2195 21.243 92.5382C21.534 92.2749 21.6725 90.9169 21.2152 89.1848ZM25.6634 86.6628C25.608 88.0069 25.6495 89.4065 25.802 90.0162C26.1068 89.3234 26.0375 87.9238 25.6634 86.6628Z" fill="black"></path> <path d="M15.8806 147.925C15.8252 147.925 15.7697 147.912 15.7143 147.884C15.5065 147.787 15.4095 147.537 15.5065 147.33L30.4306 114.391L11.5017 105.329L3.79718 116.982C3.67246 117.176 3.40918 117.232 3.21518 117.093C3.02118 116.969 2.96575 116.705 3.10432 116.511L11.0029 104.553C11.1137 104.372 11.3493 104.317 11.5295 104.4L31.1512 113.809C31.359 113.906 31.4422 114.156 31.3452 114.35L16.2547 147.662C16.1855 147.842 16.0469 147.925 15.8806 147.925Z" fill="black"></path> <path d="M28.698 113.532C28.6565 113.532 28.6149 113.532 28.5733 113.518C28.3516 113.448 28.2408 113.213 28.31 112.991L29.5295 109.194L14.9518 102.903L13.2889 105.619C13.1642 105.813 12.9148 105.882 12.7208 105.758C12.5268 105.633 12.4575 105.384 12.5822 105.19L14.439 102.155C14.5499 101.975 14.7716 101.905 14.9656 101.989L30.2223 108.571C30.4163 108.654 30.5133 108.876 30.4579 109.083L29.1138 113.241C29.0306 113.407 28.8643 113.532 28.698 113.532Z" fill="black"></path> <path d="M51.4105 80.1638C51.2997 80.1638 51.1888 80.1222 51.1057 80.0252L43.6921 71.8356C43.5397 71.6693 43.5535 71.4061 43.7198 71.2536C43.8861 71.1012 44.1494 71.1151 44.3018 71.2813L51.7154 79.4709C51.8678 79.6372 51.854 79.9005 51.6877 80.0529C51.6045 80.1222 51.5075 80.1638 51.4105 80.1638Z" fill="black"></path> <path d="M76.865 116.137C76.7819 116.137 76.6849 116.109 76.6156 116.053L67.941 109.43C67.7609 109.291 67.7193 109.028 67.8579 108.848C67.9964 108.668 68.2597 108.626 68.4399 108.765L77.1144 115.388C77.2946 115.527 77.3362 115.79 77.1976 115.97C77.1144 116.081 76.9897 116.137 76.865 116.137Z" fill="black"></path> <path d="M122.081 114.335C121.957 114.335 121.846 114.28 121.763 114.183C121.624 114.003 121.652 113.74 121.818 113.601L129.924 107.06C130.105 106.922 130.368 106.95 130.506 107.116C130.645 107.282 130.617 107.559 130.451 107.698L122.345 114.238C122.261 114.308 122.178 114.335 122.081 114.335Z" fill="black"></path> <path d="M143.684 78.362C143.587 78.362 143.477 78.3204 143.407 78.2511C143.241 78.0987 143.227 77.8354 143.38 77.6691L150.765 69.7013C150.918 69.535 151.181 69.5211 151.347 69.6736C151.514 69.826 151.528 70.0893 151.375 70.2556L143.989 78.2234C143.906 78.3066 143.795 78.362 143.684 78.362Z" fill="black"></path> <path d="M76.8646 169.736C76.8092 169.736 76.7399 169.722 76.6845 169.694C76.4766 169.597 76.3935 169.348 76.5043 169.14L84.7771 152.581C84.8463 152.442 84.9988 152.345 85.1512 152.345H121.554C121.706 152.345 121.859 152.428 121.928 152.581L129.397 167.63C129.494 167.838 129.411 168.087 129.203 168.184C129.009 168.281 128.746 168.198 128.649 167.99L121.291 153.163H85.4006L77.2388 169.5C77.1695 169.639 77.0171 169.736 76.8646 169.736Z" fill="black"></path> </svg> 