<svg width="24" height="24" viewBox="0 0 24 24" fill="none" xmlns="http://www.w3.org/2000/svg">
<path d="M7.88313 13.3775L10.1054 15.5774C10.5387 16.007 11.2386 16.007 11.672 15.5774L16.1165 11.1775C16.5554 10.7479 16.5554 10.0516 16.1165 9.62209C15.6832 9.19254 14.9833 9.19254 14.5499 9.62209L10.8887 13.2444L9.44973 11.8221C9.01639 11.3925 8.31647 11.3925 7.88313 11.8221C7.44423 12.2516 7.44423 12.9479 7.88313 13.3775Z" fill="#323942"/>
<path fill-rule="evenodd" clip-rule="evenodd" d="M11.9948 21.9999L14.1704 21.1707C17.7803 19.6349 20.3252 16.3244 20.8813 12.441C20.9635 11.8669 21.0047 11.2876 21.0047 10.7076V6.44575C21.0047 5.86345 20.5606 5.18609 19.7738 5.18609H18.6121C16.4882 5.18609 14.4294 4.17827 12.9155 2.41793C12.434 1.85809 11.5661 1.85809 11.0846 2.41793C9.57073 4.17827 7.51191 5.18609 5.38801 5.18609H4.2263C3.43952 5.18609 2.99536 5.86346 2.99536 6.44575V10.5335C2.99536 11.2383 3.05527 11.9418 3.17445 12.6365C3.82349 16.4198 6.33218 19.6228 9.84979 21.1593L11.9948 21.9999ZM5.38801 7.18609C7.87139 7.18609 10.2104 6.13141 12 4.36571C13.7897 6.13141 16.1287 7.18609 18.6121 7.18609H19.0047V10.7076C19.0047 11.1928 18.9702 11.6773 18.9015 12.1575C18.4463 15.3364 16.3692 18.048 13.4207 19.3161L12.0048 19.8558L10.6169 19.3119C7.73373 18.0392 5.67881 15.4062 5.14565 12.2984C5.04564 11.7154 4.99536 11.125 4.99536 10.5335V7.18609H5.38801Z" fill="#323942"/>
</svg>
