<svg width="24" height="24" viewBox="0 0 24 24" fill="none" xmlns="http://www.w3.org/2000/svg">
<path fill-rule="evenodd" clip-rule="evenodd" d="M12.0001 9.00004C13.6551 9.00004 15.0001 10.3451 15.0001 12.0001C15.0001 13.6551 13.6551 15.0001 12.0001 15.0001C10.3451 15.0001 9.00004 13.6551 9.00004 12.0001C9.00004 10.3451 10.3451 9.00004 12.0001 9.00004Z" fill="#323942"/>
<path fill-rule="evenodd" clip-rule="evenodd" d="M4.06183 13C4.51273 16.6201 7.37999 19.4874 11.0001 19.9383V22.0002C11.0001 22.5502 11.4501 23.0002 12.0001 23.0002C12.5501 23.0002 13.0001 22.5502 13.0001 22.0002V19.9383C16.6201 19.4873 19.4873 16.6201 19.9382 13H22C22.55 13 23 12.55 23 12C23 11.45 22.55 11.0001 22 11.0001H19.9382C19.4872 7.38003 16.6201 4.5128 13.0001 4.06184V2.00002C13.0001 1.45001 12.5501 1 12.0001 1C11.4501 1 11.0001 1.45001 11.0001 2.00002V4.06183C7.38001 4.51274 4.51276 7.37999 4.06184 11.0001H2.00004C1.45002 11.0001 1 11.45 1 12C1 12.55 1.45002 13 2.00004 13H4.06183ZM11.9898 6.00003L12.0001 6.00009L12.0103 6.00003C13.6662 6.00281 15.1573 6.67229 16.245 7.75504C17.33 8.84505 18 10.3401 18 12.0001C18 13.6601 17.33 15.1551 16.245 16.2451C15.155 17.3301 13.66 18.0001 12 18.0001C10.34 18.0001 8.84501 17.3301 7.75501 16.2451C6.67337 15.1584 6.00416 13.6693 6.00003 12.0155L6.00015 12L6.00003 11.9846C6.00417 10.3308 6.67338 8.84166 7.75501 7.75504C8.84277 6.67226 10.3339 6.00278 11.9898 6.00003Z" fill="#323942"/>
</svg>
