<svg width="24" height="24" viewBox="0 0 24 24" fill="none" xmlns="http://www.w3.org/2000/svg">
<path fill-rule="evenodd" clip-rule="evenodd" d="M13.4932 10.2319C12.7536 10.7258 11.8841 10.9894 10.9946 10.9894C9.80267 10.9867 8.6603 10.5123 7.81746 9.67C6.97462 8.82766 6.49995 7.68595 6.49731 6.49469C6.49731 5.60573 6.76108 4.73672 7.25525 3.99757C7.74942 3.25843 8.45181 2.68234 9.27359 2.34214C10.0954 2.00195 10.9996 1.91294 11.872 2.08636C12.7444 2.25979 13.5457 2.68787 14.1747 3.31646C14.8037 3.94506 15.232 4.74594 15.4055 5.61782C15.5791 6.48971 15.49 7.39344 15.1496 8.21474C14.8092 9.03603 14.2328 9.73801 13.4932 10.2319ZM12.3827 4.41847C11.9718 4.14409 11.4888 3.99764 10.9946 3.99764C10.332 3.99764 9.69648 4.26072 9.22791 4.72901C8.75935 5.1973 8.49611 5.83243 8.49611 6.49469C8.49611 6.98856 8.64265 7.47134 8.91719 7.88198C9.19173 8.29261 9.58195 8.61267 10.0385 8.80167C10.495 8.99066 10.9974 9.04011 11.4821 8.94376C11.9667 8.84742 12.4119 8.60959 12.7613 8.26038C13.1108 7.91116 13.3487 7.46622 13.4451 6.98184C13.5415 6.49746 13.4921 5.99539 13.3029 5.53911C13.1138 5.08283 12.7936 4.69285 12.3827 4.41847Z" fill="#323942"/>
<path d="M6.04784 16.0337C7.35981 14.7225 9.13921 13.9858 10.9946 13.9858C11.2597 13.9858 11.5139 13.8806 11.7013 13.6933C11.8887 13.506 11.994 13.2519 11.994 12.987C11.994 12.7221 11.8887 12.4681 11.7013 12.2807C11.5139 12.0934 11.2597 11.9882 10.9946 11.9882C8.6091 11.9882 6.32129 12.9353 4.63447 14.6211C2.94765 16.307 2 18.5934 2 20.9776C2 21.2425 2.10531 21.4965 2.29273 21.6839C2.48016 21.8712 2.73434 21.9764 2.9994 21.9764C3.26446 21.9764 3.51866 21.8712 3.70609 21.6839C3.89351 21.4965 3.9988 21.2425 3.9988 20.9776C3.9988 19.1233 4.73587 17.3449 6.04784 16.0337Z" fill="#323942"/>
<path fill-rule="evenodd" clip-rule="evenodd" d="M21.6314 15.2785C21.7745 15.3985 21.881 15.5562 21.939 15.7338C22.0063 15.9168 22.0185 16.1156 21.9741 16.3055C21.9297 16.4954 21.8306 16.6682 21.6891 16.8025L19.9002 18.4805L20.3099 20.8177C20.3467 21.004 20.3295 21.197 20.2605 21.3739C20.1915 21.5508 20.0734 21.7043 19.9202 21.8166C19.7763 21.9183 19.6081 21.9802 19.4326 21.996C19.257 22.0117 19.0805 21.9809 18.9208 21.9065L16.772 20.7978L14.6233 21.8865C14.4802 21.9569 14.3231 21.9945 14.1636 21.9964C13.9508 21.9942 13.7442 21.9242 13.5739 21.7966C13.4189 21.6856 13.2989 21.5326 13.228 21.3556C13.1572 21.1786 13.1385 20.985 13.1742 20.7978L13.5839 18.4306L11.855 16.7326C11.7265 16.6045 11.6354 16.4438 11.5914 16.2678C11.5473 16.0919 11.5521 15.9072 11.6051 15.7338C11.663 15.5562 11.7696 15.3985 11.9127 15.2785C12.0558 15.1584 12.2297 15.0808 12.4147 15.0546L14.8032 14.7249L15.8726 12.5375C15.9564 12.3713 16.085 12.2318 16.2439 12.1347C16.4029 12.0376 16.5858 11.9869 16.772 11.9882C16.9594 11.9878 17.143 12.04 17.302 12.1389C17.4611 12.2378 17.5891 12.3794 17.6715 12.5475L18.7309 14.7249L21.1294 15.0546C21.3144 15.0808 21.4883 15.1584 21.6314 15.2785ZM17.9212 17.8116C17.97 17.6567 18.0558 17.5161 18.1712 17.4018L18.8408 16.7526L17.9313 16.6327C17.7684 16.6092 17.6139 16.5458 17.4814 16.4482C17.3489 16.3507 17.2425 16.2219 17.1718 16.0734L16.772 15.2543L16.3623 16.0833C16.2903 16.23 16.1834 16.3568 16.051 16.4526C15.9185 16.5483 15.7646 16.6102 15.6027 16.6327L14.7033 16.7526L15.3629 17.3918C15.4783 17.5061 15.5641 17.6468 15.6129 17.8017C15.6616 17.9566 15.6719 18.121 15.6427 18.2808L15.4928 19.1697L16.3123 18.7502C16.4544 18.6766 16.612 18.6382 16.772 18.6382C16.932 18.6382 17.0897 18.6766 17.2318 18.7502L18.0413 19.1697L17.8914 18.2907C17.8622 18.131 17.8724 17.9665 17.9212 17.8116Z" fill="#323942"/>
</svg>
