<svg width="24" height="24" viewBox="0 0 24 24" fill="none" xmlns="http://www.w3.org/2000/svg">
<path fill-rule="evenodd" clip-rule="evenodd" d="M15.0739 21.9972C15.0494 21.9991 15.0248 22 15.0001 22H7.00002C5.34501 21.9995 4 20.657 4 19V5C4 3.343 5.34501 2.0005 7.00002 2H17.0001C18.6551 2.0005 20.0001 3.343 20.0001 5V17C20.0001 17.0167 19.9997 17.0333 19.9989 17.0499C19.9939 17.1519 19.9734 17.2511 19.9388 17.3448C19.8832 17.4956 19.7922 17.6293 19.6761 17.736L15.7375 21.6746C15.5699 21.8575 15.3355 21.978 15.0739 21.9972ZM14 20V18C14 16.895 14.895 16.0005 16 16H18.0001V5C18.0001 4.7205 17.8901 4.477 17.7051 4.293C17.5251 4.1105 17.2801 4.0005 17.0001 4H7.00002C6.72002 4.0005 6.47506 4.1105 6.29506 4.293C6.11006 4.477 6.00002 4.7205 6.00002 5V19C6.00002 19.2795 6.11006 19.523 6.29506 19.707C6.47506 19.8895 6.72002 19.9995 7.00002 20H14Z" fill="#323942"/>
<path d="M15 9H9C8.45 9 8 8.5525 8 8C8 7.4475 8.45 7 9 7H15C15.55 7 16 7.4475 16 8C16 8.5525 15.55 9 15 9Z" fill="#323942"/>
<path d="M9 13.0001H15C15.55 13.0001 16 12.5525 16 12C16 11.4475 15.55 11 15 11H9C8.45 11 8 11.4475 8 12C8 12.5525 8.45 13.0001 9 13.0001Z" fill="#323942"/>
<path d="M12 17H9C8.45 17 8 16.5525 8 16C8 15.4475 8.45 15 9 15H12C12.55 15 13 15.4475 13 16C13 16.5525 12.55 17 12 17Z" fill="#323942"/>
</svg>
