<svg width="24" height="24" viewBox="0 0 24 24" fill="none" xmlns="http://www.w3.org/2000/svg">
<path fill-rule="evenodd" clip-rule="evenodd" d="M2 5.5C2 3.567 3.567 2 5.5 2C7.433 2 9 3.567 9 5.5C9 7.433 7.433 9 5.5 9C3.567 9 2 7.433 2 5.5ZM5.5 4C4.67157 4 4 4.67157 4 5.5C4 6.32843 4.67157 7 5.5 7C6.32843 7 7 6.32843 7 5.5C7 4.67157 6.32843 4 5.5 4Z" fill="#323942"/>
<path d="M17.5001 10V10C17.1288 10 16.8456 10.3138 16.8456 10.685V11.3854C16.8456 11.7332 17.1523 12 17.5001 12V12C19.9304 12 21.5614 13.6964 21.9237 16.0037C22.0094 16.5493 22.4477 17 23 17V17C23.5523 17 24.0065 16.5506 23.9394 16.0024C23.5474 12.7953 21.2658 10 17.5001 10Z" fill="#323942"/>
<path d="M12.0001 15C8.23435 15 5.95261 17.7953 5.56056 21.0024C5.49354 21.5506 5.94772 22 6.5 22V22C7.05228 22 7.49062 21.5493 7.57631 21.0037C7.93867 18.6964 9.56973 17 12.0001 17C14.4304 17 16.0614 18.6964 16.4237 21.0037C16.5094 21.5493 16.9477 22 17.5 22V22C18.0523 22 18.5065 21.5506 18.4394 21.0024C18.0474 17.7953 15.7658 15 12.0001 15Z" fill="#323942"/>
<path fill-rule="evenodd" clip-rule="evenodd" d="M18.5 2C16.567 2 15 3.567 15 5.5C15 7.433 16.567 9 18.5 9C20.433 9 22 7.433 22 5.5C22 3.567 20.433 2 18.5 2ZM17 5.5C17 4.67157 17.6716 4 18.5 4C19.3284 4 20 4.67157 20 5.5C20 6.32843 19.3284 7 18.5 7C17.6716 7 17 6.32843 17 5.5Z" fill="#323942"/>
<path fill-rule="evenodd" clip-rule="evenodd" d="M8.5 10.5C8.5 8.567 10.067 7 12 7C13.933 7 15.5 8.567 15.5 10.5C15.5 12.433 13.933 14 12 14C10.067 14 8.5 12.433 8.5 10.5ZM12 9C11.1716 9 10.5 9.67157 10.5 10.5C10.5 11.3284 11.1716 12 12 12C12.8284 12 13.5 11.3284 13.5 10.5C13.5 9.67157 12.8284 9 12 9Z" fill="#323942"/>
<path d="M6.49993 10V10C6.8712 10 7.1544 10.3138 7.1544 10.685V11.3854C7.1544 11.7332 6.84774 12 6.49993 12V12C4.06962 12 2.43864 13.6964 2.0763 16.0037C1.99062 16.5493 1.55228 17 1 17V17C0.447715 17 -0.00645578 16.5506 0.060556 16.0024C0.452586 12.7953 2.73418 10 6.49993 10Z" fill="#323942"/>
</svg>
