<svg width="24" height="24" viewBox="0 0 24 24" fill="none" xmlns="http://www.w3.org/2000/svg">
<path fill-rule="evenodd" clip-rule="evenodd" d="M12 2C12.3994 2 12.7605 2.23765 12.9184 2.60447L15.3404 8.22856C15.3694 8.29579 15.4327 8.34184 15.5056 8.3486L21.6029 8.9141C22.0006 8.95099 22.3382 9.22097 22.4616 9.60081C22.585 9.98066 22.4706 10.3975 22.1705 10.6611L17.5701 14.7025C17.5152 14.7508 17.4909 14.8253 17.507 14.8967L18.8534 20.8703C18.9412 21.2599 18.7887 21.6644 18.4656 21.8992C18.1425 22.1339 17.7107 22.1539 17.3673 21.95L12.1021 18.8236C12.0392 18.7863 11.9608 18.7863 11.8979 18.8236L6.63269 21.95C6.28928 22.1539 5.85746 22.1339 5.53435 21.8992C5.21123 21.6644 5.05879 21.2599 5.1466 20.8703L6.49293 14.8967C6.50903 14.8253 6.48482 14.7508 6.42982 14.7025L1.82943 10.6611C1.52938 10.3975 1.41494 9.98066 1.53836 9.60081C1.66178 9.22097 1.99938 8.95099 2.39707 8.9141L8.49433 8.3486C8.56722 8.34184 8.63059 8.29579 8.65955 8.22856L11.0815 2.60447C11.2395 2.23765 11.6006 2 12 2ZM12.1837 5.95482C12.1143 5.79363 11.8857 5.79362 11.8163 5.95482L10.2146 9.67405C10.0699 10.0102 9.75298 10.2404 9.38852 10.2742L5.35638 10.6482C5.18163 10.6644 5.111 10.8818 5.24286 10.9976L8.28511 13.6702C8.5601 13.9118 8.68113 14.2843 8.60066 14.6413L7.71032 18.5917C7.67173 18.7629 7.85663 18.8972 8.00754 18.8076L11.4894 16.7402C11.8041 16.5533 12.1958 16.5533 12.5105 16.7402L15.9924 18.8076C16.1433 18.8972 16.3282 18.7629 16.2896 18.5917L15.3993 14.6413C15.3188 14.2843 15.4399 13.9118 15.7149 13.6702L18.7571 10.9976C18.889 10.8818 18.8183 10.6644 18.6436 10.6482L14.6114 10.2742C14.247 10.2404 13.9301 10.0102 13.7853 9.67405L12.1837 5.95482Z" fill="#323942"/>
</svg>
