<svg width="24" height="24" viewBox="0 0 24 24" fill="none" xmlns="http://www.w3.org/2000/svg">
<path fill-rule="evenodd" clip-rule="evenodd" d="M7.47619 4.91193C5.50962 4.91193 3.90476 6.52439 3.90476 8.52667C3.90476 9.7984 4.64811 11.11 5.82099 12.4723C7.73195 14.692 9.94472 17.0115 12 18.9155C14.0553 17.0115 16.2681 14.692 18.179 12.4723C19.3519 11.11 20.0952 9.7984 20.0952 8.52667C20.0952 6.52439 18.4904 4.91193 16.5238 4.91193C15.6741 4.91193 14.8954 5.21109 14.2816 5.71288C13.634 6.24236 13.2937 6.62275 13.1045 6.85587C13.0557 6.91602 13.0146 6.96936 12.9769 7.01881C12.9703 7.02741 12.9633 7.03672 12.9559 7.04648C12.9264 7.08535 12.8914 7.13138 12.8614 7.16884C12.8291 7.20928 12.7559 7.30014 12.6571 7.38296C12.5575 7.46641 12.3196 7.63738 11.9707 7.63049C11.626 7.62369 11.397 7.44718 11.3045 7.36569C11.2105 7.28297 11.1406 7.19314 11.1095 7.15304C11.0601 7.08921 11.0337 7.05305 11.0089 7.01893C10.9769 6.97504 10.9474 6.93452 10.8744 6.84286C10.6904 6.61204 10.3572 6.23521 9.71836 5.71288C9.10462 5.21109 8.3259 4.91193 7.47619 4.91193ZM2 8.52667C2 5.4803 4.4459 3 7.47619 3C8.78112 3 9.98112 3.46181 10.9213 4.23047C11.3938 4.6168 11.7392 4.94889 11.9973 5.22631C12.257 4.95022 12.6044 4.6183 13.0787 4.23047C14.0189 3.46181 15.2189 3 16.5238 3C19.5541 3 22 5.4803 22 8.52667C22 10.5184 20.861 12.2813 19.6202 13.7224C17.5659 16.1087 15.1663 18.6129 12.9567 20.6287C12.4139 21.1238 11.5861 21.1238 11.0433 20.6287C8.8337 18.6129 6.43414 16.1087 4.37979 13.7224C3.13905 12.2813 2 10.5184 2 8.52667Z" fill="#323942"/>
</svg>
