<svg width="25" height="24" viewBox="0 0 25 24" fill="none" xmlns="http://www.w3.org/2000/svg">
<path fill-rule="evenodd" clip-rule="evenodd" d="M6.16669 6C6.16669 4.34315 7.50983 3 9.16669 3C10.8235 3 12.1667 4.34315 12.1667 6C12.1667 7.65685 10.8235 9 9.16669 9C7.50983 9 6.16669 7.65685 6.16669 6ZM9.16669 5C8.6144 5 8.16669 5.44772 8.16669 6C8.16669 6.55228 8.6144 7 9.16669 7C9.71897 7 10.1667 6.55228 10.1667 6C10.1667 5.44772 9.71897 5 9.16669 5Z" fill="#323942"/>
<path fill-rule="evenodd" clip-rule="evenodd" d="M13.1667 6C13.1667 4.34315 14.5098 3 16.1667 3C17.8235 3 19.1667 4.34315 19.1667 6C19.1667 7.65685 17.8235 9 16.1667 9C14.5098 9 13.1667 7.65685 13.1667 6ZM16.1667 5C15.6144 5 15.1667 5.44772 15.1667 6C15.1667 6.55228 15.6144 7 16.1667 7C16.719 7 17.1667 6.55228 17.1667 6C17.1667 5.44772 16.719 5 16.1667 5Z" fill="#323942"/>
<path fill-rule="evenodd" clip-rule="evenodd" d="M1.16669 11C1.16669 9.34315 2.50983 8 4.16669 8C5.82354 8 7.16669 9.34315 7.16669 11C7.16669 12.6569 5.82354 14 4.16669 14C2.50983 14 1.16669 12.6569 1.16669 11ZM4.16669 10C3.6144 10 3.16669 10.4477 3.16669 11C3.16669 11.5523 3.6144 12 4.16669 12C4.71897 12 5.16669 11.5523 5.16669 11C5.16669 10.4477 4.71897 10 4.16669 10Z" fill="#323942"/>
<path fill-rule="evenodd" clip-rule="evenodd" d="M12.6666 10C10.1106 10 8.34423 11.9087 7.3972 13.8028C6.9116 14.774 6.59609 15.8189 6.4718 16.7777C6.35175 17.7038 6.3926 18.688 6.7722 19.4472C7.12103 20.1449 7.6385 20.6294 8.33608 20.8114C8.96463 20.9753 9.58762 20.8483 10.0663 20.7115C10.3172 20.6398 10.5692 20.5526 10.8022 20.4703L10.9232 20.4275C11.1184 20.3584 11.302 20.2934 11.4892 20.233C11.942 20.0869 12.3238 20 12.6666 20C13.0095 20 13.3913 20.0869 13.844 20.233C14.0312 20.2934 14.2149 20.3584 14.41 20.4275L14.5311 20.4703C14.7641 20.5526 15.016 20.6398 15.2669 20.7115C15.7456 20.8483 16.3686 20.9753 16.9972 20.8114C17.6947 20.6294 18.2122 20.1449 18.5611 19.4472C18.9407 18.688 18.9815 17.7038 18.8615 16.7777C18.7372 15.8189 18.4216 14.774 17.936 13.8028C16.989 11.9087 15.2227 10 12.6666 10ZM8.56105 18.5528C8.44065 18.312 8.3565 17.7962 8.4552 17.0348C8.54966 16.3061 8.79666 15.476 9.18606 14.6972C9.98903 13.0913 11.2227 12 12.6666 12C14.1106 12 15.3442 13.0913 16.1472 14.6972C16.5366 15.476 16.7836 16.3061 16.878 17.0348C16.9768 17.7962 16.8926 18.312 16.7722 18.5528C16.6268 18.8437 16.5217 18.869 16.4951 18.8754L16.4923 18.8761C16.4021 18.8997 16.2126 18.9017 15.8164 18.7885C15.6298 18.7352 15.4286 18.6662 15.1967 18.5844L15.0852 18.5449C14.8899 18.4757 14.6748 18.3995 14.458 18.3295C13.942 18.1631 13.3238 18 12.6666 18C12.0095 18 11.3912 18.1631 10.8752 18.3295C10.6584 18.3995 10.4434 18.4757 10.248 18.5449L10.1365 18.5844C9.90468 18.6662 9.7035 18.7352 9.5169 18.7885C9.12062 18.9017 8.93111 18.8997 8.84092 18.8761L8.83814 18.8754C8.81153 18.869 8.70649 18.8437 8.56105 18.5528Z" fill="#323942"/>
<path fill-rule="evenodd" clip-rule="evenodd" d="M21.1667 8C19.5098 8 18.1667 9.34315 18.1667 11C18.1667 12.6569 19.5098 14 21.1667 14C22.8235 14 24.1667 12.6569 24.1667 11C24.1667 9.34315 22.8235 8 21.1667 8ZM20.1667 11C20.1667 10.4477 20.6144 10 21.1667 10C21.719 10 22.1667 10.4477 22.1667 11C22.1667 11.5523 21.719 12 21.1667 12C20.6144 12 20.1667 11.5523 20.1667 11Z" fill="#323942"/>
</svg>
