<svg width="22" height="16" viewBox="0 0 22 16" fill="none" xmlns="http://www.w3.org/2000/svg">
<path fill-rule="evenodd" clip-rule="evenodd" d="M8.99998 -0.00012207C8.4477 -0.00012207 7.99998 0.447593 7.99998 0.999878V4.37206C7.99998 5.23605 7.74424 6.08072 7.26498 6.79961C6.68528 7.66915 6.2956 8.64561 6.11516 9.6654L0.701965 12.7907L1.70197 14.5228L5.99998 12.0413V14.9999C5.99998 15.5522 6.4477 15.9999 6.99998 15.9999H15C15.5523 15.9999 16 15.5522 16 14.9999V10.9776C16 9.54804 15.5932 8.14923 14.8288 6.94395L21.2979 3.20905L20.2979 1.477L14.0576 5.07983C14.0194 4.84686 14 4.61019 14 4.37206V0.999878C14 0.447593 13.5523 -0.00012207 13 -0.00012207H8.99998ZM12.2459 6.12581C12.0836 5.55854 12 4.96846 12 4.37206V1.99988H9.99998V4.37206C9.99998 5.6309 9.62736 6.86158 8.92908 7.90901C8.88344 7.97747 8.8394 8.04684 8.79698 8.11705L12.2459 6.12581ZM8.00074 10.8862C8.00023 10.9166 7.99998 10.9471 7.99998 10.9776V13.9999H14V10.9776C14 9.89989 13.6852 8.84597 13.0948 7.94513L8.00074 10.8862Z" fill="#323942"/>
</svg>
