<svg width="25" height="24" viewBox="0 0 25 24" fill="none" xmlns="http://www.w3.org/2000/svg">
<path fill-rule="evenodd" clip-rule="evenodd" d="M6.33334 11C6.33334 9.34315 7.67649 8 9.33334 8C10.9902 8 12.3333 9.34315 12.3333 11C12.3333 11.9356 11.9051 12.7712 11.2338 13.3213C12.3263 13.7278 13.0964 14.4978 13.2872 15.5027C13.3388 15.774 13.1095 16 12.8333 16H11.8333C11.5572 16 11.3087 15.7616 11.1239 15.5564C10.8788 15.2844 10.3668 15 9.33334 15C8.29993 15 7.78785 15.2844 7.5428 15.5564C7.35797 15.7616 7.10949 16 6.83334 16H5.83334C5.5572 16 5.32791 15.774 5.37944 15.5027C5.57033 14.4978 6.34038 13.7278 7.43285 13.3213C6.76163 12.7712 6.33334 11.9356 6.33334 11ZM9.33334 10C8.78106 10 8.33334 10.4477 8.33334 11C8.33334 11.5523 8.78106 12 9.33334 12C9.88563 12 10.3333 11.5523 10.3333 11C10.3333 10.4477 9.88563 10 9.33334 10Z" fill="#323942"/>
<path d="M14.3333 10C14.3333 10.5523 14.7811 11 15.3333 11H17.3333C17.8856 11 18.3333 10.5523 18.3333 10C18.3333 9.44772 17.8856 9 17.3333 9H15.3333C14.7811 9 14.3333 9.44772 14.3333 10Z" fill="#323942"/>
<path d="M18.3333 14C18.3333 14.5523 17.8856 15 17.3333 15H15.3333C14.7811 15 14.3333 14.5523 14.3333 14C14.3333 13.4477 14.7811 13 15.3333 13H17.3333C17.8856 13 18.3333 13.4477 18.3333 14Z" fill="#323942"/>
<path fill-rule="evenodd" clip-rule="evenodd" d="M2.33334 7C2.33334 5.34315 3.67649 4 5.33334 4H19.3333C20.9902 4 22.3333 5.34315 22.3333 7V17C22.3333 18.6569 20.9902 20 19.3333 20H5.33334C3.67649 20 2.33334 18.6569 2.33334 17V7ZM5.33334 6C4.78106 6 4.33334 6.44772 4.33334 7V17C4.33334 17.5523 4.78106 18 5.33334 18H19.3333C19.8856 18 20.3333 17.5523 20.3333 17V7C20.3333 6.44772 19.8856 6 19.3333 6H5.33334Z" fill="#323942"/>
</svg>
