<svg width="25" height="24" viewBox="0 0 25 24" fill="none" xmlns="http://www.w3.org/2000/svg">
<path d="M20.8315 9.15012C20.6209 7.17895 19.6859 5.35617 18.2078 4.03513C16.7297 2.7141 14.8138 1.98891 12.8315 2.00013H11.8315C9.84909 1.98891 7.93319 2.7141 6.45511 4.03513C4.97703 5.35617 4.04205 7.17895 3.83145 9.15012C3.23487 9.34971 2.71621 9.73181 2.34866 10.2423C1.98111 10.7529 1.78336 11.366 1.78336 11.9951C1.78336 12.6242 1.98111 13.2374 2.34866 13.7479C2.71621 14.2584 3.23487 14.6405 3.83145 14.8401C4.03973 16.8131 4.97374 18.6383 6.45206 19.9614C7.93038 21.2845 9.84754 22.0111 11.8315 22.0001H12.8315C14.8154 22.0111 16.7326 21.2845 18.211 19.9614C19.6893 18.6383 20.6232 16.8131 20.8315 14.8401C21.428 14.6405 21.9468 14.2584 22.3144 13.7479C22.6819 13.2374 22.8797 12.6242 22.8797 11.9951C22.8797 11.366 22.6819 10.7529 22.3144 10.2423C21.9468 9.73181 21.428 9.34971 20.8315 9.15012ZM19.8315 13.0001C19.5662 13.0001 19.312 13.1055 19.1244 13.293C18.9369 13.4805 18.8315 13.7349 18.8315 14.0001C18.8315 15.5914 18.1993 17.1176 17.0741 18.2428C15.9489 19.368 14.4228 20.0001 12.8315 20.0001H11.8315C10.2402 20.0001 8.71412 19.368 7.5889 18.2428C6.46368 17.1176 5.83145 15.5914 5.83145 14.0001C5.83145 13.7349 5.72614 13.4805 5.5386 13.293C5.35107 13.1055 5.09667 13.0001 4.83145 13.0001C4.56623 13.0001 4.31196 12.8948 4.12442 12.7072C3.93688 12.5197 3.83145 12.2653 3.83145 12.0001C3.83145 11.7349 3.93688 11.4805 4.12442 11.293C4.31196 11.1055 4.56623 11.0001 4.83145 11.0001C5.09667 11.0001 5.35107 10.8948 5.5386 10.7072C5.72614 10.5197 5.83145 10.2653 5.83145 10.0001C5.83175 9.03971 6.06267 8.09339 6.50467 7.24073C6.94666 6.38806 7.58685 5.65394 8.37149 5.1001C8.36114 5.23324 8.36114 5.367 8.37149 5.50013C8.37149 6.42839 8.74026 7.3186 9.39664 7.97498C10.053 8.63136 10.9432 9.00013 11.8715 9.00013C12.4142 8.99631 12.9487 8.86813 13.4341 8.62543C13.9195 8.38273 14.3429 8.03196 14.6715 7.6001C14.8307 7.38793 14.899 7.12126 14.8615 6.85871C14.824 6.59616 14.6836 6.35924 14.4715 6.20011C14.3664 6.12132 14.2469 6.064 14.1197 6.03141C13.9924 5.99882 13.86 5.9916 13.73 6.01017C13.6 6.02874 13.475 6.07275 13.362 6.13965C13.249 6.20656 13.1502 6.29506 13.0714 6.40012C12.918 6.60467 12.715 6.7666 12.4814 6.87055C12.2478 6.9745 11.9914 7.01702 11.7367 6.99406C11.4821 6.97109 11.2376 6.88342 11.0264 6.73936C10.8152 6.59529 10.6442 6.39963 10.5298 6.17094C10.4155 5.94224 10.3615 5.68811 10.373 5.43268C10.3844 5.17726 10.4611 4.92902 10.5955 4.71152C10.7299 4.49402 10.9177 4.31449 11.141 4.18998C11.3643 4.06547 11.6158 4.00013 11.8715 4.00013H12.8715C14.4628 4.00013 15.9889 4.63226 17.1142 5.75748C18.2394 6.8827 18.8715 8.40883 18.8715 10.0001C18.8715 10.2653 18.9768 10.5197 19.1643 10.7072C19.3519 10.8948 19.6063 11.0001 19.8715 11.0001C20.1367 11.0001 20.3911 11.1055 20.5786 11.293C20.7662 11.4805 20.8715 11.7349 20.8715 12.0001C20.8715 12.2653 20.7662 12.5197 20.5786 12.7072C20.3911 12.8948 20.1367 13.0001 19.8715 13.0001H19.8315ZM9.83145 13.0001C9.66804 13.0152 9.50328 12.996 9.34769 12.9439C9.1921 12.8917 9.04915 12.8076 8.92789 12.697C8.80663 12.5864 8.70974 12.4518 8.64346 12.3017C8.57719 12.1515 8.543 11.9892 8.543 11.8251C8.543 11.661 8.57719 11.4987 8.64346 11.3486C8.70974 11.1984 8.80663 11.0638 8.92789 10.9532C9.04915 10.8426 9.1921 10.7586 9.34769 10.7064C9.50328 10.6542 9.66804 10.635 9.83145 10.6501C10.1244 10.6772 10.3967 10.8127 10.5949 11.03C10.7931 11.2474 10.903 11.5309 10.903 11.8251C10.903 12.1193 10.7931 12.4029 10.5949 12.6202C10.3967 12.8376 10.1244 12.9731 9.83145 13.0001ZM16.0015 11.8201C16.0035 12.0543 15.9357 12.2839 15.8068 12.4794C15.6779 12.675 15.4938 12.8278 15.2777 12.9183C15.0617 13.0089 14.8236 13.0331 14.5938 12.9879C14.364 12.9427 14.1527 12.8301 13.9871 12.6645C13.8215 12.4988 13.7089 12.2877 13.6637 12.0578C13.6185 11.828 13.6428 11.5899 13.7333 11.3739C13.8239 11.1579 13.9766 10.9737 14.1721 10.8448C14.3677 10.7159 14.5972 10.6481 14.8315 10.6501C14.9893 10.6434 15.1468 10.6686 15.2946 10.7244C15.4424 10.7802 15.5773 10.8653 15.6913 10.9746C15.8053 11.0839 15.896 11.2152 15.9579 11.3605C16.0198 11.5058 16.0517 11.6622 16.0515 11.8201H16.0015ZM15.2315 15.2501C15.4287 15.4267 15.5479 15.6743 15.5629 15.9386C15.5779 16.2029 15.4875 16.4624 15.3114 16.6601C14.9361 17.0858 14.4744 17.4266 13.9572 17.6601C13.4399 17.8936 12.8789 18.0144 12.3114 18.0144C11.7439 18.0144 11.1829 17.8936 10.6657 17.6601C10.1484 17.4266 9.6868 17.0858 9.31143 16.6601C9.13418 16.4637 9.04209 16.2049 9.05521 15.9406C9.06833 15.6764 9.18566 15.4281 9.3815 15.2501C9.47965 15.1614 9.59441 15.0931 9.71915 15.0491C9.84389 15.0051 9.97611 14.9862 10.1082 14.9937C10.2403 15.0011 10.3695 15.0347 10.4886 15.0924C10.6076 15.1502 10.714 15.231 10.8015 15.3301C10.9941 15.5347 11.2266 15.6978 11.4845 15.8092C11.7425 15.9207 12.0205 15.9782 12.3015 15.9782C12.5826 15.9782 12.8605 15.9207 13.1184 15.8092C13.3764 15.6978 13.6089 15.5347 13.8015 15.3301C13.8896 15.2217 13.9993 15.133 14.1237 15.0696C14.2481 15.0062 14.3843 14.9695 14.5237 14.962C14.6631 14.9545 14.8026 14.9762 14.9331 15.0259C15.0636 15.0755 15.1823 15.1519 15.2815 15.2501H15.2315Z" fill="#323942"/>
</svg>
