<svg width="25" height="24" viewBox="0 0 25 24" fill="none" xmlns="http://www.w3.org/2000/svg">
<path d="M3.39122 14.9C3.99122 15.6 4.79122 16 5.69122 16H10.2912V19.1C10.2912 20.7 11.5912 22 13.1912 22C14.2912 22 15.2912 21.4 15.6912 20.4L17.9912 16H21.6912C22.2912 16 22.6912 15.6 22.6912 15V3C22.6912 2.4 22.2912 2 21.6912 2H6.99122C5.49122 2 4.29122 3.1 3.99122 4.5L2.69122 12.5C2.59122 13.4 2.79122 14.3 3.39122 14.9ZM20.6912 4V14H18.2912V4H20.6912ZM5.99122 4.8C6.09122 4.3 6.49122 4 6.99122 4H16.2912V14.8L13.8912 19.6C13.7912 19.8 13.4912 20 13.1912 20C12.6912 20 12.2912 19.6 12.2912 19.1V15C12.2912 14.4 11.8912 14 11.2912 14H5.69122C5.39122 14 5.09122 13.9 4.89122 13.6C4.69122 13.4 4.69122 13.1 4.69122 12.8L5.99122 4.8Z" fill="#323942"/>
</svg>
