<svg width="672" height="44" viewBox="0 0 672 44" fill="none" xmlns="http://www.w3.org/2000/svg">
<path d="M121.267 16.752V34H117.875V16.752H121.267ZM119.603 10.192C120.115 10.192 120.563 10.3413 120.947 10.64C121.331 10.9387 121.523 11.44 121.523 12.144C121.523 12.8267 121.331 13.328 120.947 13.648C120.563 13.9467 120.115 14.096 119.603 14.096C119.048 14.096 118.579 13.9467 118.195 13.648C117.832 13.328 117.651 12.8267 117.651 12.144C117.651 11.44 117.832 10.9387 118.195 10.64C118.579 10.3413 119.048 10.192 119.603 10.192ZM135.33 16.432C137.335 16.432 138.871 16.9333 139.938 17.936C141.004 18.9387 141.538 20.5493 141.538 22.768V34H138.178V23.248C138.178 21.904 137.89 20.9013 137.314 20.24C136.759 19.5573 135.863 19.216 134.626 19.216C132.876 19.216 131.66 19.7387 130.978 20.784C130.316 21.8293 129.986 23.3333 129.986 25.296V34H126.594V16.752H129.282L129.762 19.056H129.954C130.338 18.4587 130.807 17.968 131.362 17.584C131.916 17.2 132.535 16.912 133.218 16.72C133.9 16.528 134.604 16.432 135.33 16.432ZM165.63 22.352C165.63 24.912 165.15 27.056 164.19 28.784C163.23 30.512 161.843 31.8133 160.03 32.688C158.238 33.5627 156.072 34 153.534 34H147.134V11.152H154.206C156.531 11.152 158.547 11.5787 160.254 12.432C161.96 13.2853 163.283 14.544 164.222 16.208C165.16 17.8507 165.63 19.8987 165.63 22.352ZM162.014 22.448C162.014 20.528 161.704 18.9493 161.086 17.712C160.467 16.4747 159.55 15.5573 158.334 14.96C157.139 14.3627 155.688 14.064 153.982 14.064H150.59V31.088H153.374C156.254 31.088 158.408 30.3627 159.838 28.912C161.288 27.4613 162.014 25.3067 162.014 22.448ZM178.731 16.432C179.029 16.432 179.36 16.4533 179.723 16.496C180.085 16.5173 180.384 16.5493 180.619 16.592L180.267 19.76C180.032 19.696 179.755 19.6427 179.435 19.6C179.115 19.5573 178.816 19.536 178.539 19.536C177.899 19.536 177.28 19.664 176.683 19.92C176.107 20.1547 175.584 20.5067 175.115 20.976C174.645 21.424 174.272 21.9787 173.995 22.64C173.739 23.3013 173.611 24.0587 173.611 24.912V34H170.219V16.752H172.907L173.355 19.824H173.483C173.845 19.2053 174.283 18.64 174.795 18.128C175.307 17.616 175.893 17.2107 176.555 16.912C177.216 16.592 177.941 16.432 178.731 16.432ZM187.204 16.752V34H183.812V16.752H187.204ZM185.54 10.192C186.052 10.192 186.5 10.3413 186.884 10.64C187.268 10.9387 187.46 11.44 187.46 12.144C187.46 12.8267 187.268 13.328 186.884 13.648C186.5 13.9467 186.052 14.096 185.54 14.096C184.986 14.096 184.516 13.9467 184.132 13.648C183.77 13.328 183.588 12.8267 183.588 12.144C183.588 11.44 183.77 10.9387 184.132 10.64C184.516 10.3413 184.986 10.192 185.54 10.192ZM196.403 34L189.875 16.752H193.459L197.043 26.832C197.192 27.2587 197.342 27.7387 197.491 28.272C197.662 28.8053 197.811 29.3173 197.939 29.808C198.067 30.2987 198.152 30.7253 198.195 31.088H198.323C198.387 30.7253 198.483 30.2987 198.611 29.808C198.76 29.296 198.92 28.784 199.091 28.272C199.262 27.7387 199.411 27.2587 199.539 26.832L203.123 16.752H206.707L200.147 34H196.403ZM216.159 16.432C217.673 16.432 218.975 16.752 220.063 17.392C221.151 18.0107 221.983 18.9067 222.559 20.08C223.156 21.2533 223.455 22.64 223.455 24.24V26.096H211.871C211.913 27.8667 212.372 29.2213 213.247 30.16C214.143 31.0987 215.391 31.568 216.991 31.568C218.1 31.568 219.081 31.472 219.935 31.28C220.809 31.0667 221.705 30.7573 222.623 30.352V33.168C221.769 33.552 220.895 33.84 219.999 34.032C219.124 34.224 218.079 34.32 216.863 34.32C215.199 34.32 213.727 33.9893 212.447 33.328C211.167 32.6667 210.164 31.6853 209.439 30.384C208.735 29.0613 208.383 27.44 208.383 25.52C208.383 23.5787 208.703 21.936 209.343 20.592C210.004 19.248 210.911 18.224 212.063 17.52C213.236 16.7947 214.601 16.432 216.159 16.432ZM216.159 19.056C214.943 19.056 213.961 19.4507 213.215 20.24C212.489 21.0293 212.063 22.1493 211.935 23.6H220.063C220.063 22.704 219.924 21.9147 219.647 21.232C219.369 20.5493 218.943 20.016 218.367 19.632C217.791 19.248 217.055 19.056 216.159 19.056ZM246.144 13.808C245.013 13.808 244 14.0107 243.104 14.416C242.208 14.8 241.44 15.376 240.8 16.144C240.181 16.912 239.701 17.84 239.36 18.928C239.04 20.016 238.88 21.2427 238.88 22.608C238.88 24.4 239.146 25.9573 239.68 27.28C240.213 28.5813 241.013 29.584 242.08 30.288C243.146 30.992 244.49 31.344 246.112 31.344C247.093 31.344 248.032 31.2587 248.928 31.088C249.845 30.896 250.773 30.6507 251.712 30.352V33.328C250.816 33.6693 249.898 33.9147 248.96 34.064C248.021 34.2347 246.933 34.32 245.696 34.32C243.37 34.32 241.429 33.84 239.872 32.88C238.336 31.92 237.184 30.5547 236.416 28.784C235.648 27.0133 235.264 24.944 235.264 22.576C235.264 20.848 235.498 19.2693 235.968 17.84C236.458 16.3893 237.162 15.1413 238.08 14.096C238.997 13.0507 240.128 12.2507 241.472 11.696C242.837 11.12 244.405 10.832 246.176 10.832C247.328 10.832 248.458 10.96 249.568 11.216C250.677 11.4507 251.68 11.792 252.576 12.24L251.296 15.12C250.549 14.7787 249.738 14.48 248.864 14.224C248.01 13.9467 247.104 13.808 246.144 13.808ZM269.498 34H256.634V11.152H269.498V14.096H260.09V20.624H268.922V23.536H260.09V31.024H269.498V34ZM294.606 22.544C294.606 24.3147 294.382 25.9253 293.934 27.376C293.508 28.8053 292.846 30.0427 291.95 31.088C291.076 32.1333 289.966 32.9333 288.622 33.488C287.3 34.0427 285.753 34.32 283.982 34.32C282.169 34.32 280.59 34.0427 279.246 33.488C277.924 32.912 276.814 32.112 275.918 31.088C275.044 30.0427 274.393 28.7947 273.966 27.344C273.54 25.8933 273.326 24.2827 273.326 22.512C273.326 20.1653 273.71 18.1173 274.478 16.368C275.246 14.6187 276.42 13.2533 277.998 12.272C279.598 11.2907 281.604 10.8 284.014 10.8C286.361 10.8 288.313 11.2907 289.87 12.272C291.449 13.232 292.633 14.5973 293.422 16.368C294.212 18.1173 294.606 20.176 294.606 22.544ZM276.974 22.544C276.974 24.3787 277.22 25.9573 277.71 27.28C278.201 28.5813 278.969 29.5947 280.014 30.32C281.06 31.024 282.382 31.376 283.982 31.376C285.604 31.376 286.926 31.024 287.95 30.32C288.974 29.5947 289.732 28.5813 290.222 27.28C290.713 25.9573 290.958 24.3787 290.958 22.544C290.958 19.792 290.404 17.648 289.294 16.112C288.206 14.5547 286.446 13.776 284.014 13.776C282.393 13.776 281.06 14.128 280.014 14.832C278.969 15.536 278.201 16.5387 277.71 17.84C277.22 19.1413 276.974 20.7093 276.974 22.544ZM301.682 30.64C301.49 31.3867 301.245 32.1973 300.946 33.072C300.647 33.9467 300.327 34.8107 299.986 35.664C299.645 36.5387 299.293 37.36 298.93 38.128H296.466C296.679 37.296 296.882 36.4107 297.074 35.472C297.287 34.5547 297.479 33.648 297.65 32.752C297.821 31.856 297.959 31.0347 298.066 30.288H301.458L301.682 30.64Z" fill="#848E9C"/>
<path d="M361.28 34L358.848 27.408H350.016L347.584 34H344L352.672 11.056H356.256L364.896 34H361.28ZM355.584 17.968C355.52 17.7333 355.403 17.3813 355.232 16.912C355.083 16.4213 354.933 15.9307 354.784 15.44C354.635 14.928 354.517 14.512 354.432 14.192C354.325 14.6187 354.197 15.088 354.048 15.6C353.92 16.0907 353.792 16.5493 353.664 16.976C353.536 17.3813 353.429 17.712 353.344 17.968L351.04 24.4H357.888L355.584 17.968ZM376.106 16.432C376.404 16.432 376.735 16.4533 377.098 16.496C377.46 16.5173 377.759 16.5493 377.994 16.592L377.642 19.76C377.407 19.696 377.13 19.6427 376.81 19.6C376.49 19.5573 376.191 19.536 375.914 19.536C375.274 19.536 374.655 19.664 374.058 19.92C373.482 20.1547 372.959 20.5067 372.49 20.976C372.02 21.424 371.647 21.9787 371.37 22.64C371.114 23.3013 370.986 24.0587 370.986 24.912V34H367.594V16.752H370.282L370.73 19.824H370.858C371.22 19.2053 371.658 18.64 372.17 18.128C372.682 17.616 373.268 17.2107 373.93 16.912C374.591 16.592 375.316 16.432 376.106 16.432ZM392.643 29.136C392.643 30.2667 392.366 31.216 391.811 31.984C391.257 32.752 390.457 33.3387 389.411 33.744C388.366 34.128 387.107 34.32 385.635 34.32C384.419 34.32 383.374 34.224 382.499 34.032C381.646 33.8613 380.857 33.6053 380.131 33.264V30.288C380.899 30.6507 381.785 30.9813 382.787 31.28C383.79 31.5573 384.771 31.696 385.731 31.696C387.011 31.696 387.929 31.4933 388.483 31.088C389.059 30.6827 389.347 30.1387 389.347 29.456C389.347 29.072 389.241 28.7307 389.027 28.432C388.814 28.112 388.409 27.792 387.811 27.472C387.235 27.1307 386.382 26.7467 385.251 26.32C384.163 25.872 383.235 25.4347 382.467 25.008C381.699 24.56 381.113 24.0373 380.707 23.44C380.302 22.8213 380.099 22.032 380.099 21.072C380.099 19.5787 380.697 18.4373 381.891 17.648C383.107 16.8373 384.707 16.432 386.691 16.432C387.737 16.432 388.718 16.5387 389.635 16.752C390.574 16.944 391.481 17.2427 392.355 17.648L391.235 20.24C390.745 20.0053 390.233 19.8133 389.699 19.664C389.187 19.4933 388.665 19.3547 388.131 19.248C387.619 19.1413 387.086 19.088 386.531 19.088C385.507 19.088 384.729 19.248 384.195 19.568C383.662 19.888 383.395 20.336 383.395 20.912C383.395 21.3173 383.513 21.6693 383.747 21.968C384.003 22.2667 384.441 22.5653 385.059 22.864C385.678 23.1627 386.521 23.5253 387.587 23.952C388.654 24.3573 389.561 24.7733 390.307 25.2C391.075 25.6267 391.651 26.1493 392.035 26.768C392.441 27.3867 392.643 28.176 392.643 29.136ZM403.471 16.432C404.986 16.432 406.287 16.752 407.375 17.392C408.463 18.0107 409.295 18.9067 409.871 20.08C410.469 21.2533 410.767 22.64 410.767 24.24V26.096H399.183C399.226 27.8667 399.685 29.2213 400.559 30.16C401.455 31.0987 402.703 31.568 404.303 31.568C405.413 31.568 406.394 31.472 407.247 31.28C408.122 31.0667 409.018 30.7573 409.935 30.352V33.168C409.082 33.552 408.207 33.84 407.311 34.032C406.437 34.224 405.391 34.32 404.175 34.32C402.511 34.32 401.039 33.9893 399.759 33.328C398.479 32.6667 397.477 31.6853 396.751 30.384C396.047 29.0613 395.695 27.44 395.695 25.52C395.695 23.5787 396.015 21.936 396.655 20.592C397.317 19.248 398.223 18.224 399.375 17.52C400.549 16.7947 401.914 16.432 403.471 16.432ZM403.471 19.056C402.255 19.056 401.274 19.4507 400.527 20.24C399.802 21.0293 399.375 22.1493 399.247 23.6H407.375C407.375 22.704 407.237 21.9147 406.959 21.232C406.682 20.5493 406.255 20.016 405.679 19.632C405.103 19.248 404.367 19.056 403.471 19.056ZM423.736 16.432C425.741 16.432 427.277 16.9333 428.344 17.936C429.41 18.9387 429.944 20.5493 429.944 22.768V34H426.584V23.248C426.584 21.904 426.296 20.9013 425.72 20.24C425.165 19.5573 424.269 19.216 423.032 19.216C421.282 19.216 420.066 19.7387 419.384 20.784C418.722 21.8293 418.392 23.3333 418.392 25.296V34H415V16.752H417.688L418.168 19.056H418.36C418.744 18.4587 419.213 17.968 419.768 17.584C420.322 17.2 420.941 16.912 421.624 16.72C422.306 16.528 423.01 16.432 423.736 16.432ZM451.533 34H448.077V14.128H441.229V11.152H458.381V14.128H451.533V34ZM474.45 25.36C474.45 26.7893 474.258 28.0587 473.874 29.168C473.49 30.2773 472.946 31.216 472.242 31.984C471.538 32.752 470.684 33.3387 469.682 33.744C468.679 34.128 467.548 34.32 466.29 34.32C465.138 34.32 464.071 34.128 463.09 33.744C462.108 33.3387 461.255 32.752 460.53 31.984C459.826 31.216 459.271 30.2773 458.866 29.168C458.46 28.0587 458.258 26.7787 458.258 25.328C458.258 23.4293 458.578 21.8187 459.218 20.496C459.879 19.1733 460.818 18.1707 462.034 17.488C463.271 16.784 464.722 16.432 466.386 16.432C467.964 16.432 469.351 16.784 470.546 17.488C471.762 18.1707 472.711 19.1733 473.394 20.496C474.098 21.8187 474.45 23.44 474.45 25.36ZM461.746 25.36C461.746 26.64 461.906 27.7493 462.226 28.688C462.546 29.6053 463.047 30.3093 463.73 30.8C464.412 31.2907 465.287 31.536 466.354 31.536C467.42 31.536 468.295 31.2907 468.978 30.8C469.66 30.3093 470.162 29.6053 470.482 28.688C470.802 27.7493 470.962 26.64 470.962 25.36C470.962 24.0373 470.791 22.928 470.45 22.032C470.13 21.136 469.628 20.4533 468.946 19.984C468.284 19.4933 467.41 19.248 466.322 19.248C464.722 19.248 463.559 19.7813 462.834 20.848C462.108 21.9147 461.746 23.4187 461.746 25.36ZM498.078 16.432C500.019 16.432 501.48 16.9333 502.462 17.936C503.443 18.9387 503.934 20.5493 503.934 22.768V34H500.542V23.216C500.542 21.8933 500.275 20.9013 499.742 20.24C499.23 19.5573 498.419 19.216 497.31 19.216C495.774 19.216 494.675 19.696 494.014 20.656C493.352 21.5947 493.022 22.96 493.022 24.752V34H489.662V23.216C489.662 22.3413 489.534 21.6053 489.278 21.008C489.043 20.4107 488.691 19.9627 488.222 19.664C487.752 19.3653 487.144 19.216 486.398 19.216C485.331 19.216 484.488 19.4507 483.87 19.92C483.251 20.3893 482.803 21.0827 482.526 22C482.27 22.896 482.142 23.9947 482.142 25.296V34H478.75V16.752H481.438L481.918 19.056H482.11C482.472 18.4587 482.91 17.968 483.422 17.584C483.955 17.2 484.542 16.912 485.182 16.72C485.822 16.528 486.483 16.432 487.166 16.432C488.467 16.432 489.566 16.6667 490.462 17.136C491.358 17.584 492.008 18.2773 492.414 19.216H492.67C493.224 18.256 493.992 17.552 494.974 17.104C495.955 16.656 496.99 16.432 498.078 16.432ZM520.581 29.136C520.581 30.2667 520.303 31.216 519.749 31.984C519.194 32.752 518.394 33.3387 517.349 33.744C516.303 34.128 515.045 34.32 513.573 34.32C512.357 34.32 511.311 34.224 510.437 34.032C509.583 33.8613 508.794 33.6053 508.069 33.264V30.288C508.837 30.6507 509.722 30.9813 510.725 31.28C511.727 31.5573 512.709 31.696 513.669 31.696C514.949 31.696 515.866 31.4933 516.421 31.088C516.997 30.6827 517.285 30.1387 517.285 29.456C517.285 29.072 517.178 28.7307 516.965 28.432C516.751 28.112 516.346 27.792 515.749 27.472C515.173 27.1307 514.319 26.7467 513.189 26.32C512.101 25.872 511.173 25.4347 510.405 25.008C509.637 24.56 509.05 24.0373 508.645 23.44C508.239 22.8213 508.037 22.032 508.037 21.072C508.037 19.5787 508.634 18.4373 509.829 17.648C511.045 16.8373 512.645 16.432 514.629 16.432C515.674 16.432 516.655 16.5387 517.573 16.752C518.511 16.944 519.418 17.2427 520.293 17.648L519.173 20.24C518.682 20.0053 518.17 19.8133 517.637 19.664C517.125 19.4933 516.602 19.3547 516.069 19.248C515.557 19.1413 515.023 19.088 514.469 19.088C513.445 19.088 512.666 19.248 512.133 19.568C511.599 19.888 511.333 20.336 511.333 20.912C511.333 21.3173 511.45 21.6693 511.685 21.968C511.941 22.2667 512.378 22.5653 512.997 22.864C513.615 23.1627 514.458 23.5253 515.525 23.952C516.591 24.3573 517.498 24.7733 518.245 25.2C519.013 25.6267 519.589 26.1493 519.973 26.768C520.378 27.3867 520.581 28.176 520.581 29.136ZM527.985 21.84C527.985 22.288 527.963 22.8 527.921 23.376C527.899 23.952 527.867 24.4853 527.825 24.976H527.921C528.091 24.7627 528.294 24.5067 528.529 24.208C528.785 23.888 529.041 23.568 529.297 23.248C529.553 22.928 529.787 22.6507 530.001 22.416L535.281 16.752H539.217L532.273 24.144L539.665 34H535.665L529.969 26.288L527.985 27.952V34H524.625V9.68H527.985V21.84ZM539.876 16.752H543.524L547.108 26.544C547.3 27.0347 547.47 27.5147 547.62 27.984C547.769 28.4533 547.897 28.9227 548.004 29.392C548.132 29.84 548.228 30.288 548.292 30.736H548.42C548.526 30.1813 548.697 29.5307 548.932 28.784C549.166 28.016 549.412 27.2587 549.668 26.512L553.06 16.752H556.708L549.316 36.336C548.91 37.4453 548.409 38.3947 547.812 39.184C547.214 39.9947 546.5 40.6133 545.668 41.04C544.857 41.4667 543.897 41.68 542.788 41.68C542.254 41.68 541.796 41.648 541.412 41.584C541.028 41.5413 540.697 41.488 540.42 41.424V38.736C540.654 38.7787 540.932 38.8213 541.252 38.864C541.593 38.9067 541.945 38.928 542.308 38.928C542.969 38.928 543.534 38.8 544.004 38.544C544.494 38.288 544.9 37.9253 545.22 37.456C545.561 36.9867 545.849 36.4533 546.084 35.856L546.788 34L539.876 16.752Z" fill="#848E9C"/>
</svg>
